<?xml version="1.0" encoding="UTF-8"?>
<!DOCTYPE svg PUBLIC "-//W3C//DTD SVG 1.1//EN" "http://www.w3.org/Graphics/SVG/1.1/DTD/svg11.dtd">
<svg xmlns="http://www.w3.org/2000/svg" version="1.1" width="1379px" height="1379px" style="shape-rendering:geometricPrecision; text-rendering:geometricPrecision; image-rendering:optimizeQuality; fill-rule:evenodd; clip-rule:evenodd" xmlns:xlink="http://www.w3.org/1999/xlink">
<g><path style="opacity:1" fill="#ff2212" d="M 529.5,469.5 C 531.515,470.924 533.848,471.59 536.5,471.5C 540.162,471.723 543.495,472.723 546.5,474.5C 547.78,475.931 549.447,476.598 551.5,476.5C 556.251,477.71 560.584,479.71 564.5,482.5C 565.344,484.759 567.011,485.759 569.5,485.5C 572.511,486.669 575.178,488.336 577.5,490.5C 578.035,492.446 579.368,493.446 581.5,493.5C 582.5,493.833 583.167,494.5 583.5,495.5C 583.973,496.906 584.973,497.573 586.5,497.5C 588.167,498.5 589.5,499.833 590.5,501.5C 592.5,504.167 594.833,506.5 597.5,508.5C 598.5,508.833 599.167,509.5 599.5,510.5C 600.08,512.749 601.413,514.415 603.5,515.5C 604.419,518.089 606.086,520.089 608.5,521.5C 608.427,523.027 609.094,524.027 610.5,524.5C 610.702,526.989 610.202,529.323 609,531.5C 608.333,528.833 607.667,528.833 607,531.5C 606.333,528.833 605.667,528.833 605,531.5C 604.333,528.833 603.667,528.833 603,531.5C 602.333,528.833 601.667,528.833 601,531.5C 600.333,528.833 599.667,528.833 599,531.5C 598.333,528.833 597.667,528.833 597,531.5C 596.333,528.833 595.667,528.833 595,531.5C 594.333,528.833 593.667,528.833 593,531.5C 592.333,528.833 591.667,528.833 591,531.5C 590.667,530.833 590.333,530.167 590,529.5C 589.014,530.171 587.847,530.171 586.5,529.5C 586.573,527.973 585.906,526.973 584.5,526.5C 582.5,525.167 580.833,523.5 579.5,521.5C 579.5,519.5 578.5,518.5 576.5,518.5C 574.833,517.5 573.5,516.167 572.5,514.5C 571.415,512.413 569.749,511.08 567.5,510.5C 566.738,508.738 565.404,507.738 563.5,507.5C 562.508,507.672 561.842,507.338 561.5,506.5C 561.027,505.094 560.027,504.427 558.5,504.5C 557.508,504.672 556.842,504.338 556.5,503.5C 556.027,502.094 555.027,501.427 553.5,501.5C 546.756,498.786 540.089,496.12 533.5,493.5C 531.562,491.837 529.228,491.171 526.5,491.5C 509.1,488.605 491.766,488.939 474.5,492.5C 471.848,492.41 469.515,493.076 467.5,494.5C 460.417,497.54 453.417,500.874 446.5,504.5C 434.89,503.234 423.557,503.234 412.5,504.5C 413.833,502.833 415.167,501.167 416.5,499.5C 419.089,498.581 421.089,496.914 422.5,494.5C 424.404,494.262 425.738,493.262 426.5,491.5C 427.436,490.026 428.77,489.026 430.5,488.5C 432.989,488.759 434.656,487.759 435.5,485.5C 437.027,485.573 438.027,484.906 438.5,483.5C 440.181,481.992 442.181,480.992 444.5,480.5C 448.836,480.163 452.503,478.496 455.5,475.5C 458.916,475.472 461.916,474.472 464.5,472.5C 465.568,471.566 466.901,471.232 468.5,471.5C 471.495,471.706 474.162,471.04 476.5,469.5C 494.062,465.542 511.729,465.542 529.5,469.5 Z"/></g>
<g><path style="opacity:1" fill="#628fcd" d="M 257.5,467.5 C 250.5,467.5 243.5,467.5 236.5,467.5C 232.605,477.623 228.438,487.623 224,497.5C 195.272,556.404 167.439,615.737 140.5,675.5C 137.112,672.403 134.445,668.736 132.5,664.5C 163.217,599.352 193.55,534.019 223.5,468.5C 230.103,467.006 236.936,466.339 244,466.5C 248.68,466.501 253.18,466.834 257.5,467.5 Z"/></g>
<g><path style="opacity:1" fill="#5888cb" d="M 257.5,467.5 C 260.57,467.368 263.57,467.701 266.5,468.5C 266.5,468.833 266.5,469.167 266.5,469.5C 264.833,469.5 263.167,469.5 261.5,469.5C 258.948,476.573 256.114,483.573 253,490.5C 220.483,558.238 188.649,626.238 157.5,694.5C 150.727,689.066 145.061,682.733 140.5,675.5C 167.439,615.737 195.272,556.404 224,497.5C 228.438,487.623 232.605,477.623 236.5,467.5C 243.5,467.5 250.5,467.5 257.5,467.5 Z"/></g>
<g><path style="opacity:1" fill="#6893d0" d="M 223.5,468.5 C 193.55,534.019 163.217,599.352 132.5,664.5C 130.638,662.109 129.304,659.442 128.5,656.5C 128.008,654.181 127.008,652.181 125.5,650.5C 123.935,648.491 122.935,646.157 122.5,643.5C 148.823,587.519 175.156,531.519 201.5,475.5C 202.901,474.479 204.235,473.479 205.5,472.5C 211.187,470.248 217.187,468.914 223.5,468.5 Z"/></g>
<g><path style="opacity:1" fill="#4f81c8" d="M 266.5,469.5 C 269.127,470.092 271.794,470.425 274.5,470.5C 278.214,470.59 281.548,471.59 284.5,473.5C 282.712,473.215 281.045,473.548 279.5,474.5C 243.522,551.702 207.189,628.868 170.5,706C 171.252,706.671 171.586,707.504 171.5,708.5C 166.5,704.167 161.833,699.5 157.5,694.5C 188.649,626.238 220.483,558.238 253,490.5C 256.114,483.573 258.948,476.573 261.5,469.5C 263.167,469.5 264.833,469.5 266.5,469.5 Z"/></g>
<g><path style="opacity:1" fill="#d1d8e7" d="M 266.5,469.5 C 266.5,469.167 266.5,468.833 266.5,468.5C 269.428,468.565 272.095,469.232 274.5,470.5C 271.794,470.425 269.127,470.092 266.5,469.5 Z"/></g>
<g><path style="opacity:1" fill="#f5beb6" d="M 529.5,469.5 C 532.152,469.41 534.485,470.076 536.5,471.5C 533.848,471.59 531.515,470.924 529.5,469.5 Z"/></g>
<g><path style="opacity:1" fill="#f6725a" d="M 476.5,469.5 C 474.162,471.04 471.495,471.706 468.5,471.5C 470.838,469.96 473.505,469.294 476.5,469.5 Z"/></g>
<g><path style="opacity:1" fill="#487ac5" d="M 284.5,473.5 C 289.207,474.36 293.541,476.027 297.5,478.5C 296.5,478.5 295.5,478.5 294.5,478.5C 258.591,555.983 222.425,633.316 186,710.5C 185.455,713.038 184.788,715.371 184,717.5C 220.808,641.55 256.808,565.216 292,488.5C 293.153,485.53 294.82,482.863 297,480.5C 297.167,481 297.333,481.5 297.5,482C 261.488,558.345 225.655,634.845 190,711.5C 188.591,714.582 186.758,717.415 184.5,720C 185.252,720.671 185.586,721.504 185.5,722.5C 180.5,718.167 175.833,713.5 171.5,708.5C 171.586,707.504 171.252,706.671 170.5,706C 207.189,628.868 243.522,551.702 279.5,474.5C 281.045,473.548 282.712,473.215 284.5,473.5 Z"/></g>
<g><path style="opacity:1" fill="#f67f6a" d="M 464.5,472.5 C 461.916,474.472 458.916,475.472 455.5,475.5C 458.215,473.928 461.215,472.928 464.5,472.5 Z"/></g>
<g><path style="opacity:1" fill="#f3ada1" d="M 546.5,474.5 C 548.553,474.402 550.22,475.069 551.5,476.5C 549.447,476.598 547.78,475.931 546.5,474.5 Z"/></g>
<g><path style="opacity:1" fill="#6f98d2" d="M 205.5,472.5 C 204.235,473.479 202.901,474.479 201.5,475.5C 175.156,531.519 148.823,587.519 122.5,643.5C 120.342,639.493 119.009,635.16 118.5,630.5C 117.673,626.193 117.007,621.86 116.5,617.5C 116.413,614.402 116.913,614.068 118,616.5C 138.982,572.247 159.815,527.914 180.5,483.5C 183.102,481.19 186.102,479.357 189.5,478C 194.756,475.859 200.09,474.026 205.5,472.5 Z"/></g>
<g><path style="opacity:1" fill="#fb6148" d="M 455.5,475.5 C 452.503,478.496 448.836,480.163 444.5,480.5C 447.74,478.049 451.407,476.382 455.5,475.5 Z"/></g>
<g><path style="opacity:1" fill="#3f74c3" d="M 297.5,478.5 C 303.65,480.74 309.316,483.74 314.5,487.5C 313.5,487.5 312.5,487.5 311.5,487.5C 286.394,543.619 259.727,600.452 231.5,658C 231.833,658.333 232.167,658.667 232.5,659C 221.694,678.962 212.194,699.129 204,719.5C 202.242,720.469 201.742,721.636 202.5,723C 199.482,726.644 197.815,730.477 197.5,734.5C 193.167,730.833 189.167,726.833 185.5,722.5C 185.586,721.504 185.252,720.671 184.5,720C 186.758,717.415 188.591,714.582 190,711.5C 225.655,634.845 261.488,558.345 297.5,482C 297.333,481.5 297.167,481 297,480.5C 294.82,482.863 293.153,485.53 292,488.5C 256.808,565.216 220.808,641.55 184,717.5C 184.788,715.371 185.455,713.038 186,710.5C 222.425,633.316 258.591,555.983 294.5,478.5C 295.5,478.5 296.5,478.5 297.5,478.5 Z"/></g>
<g><path style="opacity:1" fill="#f79383" d="M 438.5,483.5 C 438.027,484.906 437.027,485.573 435.5,485.5C 435.973,484.094 436.973,483.427 438.5,483.5 Z"/></g>
<g><path style="opacity:1" fill="#ff9681" d="M 564.5,482.5 C 566.674,482.75 568.341,483.75 569.5,485.5C 567.011,485.759 565.344,484.759 564.5,482.5 Z"/></g>
<g><path style="opacity:1" fill="#779dd3" d="M 180.5,483.5 C 159.815,527.914 138.982,572.247 118,616.5C 116.913,614.068 116.413,614.402 116.5,617.5C 116.167,617.5 115.833,617.5 115.5,617.5C 113.353,605.976 113.019,594.31 114.5,582.5C 115.167,582.5 115.5,582.167 115.5,581.5C 116.461,583.265 116.795,585.265 116.5,587.5C 119.462,587.883 120.462,586.883 119.5,584.5C 120.098,583.205 120.598,581.872 121,580.5C 121.805,582.901 122.638,582.734 123.5,580C 122.409,577.936 122.242,575.769 123,573.5C 123.667,574.833 124.333,574.833 125,573.5C 126.455,570.088 128.288,566.921 130.5,564C 129.483,562.951 129.316,561.784 130,560.5C 130.333,561.167 130.667,561.833 131,562.5C 132.373,559.588 133.873,556.754 135.5,554C 134.673,550.494 135.506,547.328 138,544.5C 138.805,546.901 139.638,546.734 140.5,544C 140.167,543.667 139.833,543.333 139.5,543C 143.099,536.04 146.766,529.04 150.5,522C 149.715,519.557 149.881,517.057 151,514.5C 151.333,515.833 151.667,517.167 152,518.5C 152.627,514.448 154.127,510.782 156.5,507.5C 155.515,505.902 155.349,504.235 156,502.5C 158.04,500.63 159.873,498.63 161.5,496.5C 166.957,490.934 173.29,486.601 180.5,483.5 Z"/></g>
<g><path style="opacity:1" fill="#f97159" d="M 435.5,485.5 C 434.656,487.759 432.989,488.759 430.5,488.5C 431.659,486.75 433.326,485.75 435.5,485.5 Z"/></g>
<g><path style="opacity:1" fill="#3b6fbf" d="M 314.5,487.5 C 321.72,491.388 328.053,496.388 333.5,502.5C 331.362,502.297 329.695,501.297 328.5,499.5C 309.732,538.702 291.232,578.036 273,617.5C 272.421,618.928 272.588,620.262 273.5,621.5C 272.5,623.167 271.167,624.5 269.5,625.5C 268.094,625.973 267.427,626.973 267.5,628.5C 261.037,635.286 255.371,642.62 250.5,650.5C 249.094,650.973 248.427,651.973 248.5,653.5C 248.025,655.784 247.025,657.784 245.5,659.5C 243.896,660.287 243.229,661.62 243.5,663.5C 243.167,664.167 242.833,664.833 242.5,665.5C 241.85,665.804 241.183,666.137 240.5,666.5C 237.838,671.487 236.172,676.82 235.5,682.5C 235.102,686.761 234.102,690.761 232.5,694.5C 230.825,697.507 230.159,700.84 230.5,704.5C 230.5,704.833 230.5,705.167 230.5,705.5C 229.047,712.109 228.381,718.942 228.5,726C 228.326,732.406 228.993,738.573 230.5,744.5C 230.5,745.5 230.5,746.5 230.5,747.5C 230.322,751.122 230.989,754.456 232.5,757.5C 233.451,758.919 233.784,760.585 233.5,762.5C 233.318,764.591 233.652,766.591 234.5,768.5C 233.767,769.087 232.767,769.087 231.5,768.5C 219.833,757.5 208.5,746.167 197.5,734.5C 197.815,730.477 199.482,726.644 202.5,723C 201.742,721.636 202.242,720.469 204,719.5C 212.194,699.129 221.694,678.962 232.5,659C 232.167,658.667 231.833,658.333 231.5,658C 259.727,600.452 286.394,543.619 311.5,487.5C 312.5,487.5 313.5,487.5 314.5,487.5 Z"/></g>
<g><path style="opacity:1" fill="#f5998b" d="M 526.5,491.5 C 529.228,491.171 531.562,491.837 533.5,493.5C 530.933,493.279 528.599,492.612 526.5,491.5 Z"/></g>
<g><path style="opacity:1" fill="#fba290" d="M 577.5,490.5 C 579.23,491.026 580.564,492.026 581.5,493.5C 579.368,493.446 578.035,492.446 577.5,490.5 Z"/></g>
<g><path style="opacity:1" fill="#f18779" d="M 426.5,491.5 C 425.738,493.262 424.404,494.262 422.5,494.5C 423.262,492.738 424.596,491.738 426.5,491.5 Z"/></g>
<g><path style="opacity:1" fill="#fbd3cc" d="M 474.5,492.5 C 472.485,493.924 470.152,494.59 467.5,494.5C 469.515,493.076 471.848,492.41 474.5,492.5 Z"/></g>
<g><path style="opacity:1" fill="#f9c7be" d="M 583.5,495.5 C 585.027,495.427 586.027,496.094 586.5,497.5C 584.973,497.573 583.973,496.906 583.5,495.5 Z"/></g>
<g><path style="opacity:1" fill="#f67f6a" d="M 422.5,494.5 C 421.089,496.914 419.089,498.581 416.5,499.5C 417.911,497.086 419.911,495.419 422.5,494.5 Z"/></g>
<g><path style="opacity:1" fill="#f7cbc4" d="M 590.5,501.5 C 593.833,502.833 596.167,505.167 597.5,508.5C 594.833,506.5 592.5,504.167 590.5,501.5 Z"/></g>
<g><path style="opacity:1" fill="#fefffe" d="M 917.5,501.5 C 954.989,498.16 979.156,514.494 990,550.5C 998.394,592.055 996.061,633.055 983,673.5C 976.06,696.082 963.893,715.249 946.5,731C 924.877,747.321 901.21,750.988 875.5,742C 860.488,734.654 849.988,723.154 844,707.5C 837.583,689.585 834.416,671.085 834.5,652C 834.47,613.621 843.303,577.454 861,543.5C 873.95,521.305 892.784,507.305 917.5,501.5 Z M 922.5,542.5 C 937.62,543.437 947.787,551.104 953,565.5C 958.518,583.845 959.851,602.512 957,621.5C 955.267,646.807 947.267,669.807 933,690.5C 922.746,702.919 909.912,707.085 894.5,703C 887.614,699.114 882.447,693.614 879,686.5C 872.078,667.024 870.078,647.024 873,626.5C 874.654,602.188 881.987,579.854 895,559.5C 902.089,550.201 911.256,544.534 922.5,542.5 Z"/></g>
<g><path style="opacity:1" fill="#f7b5ab" d="M 553.5,501.5 C 555.027,501.427 556.027,502.094 556.5,503.5C 554.973,503.573 553.973,502.906 553.5,501.5 Z"/></g>
<g><path style="opacity:1" fill="#81a2d5" d="M 161.5,496.5 C 159.873,498.63 158.04,500.63 156,502.5C 155.349,504.235 155.515,505.902 156.5,507.5C 154.127,510.782 152.627,514.448 152,518.5C 151.667,517.167 151.333,515.833 151,514.5C 149.881,517.057 149.715,519.557 150.5,522C 146.766,529.04 143.099,536.04 139.5,543C 139.833,543.333 140.167,543.667 140.5,544C 139.638,546.734 138.805,546.901 138,544.5C 135.506,547.328 134.673,550.494 135.5,554C 133.873,556.754 132.373,559.588 131,562.5C 130.667,561.833 130.333,561.167 130,560.5C 129.316,561.784 129.483,562.951 130.5,564C 128.288,566.921 126.455,570.088 125,573.5C 124.333,574.833 123.667,574.833 123,573.5C 122.242,575.769 122.409,577.936 123.5,580C 122.638,582.734 121.805,582.901 121,580.5C 120.598,581.872 120.098,583.205 119.5,584.5C 120.462,586.883 119.462,587.883 116.5,587.5C 116.795,585.265 116.461,583.265 115.5,581.5C 116.275,576.516 116.942,571.516 117.5,566.5C 122.313,543.871 132.647,524.204 148.5,507.5C 152.299,503.115 156.632,499.448 161.5,496.5 Z"/></g>
<g><path style="opacity:1" fill="#f5b7ae" d="M 558.5,504.5 C 560.027,504.427 561.027,505.094 561.5,506.5C 559.973,506.573 558.973,505.906 558.5,504.5 Z"/></g>
<g><path style="opacity:1" fill="#fefffe" d="M 716.5,505.5 C 737.503,505.333 758.503,505.5 779.5,506C 794.953,508.129 805.787,516.296 812,530.5C 820.048,558.214 818.714,585.547 808,612.5C 799.727,631.778 785.56,644.278 765.5,650C 750.544,651.396 735.544,651.896 720.5,651.5C 718.33,673.53 715.83,695.53 713,717.5C 712.481,728.778 707.981,737.945 699.5,745C 689.474,749.195 682.307,746.361 678,736.5C 676.985,732.235 676.485,727.902 676.5,723.5C 683.507,658.781 691.007,594.114 699,529.5C 700.248,517.95 706.082,509.95 716.5,505.5 Z M 733.5,544.5 C 743.541,544.244 753.541,544.744 763.5,546C 770.265,546.955 775.099,550.455 778,556.5C 785.509,598.493 768.009,617.16 725.5,612.5C 728.094,589.823 730.76,567.156 733.5,544.5 Z"/></g>
<g><path style="opacity:1" fill="#fefffe" d="M 1054.5,505.5 C 1075.5,505.333 1096.5,505.5 1117.5,506C 1132.95,508.129 1143.79,516.296 1150,530.5C 1158.05,558.214 1156.71,585.547 1146,612.5C 1137.73,631.778 1123.56,644.278 1103.5,650C 1088.54,651.396 1073.54,651.896 1058.5,651.5C 1056.33,673.53 1053.83,695.53 1051,717.5C 1050.48,728.778 1045.98,737.945 1037.5,745C 1027.47,749.195 1020.31,746.361 1016,736.5C 1014.98,732.235 1014.48,727.902 1014.5,723.5C 1021.51,658.781 1029.01,594.114 1037,529.5C 1038.25,517.95 1044.08,509.95 1054.5,505.5 Z M 1071.5,544.5 C 1081.54,544.244 1091.54,544.744 1101.5,546C 1108.27,546.955 1113.1,550.455 1116,556.5C 1123.51,598.493 1106.01,617.16 1063.5,612.5C 1066.09,589.823 1068.76,567.156 1071.5,544.5 Z"/></g>
<g><path style="opacity:1" fill="#3769bc" d="M 333.5,502.5 C 343.812,512.146 353.812,522.146 363.5,532.5C 333.479,562.188 303.479,591.854 273.5,621.5C 272.588,620.262 272.421,618.928 273,617.5C 291.232,578.036 309.732,538.702 328.5,499.5C 329.695,501.297 331.362,502.297 333.5,502.5 Z"/></g>
<g><path style="opacity:1" fill="#f48b7b" d="M 563.5,507.5 C 565.404,507.738 566.738,508.738 567.5,510.5C 565.596,510.262 564.262,509.262 563.5,507.5 Z"/></g>
<g><path style="opacity:1" fill="#f59685" d="M 567.5,510.5 C 569.749,511.08 571.415,512.413 572.5,514.5C 570.251,513.92 568.585,512.587 567.5,510.5 Z"/></g>
<g><path style="opacity:1" fill="#f5a193" d="M 599.5,510.5 C 601.587,511.585 602.92,513.251 603.5,515.5C 601.413,514.415 600.08,512.749 599.5,510.5 Z"/></g>
<g><path style="opacity:1" fill="#ff694f" d="M 431.5,515.5 C 430.415,517.587 428.749,518.92 426.5,519.5C 426.5,518.167 426.5,516.833 426.5,515.5C 427.5,515.5 428.5,515.5 429.5,515.5C 429.351,514.448 429.517,513.448 430,512.5C 430.232,513.737 430.732,514.737 431.5,515.5 Z"/></g>
<g><path style="opacity:1" fill="#f99c8c" d="M 576.5,518.5 C 578.5,518.5 579.5,519.5 579.5,521.5C 578.167,520.833 577.167,519.833 576.5,518.5 Z"/></g>
<g><path style="opacity:1" fill="#f9afa2" d="M 603.5,515.5 C 605.914,516.911 607.581,518.911 608.5,521.5C 606.086,520.089 604.419,518.089 603.5,515.5 Z"/></g>
<g><path style="opacity:1" fill="#f6cac3" d="M 608.5,521.5 C 609.906,521.973 610.573,522.973 610.5,524.5C 609.094,524.027 608.427,523.027 608.5,521.5 Z"/></g>
<g><path style="opacity:1" fill="#fd4643" d="M 517.5,526.5 C 515.91,526.628 514.577,527.295 513.5,528.5C 491.92,567.994 470.087,607.328 448,646.5C 446.589,648.65 445.755,650.984 445.5,653.5C 440.833,649.5 436.5,645.167 432.5,640.5C 453.361,602.613 474.361,564.78 495.5,527C 494.263,526.768 493.263,526.268 492.5,525.5C 495.649,524.835 498.982,524.502 502.5,524.5C 507.755,524.334 512.755,525.001 517.5,526.5 Z"/></g>
<g><path style="opacity:1" fill="#fb4b48" d="M 492.5,525.5 C 493.263,526.268 494.263,526.768 495.5,527C 474.361,564.78 453.361,602.613 432.5,640.5C 426.833,635.5 421.5,630.167 416.5,624.5C 432.042,595.915 447.708,567.415 463.5,539C 462.584,538.722 461.918,538.222 461.5,537.5C 470.55,530.486 480.883,526.486 492.5,525.5 Z"/></g>
<g><path style="opacity:1" fill="#facfc8" d="M 584.5,526.5 C 585.906,526.973 586.573,527.973 586.5,529.5C 585.094,529.027 584.427,528.027 584.5,526.5 Z"/></g>
<g><path style="opacity:1" fill="#fd3f3b" d="M 517.5,526.5 C 523.044,526.792 528.044,528.459 532.5,531.5C 507.04,576.089 482.373,621.089 458.5,666.5C 453.833,662.5 449.5,658.167 445.5,653.5C 445.755,650.984 446.589,648.65 448,646.5C 470.087,607.328 491.92,567.994 513.5,528.5C 514.577,527.295 515.91,526.628 517.5,526.5 Z"/></g>
<g><path style="opacity:1" fill="#f4c3bc" d="M 613.5,529.5 C 614.906,529.973 615.573,530.973 615.5,532.5C 614.094,532.027 613.427,531.027 613.5,529.5 Z"/></g>
<g><path style="opacity:1" fill="#fd3835" d="M 532.5,531.5 C 539.131,534.148 545.131,537.815 550.5,542.5C 550.5,543.167 550.5,543.833 550.5,544.5C 549.85,544.196 549.183,543.863 548.5,543.5C 522.787,588.424 497.453,633.591 472.5,679C 473.252,679.671 473.586,680.504 473.5,681.5C 468.167,676.833 463.167,671.833 458.5,666.5C 482.373,621.089 507.04,576.089 532.5,531.5 Z"/></g>
<g><path style="opacity:1" fill="#fb5351" d="M 461.5,537.5 C 461.918,538.222 462.584,538.722 463.5,539C 447.708,567.415 432.042,595.915 416.5,624.5C 409.202,617.703 402.035,610.703 395,603.5C 394.333,602.833 394.333,602.167 395,601.5C 414.833,581.667 434.667,561.833 454.5,542C 456.734,540.25 459.068,538.75 461.5,537.5 Z"/></g>
<g><path style="opacity:1" fill="#ff271c" d="M 446.5,504.5 C 441.36,507.91 436.36,511.577 431.5,515.5C 430.732,514.737 430.232,513.737 430,512.5C 429.517,513.448 429.351,514.448 429.5,515.5C 428.5,515.5 427.5,515.5 426.5,515.5C 426.5,516.833 426.5,518.167 426.5,519.5C 413.621,533.23 400.287,546.564 386.5,559.5C 384.305,558.781 382.805,559.781 382,562.5C 380.611,558.728 379.611,558.728 379,562.5C 378.389,558.728 377.389,558.728 376,562.5C 374.611,558.728 373.611,558.728 373,562.5C 372.389,558.728 371.389,558.728 370,562.5C 368.611,558.728 367.611,558.728 367,562.5C 366.389,558.728 365.389,558.728 364,562.5C 362.611,558.728 361.611,558.728 361,562.5C 360.667,561.5 360.333,560.5 360,559.5C 358.951,561.107 357.451,561.773 355.5,561.5C 374.167,542.167 393.167,523.167 412.5,504.5C 423.557,503.234 434.89,503.234 446.5,504.5 Z"/></g>
<g><path style="opacity:1" fill="#ff2c22" d="M 610.5,524.5 C 611.89,525.899 612.89,527.566 613.5,529.5C 613.427,531.027 614.094,532.027 615.5,532.5C 617.674,535.515 619.341,538.849 620.5,542.5C 620.45,546.43 621.783,549.763 624.5,552.5C 624.259,554.898 624.926,556.898 626.5,558.5C 626.742,562.479 627.742,566.146 629.5,569.5C 630.709,573.618 631.376,577.951 631.5,582.5C 631.666,589.508 631.5,596.508 631,603.5C 630.794,606.623 630.127,609.623 629,612.5C 628.026,610.122 627.359,610.456 627,613.5C 626.333,609.5 625.667,609.5 625,613.5C 624.333,609.5 623.667,609.5 623,613.5C 622.333,609.5 621.667,609.5 621,613.5C 620.333,609.5 619.667,609.5 619,613.5C 618.333,609.5 617.667,609.5 617,613.5C 616.333,609.5 615.667,609.5 615,613.5C 614.333,609.5 613.667,609.5 613,613.5C 612.667,612.5 612.333,611.5 612,610.5C 611.667,610.833 611.333,611.167 611,611.5C 610.501,606.845 610.334,602.179 610.5,597.5C 609.581,590.906 608.915,584.24 608.5,577.5C 608.785,574.171 608.118,571.171 606.5,568.5C 606.829,565.772 606.163,563.438 604.5,561.5C 606.255,558.91 605.588,557.243 602.5,556.5C 602.598,554.447 601.931,552.78 600.5,551.5C 596.347,543.865 591.68,536.531 586.5,529.5C 587.847,530.171 589.014,530.171 590,529.5C 590.333,530.167 590.667,530.833 591,531.5C 591.667,528.833 592.333,528.833 593,531.5C 593.667,528.833 594.333,528.833 595,531.5C 595.667,528.833 596.333,528.833 597,531.5C 597.667,528.833 598.333,528.833 599,531.5C 599.667,528.833 600.333,528.833 601,531.5C 601.667,528.833 602.333,528.833 603,531.5C 603.667,528.833 604.333,528.833 605,531.5C 605.667,528.833 606.333,528.833 607,531.5C 607.667,528.833 608.333,528.833 609,531.5C 610.202,529.323 610.702,526.989 610.5,524.5 Z"/></g>
<g><path style="opacity:1" fill="#f6b2ac" d="M 550.5,542.5 C 551.833,543.167 552.833,544.167 553.5,545.5C 552.391,545.443 551.391,545.11 550.5,544.5C 550.5,543.833 550.5,543.167 550.5,542.5 Z"/></g>
<g><path style="opacity:1" fill="#fb8a78" d="M 620.5,542.5 C 622.794,545.37 624.128,548.703 624.5,552.5C 621.783,549.763 620.45,546.43 620.5,542.5 Z"/></g>
<g><path style="opacity:1" fill="#f9aea5" d="M 553.5,545.5 C 555.587,546.585 556.92,548.251 557.5,550.5C 555.413,549.415 554.08,547.749 553.5,545.5 Z"/></g>
<g><path style="opacity:1" fill="#fe302b" d="M 550.5,544.5 C 551.391,545.11 552.391,545.443 553.5,545.5C 554.08,547.749 555.413,549.415 557.5,550.5C 559.984,552.8 561.984,555.467 563.5,558.5C 562.206,557.71 561.039,556.71 560,555.5C 555.513,560.739 551.847,567.739 549,576.5C 548.667,575.833 548.333,575.167 548,574.5C 544.451,580.93 541.451,587.596 539,594.5C 538.667,593.833 538.333,593.167 538,592.5C 534.119,599.595 530.785,606.929 528,614.5C 527.667,613.833 527.333,613.167 527,612.5C 523.451,618.93 520.451,625.596 518,632.5C 517.667,631.833 517.333,631.167 517,630.5C 513.451,636.93 510.451,643.596 508,650.5C 507.667,649.833 507.333,649.167 507,648.5C 503.451,654.93 500.451,661.596 498,668.5C 497.667,667.833 497.333,667.167 497,666.5C 493.451,672.93 490.451,679.596 488,686.5C 487.667,685.833 487.333,685.167 487,684.5C 486.293,686.081 485.46,687.581 484.5,689C 485.38,690.356 485.714,691.856 485.5,693.5C 481.167,689.833 477.167,685.833 473.5,681.5C 473.586,680.504 473.252,679.671 472.5,679C 497.453,633.591 522.787,588.424 548.5,543.5C 549.183,543.863 549.85,544.196 550.5,544.5 Z"/></g>
<g><path style="opacity:1" fill="#f5bab0" d="M 600.5,551.5 C 601.931,552.78 602.598,554.447 602.5,556.5C 601.069,555.22 600.402,553.553 600.5,551.5 Z"/></g>
<g><path style="opacity:1" fill="#f49182" d="M 624.5,552.5 C 625.738,554.214 626.405,556.214 626.5,558.5C 624.926,556.898 624.259,554.898 624.5,552.5 Z"/></g>
<g><path style="opacity:1" fill="#fe7d67" d="M 602.5,556.5 C 605.588,557.243 606.255,558.91 604.5,561.5C 603.463,560.07 602.796,558.403 602.5,556.5 Z"/></g>
<g><path style="opacity:1" fill="#fbbab5" d="M 563.5,558.5 C 564.906,558.973 565.573,559.973 565.5,561.5C 564.094,561.027 563.427,560.027 563.5,558.5 Z"/></g>
<g><path style="opacity:1" fill="#f4a193" d="M 626.5,558.5 C 628.258,561.854 629.258,565.521 629.5,569.5C 627.742,566.146 626.742,562.479 626.5,558.5 Z"/></g>
<g><path style="opacity:1" fill="#f49789" d="M 604.5,561.5 C 606.163,563.438 606.829,565.772 606.5,568.5C 605.388,566.401 604.721,564.067 604.5,561.5 Z"/></g>
<g><path style="opacity:1" fill="#f4a194" d="M 416.5,499.5 C 415.167,501.167 413.833,502.833 412.5,504.5C 393.167,523.167 374.167,542.167 355.5,561.5C 330.5,586.167 305.5,610.833 280.5,635.5C 324.582,589.917 369.249,544.75 414.5,500C 415.094,499.536 415.761,499.369 416.5,499.5 Z"/></g>
<g><path style="opacity:1" fill="#cad2e1" d="M 117.5,566.5 C 116.942,571.516 116.275,576.516 115.5,581.5C 115.5,582.167 115.167,582.5 114.5,582.5C 114.656,576.884 115.656,571.551 117.5,566.5 Z"/></g>
<g><path style="opacity:1" fill="#f8c6be" d="M 606.5,568.5 C 608.118,571.171 608.785,574.171 608.5,577.5C 607.343,574.727 606.676,571.727 606.5,568.5 Z"/></g>
<g><path style="opacity:1" fill="#ff2921" d="M 563.5,558.5 C 563.427,560.027 564.094,561.027 565.5,561.5C 568.316,566.138 570.316,571.138 571.5,576.5C 571.294,579.495 571.96,582.162 573.5,584.5C 577.157,605.872 572.324,625.205 559,642.5C 538.5,663 518,683.5 497.5,704C 492.847,701.531 488.847,698.031 485.5,693.5C 485.714,691.856 485.38,690.356 484.5,689C 485.46,687.581 486.293,686.081 487,684.5C 487.333,685.167 487.667,685.833 488,686.5C 490.451,679.596 493.451,672.93 497,666.5C 497.333,667.167 497.667,667.833 498,668.5C 500.451,661.596 503.451,654.93 507,648.5C 507.333,649.167 507.667,649.833 508,650.5C 510.451,643.596 513.451,636.93 517,630.5C 517.333,631.167 517.667,631.833 518,632.5C 520.451,625.596 523.451,618.93 527,612.5C 527.333,613.167 527.667,613.833 528,614.5C 530.785,606.929 534.119,599.595 538,592.5C 538.333,593.167 538.667,593.833 539,594.5C 541.451,587.596 544.451,580.93 548,574.5C 548.333,575.167 548.667,575.833 549,576.5C 551.847,567.739 555.513,560.739 560,555.5C 561.039,556.71 562.206,557.71 563.5,558.5 Z"/></g>
<g><path style="opacity:1" fill="#fa887a" d="M 571.5,576.5 C 573.04,578.838 573.706,581.505 573.5,584.5C 571.96,582.162 571.294,579.495 571.5,576.5 Z"/></g>
<g><path style="opacity:1" fill="#fe3029" d="M 386.5,559.5 C 367.248,579.419 347.581,599.086 327.5,618.5C 326.167,619.167 325.167,620.167 324.5,621.5C 323.5,621.833 322.833,622.5 322.5,623.5C 320.5,624.833 318.833,626.5 317.5,628.5C 315.5,629.833 313.833,631.5 312.5,633.5C 310.5,634.833 308.833,636.5 307.5,638.5C 305.5,639.833 303.833,641.5 302.5,643.5C 301.167,644.5 299.833,645.5 298.5,646.5C 297.778,646.082 297.278,645.416 297,644.5C 296.333,647.167 295.667,647.167 295,644.5C 294.333,647.167 293.667,647.167 293,644.5C 292.333,647.167 291.667,647.167 291,644.5C 290.333,647.167 289.667,647.167 289,644.5C 288.333,647.167 287.667,647.167 287,644.5C 286.333,647.167 285.667,647.167 285,644.5C 284.333,647.167 283.667,647.167 283,644.5C 282.333,647.167 281.667,647.167 281,644.5C 280.333,647.167 279.667,647.167 279,644.5C 278.333,647.167 277.667,647.167 277,644.5C 276.667,645.167 276.333,645.833 276,646.5C 275.768,645.263 275.268,644.263 274.5,643.5C 276.115,640.55 278.115,637.884 280.5,635.5C 305.5,610.833 330.5,586.167 355.5,561.5C 357.451,561.773 358.951,561.107 360,559.5C 360.333,560.5 360.667,561.5 361,562.5C 361.611,558.728 362.611,558.728 364,562.5C 365.389,558.728 366.389,558.728 367,562.5C 367.611,558.728 368.611,558.728 370,562.5C 371.389,558.728 372.389,558.728 373,562.5C 373.611,558.728 374.611,558.728 376,562.5C 377.389,558.728 378.389,558.728 379,562.5C 379.611,558.728 380.611,558.728 382,562.5C 382.805,559.781 384.305,558.781 386.5,559.5 Z"/></g>
<g><path style="opacity:1" fill="#f8d4ce" d="M 327.5,618.5 C 327.5,620.5 326.5,621.5 324.5,621.5C 325.167,620.167 326.167,619.167 327.5,618.5 Z"/></g>
<g><path style="opacity:1" fill="#d6ddea" d="M 115.5,617.5 C 115.833,617.5 116.167,617.5 116.5,617.5C 117.007,621.86 117.673,626.193 118.5,630.5C 116.425,626.526 115.425,622.192 115.5,617.5 Z"/></g>
<g><path style="opacity:1" fill="#f3cbc6" d="M 324.5,621.5 C 324.5,622.833 323.833,623.5 322.5,623.5C 322.833,622.5 323.5,621.833 324.5,621.5 Z"/></g>
<g><path style="opacity:1" fill="#3e6ebe" d="M 388.5,627.5 C 387.504,627.586 386.671,627.252 386,626.5C 385.976,634.409 385.143,642.075 383.5,649.5C 384.065,640.923 380.065,637.756 371.5,640C 368.964,642.705 366.297,645.205 363.5,647.5C 363.335,643.818 363.501,640.152 364,636.5C 364.989,634.03 366.155,631.697 367.5,629.5C 370.844,625.323 374.677,621.656 379,618.5C 382.655,620.988 385.822,623.988 388.5,627.5 Z"/></g>
<g><path style="opacity:1" fill="#f7d8d3" d="M 322.5,623.5 C 321.833,626.167 320.167,627.833 317.5,628.5C 318.833,626.5 320.5,624.833 322.5,623.5 Z"/></g>
<g><path style="opacity:1" fill="#f49c8d" d="M 607.5,621.5 C 607.706,624.495 607.04,627.162 605.5,629.5C 605.565,626.572 606.232,623.905 607.5,621.5 Z"/></g>
<g><path style="opacity:1" fill="#d9dfe9" d="M 269.5,625.5 C 269.573,627.027 268.906,628.027 267.5,628.5C 267.427,626.973 268.094,625.973 269.5,625.5 Z"/></g>
<g><path style="opacity:1" fill="#f9d5ce" d="M 629.5,624.5 C 629.435,627.428 628.768,630.095 627.5,632.5C 627.294,629.505 627.96,626.838 629.5,624.5 Z"/></g>
<g><path style="opacity:1" fill="#f7d8d4" d="M 317.5,628.5 C 316.833,631.167 315.167,632.833 312.5,633.5C 313.833,631.5 315.5,629.833 317.5,628.5 Z"/></g>
<g><path style="opacity:1" fill="#f3b9b0" d="M 627.5,632.5 C 627.072,635.785 626.072,638.785 624.5,641.5C 624.528,638.084 625.528,635.084 627.5,632.5 Z"/></g>
<g><path style="opacity:1" fill="#f7d5d1" d="M 312.5,633.5 C 311.833,636.167 310.167,637.833 307.5,638.5C 308.833,636.5 310.5,634.833 312.5,633.5 Z"/></g>
<g><path style="opacity:1" fill="#f1a297" d="M 603.5,634.5 C 603.88,636.698 603.213,638.365 601.5,639.5C 601.796,637.597 602.463,635.93 603.5,634.5 Z"/></g>
<g><path style="opacity:1" fill="#5483c8" d="M 367.5,629.5 C 366.155,631.697 364.989,634.03 364,636.5C 363.501,640.152 363.335,643.818 363.5,647.5C 356.167,655.167 348.833,662.833 341.5,670.5C 340.167,671.5 338.833,672.5 337.5,673.5C 337.11,670.203 336.11,667.203 334.5,664.5C 341.891,657.113 348.891,649.446 355.5,641.5C 359.167,637.167 363.167,633.167 367.5,629.5 Z"/></g>
<g><path style="opacity:1" fill="#f8dad6" d="M 307.5,638.5 C 306.833,641.167 305.167,642.833 302.5,643.5C 303.833,641.5 305.5,639.833 307.5,638.5 Z"/></g>
<g><path style="opacity:1" fill="#2960b8" d="M 394.5,633.5 C 400.833,639.167 406.833,645.167 412.5,651.5C 411.5,651.5 410.5,651.5 409.5,651.5C 409.83,696.739 409.497,741.905 408.5,787C 409.448,787.483 410.448,787.649 411.5,787.5C 405.785,791.521 399.451,794.188 392.5,795.5C 391.167,795.5 389.833,795.5 388.5,795.5C 389.163,741.567 389.829,687.567 390.5,633.5C 391.726,632.637 393.06,632.637 394.5,633.5 Z"/></g>
<g><path style="opacity:1" fill="#fa9f8f" d="M 601.5,639.5 C 601.975,642.313 600.975,644.313 598.5,645.5C 599.508,643.456 600.508,641.456 601.5,639.5 Z"/></g>
<g><path style="opacity:1" fill="#f2b6ad" d="M 280.5,635.5 C 278.115,637.884 276.115,640.55 274.5,643.5C 273.167,644.5 271.833,645.5 270.5,646.5C 272.087,643.732 273.92,641.065 276,638.5C 277.129,636.859 278.629,635.859 280.5,635.5 Z"/></g>
<g><path style="opacity:1" fill="#fd3f36" d="M 631.5,582.5 C 633.199,596.511 632.533,610.511 629.5,624.5C 627.96,626.838 627.294,629.505 627.5,632.5C 625.528,635.084 624.528,638.084 624.5,641.5C 624.204,643.403 623.537,645.07 622.5,646.5C 621.326,647.514 620.66,648.847 620.5,650.5C 618.326,653.515 616.659,656.849 615.5,660.5C 614.326,661.514 613.66,662.847 613.5,664.5C 613.167,664.5 612.833,664.5 612.5,664.5C 610.983,664.489 609.816,663.823 609,662.5C 602.667,662.833 596.333,663.167 590,663.5C 589.805,662.181 589.972,660.847 590.5,659.5C 591.906,659.027 592.573,658.027 592.5,656.5C 593.906,656.027 594.573,655.027 594.5,653.5C 596.931,651.954 598.264,649.621 598.5,646.5C 598.5,646.167 598.5,645.833 598.5,645.5C 600.975,644.313 601.975,642.313 601.5,639.5C 603.213,638.365 603.88,636.698 603.5,634.5C 603.402,632.447 604.069,630.78 605.5,629.5C 607.04,627.162 607.706,624.495 607.5,621.5C 608.606,613.373 609.606,605.373 610.5,597.5C 610.334,602.179 610.501,606.845 611,611.5C 611.333,611.167 611.667,610.833 612,610.5C 612.333,611.5 612.667,612.5 613,613.5C 613.667,609.5 614.333,609.5 615,613.5C 615.667,609.5 616.333,609.5 617,613.5C 617.667,609.5 618.333,609.5 619,613.5C 619.667,609.5 620.333,609.5 621,613.5C 621.667,609.5 622.333,609.5 623,613.5C 623.667,609.5 624.333,609.5 625,613.5C 625.667,609.5 626.333,609.5 627,613.5C 627.359,610.456 628.026,610.122 629,612.5C 630.127,609.623 630.794,606.623 631,603.5C 631.5,596.508 631.666,589.508 631.5,582.5 Z"/></g>
<g><path style="opacity:1" fill="#f6d6d2" d="M 302.5,643.5 C 301.833,646.167 300.167,647.833 297.5,648.5C 297.833,647.833 298.167,647.167 298.5,646.5C 299.833,645.5 301.167,644.5 302.5,643.5 Z"/></g>
<g><path style="opacity:1" fill="#f0a89d" d="M 270.5,646.5 C 270.573,648.027 269.906,649.027 268.5,649.5C 268.427,647.973 269.094,646.973 270.5,646.5 Z"/></g>
<g><path style="opacity:1" fill="#2e66bb" d="M 388.5,627.5 C 390.833,629.167 392.833,631.167 394.5,633.5C 393.06,632.637 391.726,632.637 390.5,633.5C 389.829,687.567 389.163,741.567 388.5,795.5C 386.698,796.458 384.698,797.125 382.5,797.5C 381.391,796.71 380.058,796.21 378.5,796C 379.832,749.402 379.832,702.902 378.5,656.5C 380.412,654.343 382.079,652.009 383.5,649.5C 385.143,642.075 385.976,634.409 386,626.5C 386.671,627.252 387.504,627.586 388.5,627.5 Z"/></g>
<g><path style="opacity:1" fill="#f5c9c1" d="M 622.5,646.5 C 622.771,648.38 622.104,649.713 620.5,650.5C 620.66,648.847 621.326,647.514 622.5,646.5 Z"/></g>
<g><path style="opacity:1" fill="#f79081" d="M 598.5,646.5 C 598.264,649.621 596.931,651.954 594.5,653.5C 595.079,650.669 596.412,648.336 598.5,646.5 Z"/></g>
<g><path style="opacity:1" fill="#d8dee8" d="M 125.5,650.5 C 127.008,652.181 128.008,654.181 128.5,656.5C 126.461,655.089 125.461,653.089 125.5,650.5 Z"/></g>
<g><path style="opacity:1" fill="#dbe0eb" d="M 250.5,650.5 C 250.573,652.027 249.906,653.027 248.5,653.5C 248.427,651.973 249.094,650.973 250.5,650.5 Z"/></g>
<g><path style="opacity:1" fill="#2b5eb8" d="M 412.5,651.5 C 434.833,673.167 456.833,695.167 478.5,717.5C 479.562,719.234 479.562,720.901 478.5,722.5C 477.167,723.167 476.167,724.167 475.5,725.5C 458.905,743.097 441.905,760.43 424.5,777.5C 420.718,781.623 416.385,784.957 411.5,787.5C 410.448,787.649 409.448,787.483 408.5,787C 409.497,741.905 409.83,696.739 409.5,651.5C 410.5,651.5 411.5,651.5 412.5,651.5 Z"/></g>
<g><path style="opacity:1" fill="#8eaddc" d="M 383.5,649.5 C 382.079,652.009 380.412,654.343 378.5,656.5C 373.5,661.167 368.5,665.833 363.5,670.5C 359.862,674.474 356.195,678.474 352.5,682.5C 349.5,684.833 346.833,687.5 344.5,690.5C 343.167,691.5 341.833,692.5 340.5,693.5C 338.443,687.447 337.943,681.114 339,674.5C 340.167,673.333 341.333,672.167 342.5,671C 342.272,670.601 341.938,670.435 341.5,670.5C 348.833,662.833 356.167,655.167 363.5,647.5C 366.297,645.205 368.964,642.705 371.5,640C 380.065,637.756 384.065,640.923 383.5,649.5 Z"/></g>
<g><path style="opacity:1" fill="#efafa8" d="M 265.5,653.5 C 265.573,655.027 264.906,656.027 263.5,656.5C 263.427,654.973 264.094,653.973 265.5,653.5 Z"/></g>
<g><path style="opacity:1" fill="#f2bab1" d="M 594.5,653.5 C 594.573,655.027 593.906,656.027 592.5,656.5C 592.427,654.973 593.094,653.973 594.5,653.5 Z"/></g>
<g><path style="opacity:1" fill="#f3c5be" d="M 620.5,650.5 C 619.873,654.42 618.207,657.753 615.5,660.5C 616.659,656.849 618.326,653.515 620.5,650.5 Z"/></g>
<g><path style="opacity:1" fill="#f9d9d5" d="M 289.5,657.5 C 289.573,659.027 288.906,660.027 287.5,660.5C 287.427,658.973 288.094,657.973 289.5,657.5 Z"/></g>
<g><path style="opacity:1" fill="#f1b9b1" d="M 592.5,656.5 C 592.573,658.027 591.906,659.027 590.5,659.5C 590.427,657.973 591.094,656.973 592.5,656.5 Z"/></g>
<g><path style="opacity:1" fill="#386ebf" d="M 378.5,656.5 C 379.832,702.902 379.832,749.402 378.5,796C 380.058,796.21 381.391,796.71 382.5,797.5C 380.585,797.216 378.919,797.549 377.5,798.5C 375.833,798.5 374.167,798.5 372.5,798.5C 369.781,797.087 366.781,796.42 363.5,796.5C 363.5,754.5 363.5,712.5 363.5,670.5C 368.5,665.833 373.5,661.167 378.5,656.5 Z"/></g>
<g><path style="opacity:1" fill="#f68e80" d="M 263.5,656.5 C 263.408,658.848 262.408,660.514 260.5,661.5C 260.75,659.326 261.75,657.659 263.5,656.5 Z"/></g>
<g><path style="opacity:1" fill="#d3dae9" d="M 245.5,659.5 C 245.34,661.153 244.674,662.486 243.5,663.5C 243.229,661.62 243.896,660.287 245.5,659.5 Z"/></g>
<g><path style="opacity:1" fill="#f9ddd9" d="M 286.5,661.5 C 286.573,663.027 285.906,664.027 284.5,664.5C 284.427,662.973 285.094,661.973 286.5,661.5 Z"/></g>
<g><path style="opacity:1" fill="#f9e0dc" d="M 615.5,660.5 C 615.771,662.38 615.104,663.713 613.5,664.5C 613.66,662.847 614.326,661.514 615.5,660.5 Z"/></g>
<g><path style="opacity:1" fill="#f59687" d="M 260.5,661.5 C 260.264,664.621 258.931,666.954 256.5,668.5C 257.079,665.669 258.412,663.336 260.5,661.5 Z"/></g>
<g><path style="opacity:1" fill="#adbcd6" d="M 355.5,641.5 C 348.891,649.446 341.891,657.113 334.5,664.5C 328.833,669.833 323.167,675.167 317.5,680.5C 329.447,666.885 342.114,653.885 355.5,641.5 Z"/></g>
<g><path style="opacity:1" fill="#f49c8e" d="M 588.5,662.5 C 587.25,664.932 585.75,667.266 584,669.5C 583.329,670.252 582.496,670.586 581.5,670.5C 583.117,667.216 585.45,664.549 588.5,662.5 Z"/></g>
<g><path style="opacity:1" fill="#f6d0ca" d="M 283.5,665.5 C 283.25,667.674 282.25,669.341 280.5,670.5C 280.75,668.326 281.75,666.659 283.5,665.5 Z"/></g>
<g><path style="opacity:1" fill="#f8dbd7" d="M 612.5,664.5 C 612.833,664.5 613.167,664.5 613.5,664.5C 613.573,666.027 612.906,667.027 611.5,667.5C 611.557,666.391 611.89,665.391 612.5,664.5 Z"/></g>
<g><path style="opacity:1" fill="#f5cdc6" d="M 280.5,670.5 C 280.25,672.674 279.25,674.341 277.5,675.5C 277.75,673.326 278.75,671.659 280.5,670.5 Z"/></g>
<g><path style="opacity:1" fill="#90a2d0" d="M 242.5,665.5 C 240.403,671.349 238.069,677.015 235.5,682.5C 236.172,676.82 237.838,671.487 240.5,666.5C 241.183,666.137 241.85,665.804 242.5,665.5 Z"/></g>
<g><path style="opacity:1" fill="#f7d9d4" d="M 255.5,670.5 C 255.771,672.38 255.104,673.713 253.5,674.5C 253.66,672.847 254.326,671.514 255.5,670.5 Z"/></g>
<g><path style="opacity:1" fill="#487bc5" d="M 363.5,670.5 C 363.5,712.5 363.5,754.5 363.5,796.5C 366.781,796.42 369.781,797.087 372.5,798.5C 368.298,798.817 364.298,798.483 360.5,797.5C 357.976,796.26 355.309,795.093 352.5,794C 353.832,756.736 353.832,719.569 352.5,682.5C 356.195,678.474 359.862,674.474 363.5,670.5 Z"/></g>
<g><path style="opacity:1" fill="#f9d7d3" d="M 277.5,675.5 C 277.771,677.38 277.104,678.713 275.5,679.5C 275.66,677.847 276.326,676.514 277.5,675.5 Z"/></g>
<g><path style="opacity:1" fill="#f6dedb" d="M 252.5,677.5 C 252.598,679.553 251.931,681.22 250.5,682.5C 250.402,680.447 251.069,678.78 252.5,677.5 Z"/></g>
<g><path style="opacity:1" fill="#7ca0d4" d="M 334.5,664.5 C 336.11,667.203 337.11,670.203 337.5,673.5C 314.871,695.245 309.038,720.912 320,750.5C 324.277,759.402 329.777,767.402 336.5,774.5C 336.334,778.846 336.501,783.179 337,787.5C 337.717,788.044 338.217,788.711 338.5,789.5C 323.958,781.96 313.625,770.627 307.5,755.5C 307.801,736.573 307.468,717.573 306.5,698.5C 308.651,691.523 312.318,685.523 317.5,680.5C 323.167,675.167 328.833,669.833 334.5,664.5 Z"/></g>
<g><path style="opacity:1" fill="#f6c8c1" d="M 275.5,679.5 C 275.293,682.241 274.293,684.574 272.5,686.5C 272.707,683.759 273.707,681.426 275.5,679.5 Z"/></g>
<g><path style="opacity:1" fill="#f4c5be" d="M 601.5,680.5 C 600.243,683.427 598.243,685.761 595.5,687.5C 596.757,684.573 598.757,682.239 601.5,680.5 Z"/></g>
<g><path style="opacity:1" fill="#a2bae1" d="M 341.5,670.5 C 341.938,670.435 342.272,670.601 342.5,671C 341.333,672.167 340.167,673.333 339,674.5C 337.943,681.114 338.443,687.447 340.5,693.5C 325.136,714.832 322.303,737.832 332,762.5C 334.102,766.929 336.602,771.095 339.5,775C 338.423,775.47 337.423,775.303 336.5,774.5C 329.777,767.402 324.277,759.402 320,750.5C 309.038,720.912 314.871,695.245 337.5,673.5C 338.833,672.5 340.167,671.5 341.5,670.5 Z"/></g>
<g><path style="opacity:1" fill="#5384c9" d="M 352.5,682.5 C 353.832,719.569 353.832,756.736 352.5,794C 355.309,795.093 357.976,796.26 360.5,797.5C 356.573,797.074 352.907,796.074 349.5,794.5C 348.685,793.163 347.518,792.163 346,791.5C 345.832,757.664 345.332,723.998 344.5,690.5C 346.833,687.5 349.5,684.833 352.5,682.5 Z"/></g>
<g><path style="opacity:1" fill="#fc3e39" d="M 274.5,643.5 C 275.268,644.263 275.768,645.263 276,646.5C 276.333,645.833 276.667,645.167 277,644.5C 277.667,647.167 278.333,647.167 279,644.5C 279.667,647.167 280.333,647.167 281,644.5C 281.667,647.167 282.333,647.167 283,644.5C 283.667,647.167 284.333,647.167 285,644.5C 285.667,647.167 286.333,647.167 287,644.5C 287.667,647.167 288.333,647.167 289,644.5C 289.667,647.167 290.333,647.167 291,644.5C 291.667,647.167 292.333,647.167 293,644.5C 293.667,647.167 294.333,647.167 295,644.5C 295.667,647.167 296.333,647.167 297,644.5C 297.278,645.416 297.778,646.082 298.5,646.5C 298.167,647.167 297.833,647.833 297.5,648.5C 295.546,652.032 292.879,655.032 289.5,657.5C 288.094,657.973 287.427,658.973 287.5,660.5C 287.5,661.167 287.167,661.5 286.5,661.5C 285.094,661.973 284.427,662.973 284.5,664.5C 284.5,665.167 284.167,665.5 283.5,665.5C 281.75,666.659 280.75,668.326 280.5,670.5C 278.75,671.659 277.75,673.326 277.5,675.5C 276.326,676.514 275.66,677.847 275.5,679.5C 273.707,681.426 272.707,683.759 272.5,686.5C 270.528,689.084 269.528,692.084 269.5,695.5C 269.5,695.833 269.5,696.167 269.5,696.5C 267.926,698.102 267.259,700.102 267.5,702.5C 267.702,704.95 267.369,707.283 266.5,709.5C 264.734,715.909 264.068,722.576 264.5,729.5C 257.866,728.795 251.199,728.128 244.5,727.5C 244.5,720.833 244.5,714.167 244.5,707.5C 246.42,699.603 248.42,691.603 250.5,683.5C 250.5,683.167 250.5,682.833 250.5,682.5C 251.931,681.22 252.598,679.553 252.5,677.5C 252.557,676.391 252.89,675.391 253.5,674.5C 255.104,673.713 255.771,672.38 255.5,670.5C 255.328,669.508 255.662,668.842 256.5,668.5C 258.931,666.954 260.264,664.621 260.5,661.5C 262.408,660.514 263.408,658.848 263.5,656.5C 264.906,656.027 265.573,655.027 265.5,653.5C 265.738,651.596 266.738,650.262 268.5,649.5C 269.906,649.027 270.573,648.027 270.5,646.5C 271.833,645.5 273.167,644.5 274.5,643.5 Z"/></g>
<g><path style="opacity:1" fill="#f3c1b9" d="M 272.5,686.5 C 272.072,689.785 271.072,692.785 269.5,695.5C 269.528,692.084 270.528,689.084 272.5,686.5 Z"/></g>
<g><path style="opacity:1" fill="#fc443d" d="M 590.5,659.5 C 589.972,660.847 589.805,662.181 590,663.5C 596.333,663.167 602.667,662.833 609,662.5C 609.816,663.823 610.983,664.489 612.5,664.5C 611.89,665.391 611.557,666.391 611.5,667.5C 608.901,672.428 605.568,676.761 601.5,680.5C 598.757,682.239 596.757,684.573 595.5,687.5C 586.833,696.833 577.833,705.833 568.5,714.5C 559.895,712.529 550.895,711.862 541.5,712.5C 553.798,699.702 566.298,687.035 579,674.5C 579.464,673.906 579.631,673.239 579.5,672.5C 579.833,671.5 580.5,670.833 581.5,670.5C 582.496,670.586 583.329,670.252 584,669.5C 585.75,667.266 587.25,664.932 588.5,662.5C 588.427,660.973 589.094,659.973 590.5,659.5 Z"/></g>
<g><path style="opacity:1" fill="#f2b4ab" d="M 250.5,683.5 C 248.42,691.603 246.42,699.603 244.5,707.5C 244.803,698.951 246.803,690.951 250.5,683.5 Z"/></g>
<g><path style="opacity:1" fill="#618fce" d="M 344.5,690.5 C 345.332,723.998 345.832,757.664 346,791.5C 347.518,792.163 348.685,793.163 349.5,794.5C 345.407,793.618 341.74,791.951 338.5,789.5C 338.217,788.711 337.717,788.044 337,787.5C 336.501,783.179 336.334,778.846 336.5,774.5C 337.423,775.303 338.423,775.47 339.5,775C 336.602,771.095 334.102,766.929 332,762.5C 322.303,737.832 325.136,714.832 340.5,693.5C 341.833,692.5 343.167,691.5 344.5,690.5 Z"/></g>
<g><path style="opacity:1" fill="#b0bdd7" d="M 232.5,694.5 C 232.451,698.078 231.785,701.411 230.5,704.5C 230.159,700.84 230.825,697.507 232.5,694.5 Z"/></g>
<g><path style="opacity:1" fill="#f2c1ba" d="M 269.5,696.5 C 269.405,698.786 268.738,700.786 267.5,702.5C 267.259,700.102 267.926,698.102 269.5,696.5 Z"/></g>
<g><path style="opacity:1" fill="#98b1da" d="M 306.5,698.5 C 307.468,717.573 307.801,736.573 307.5,755.5C 305.408,752.527 303.908,749.193 303,745.5C 298.892,729.274 300.058,713.607 306.5,698.5 Z"/></g>
<g><path style="opacity:1" fill="#b0bcd7" d="M 478.5,717.5 C 482.352,719.455 482.352,721.122 478.5,722.5C 479.562,720.901 479.562,719.234 478.5,717.5 Z"/></g>
<g><path style="opacity:1" fill="#f39e93" d="M 244.5,707.5 C 244.5,714.167 244.5,720.833 244.5,727.5C 244.5,733.167 244.5,738.833 244.5,744.5C 241.87,732.169 241.87,719.836 244.5,707.5 Z"/></g>
<g><path style="opacity:1" fill="#d5dce8" d="M 478.5,722.5 C 478.5,724.5 477.5,725.5 475.5,725.5C 476.167,724.167 477.167,723.167 478.5,722.5 Z"/></g>
<g><path style="opacity:1" fill="#ebaca3" d="M 266.5,709.5 C 265.198,720.831 265.198,732.164 266.5,743.5C 265.028,739.081 264.362,734.414 264.5,729.5C 264.068,722.576 264.734,715.909 266.5,709.5 Z"/></g>
<g><path style="opacity:1" fill="#fc4643" d="M 244.5,727.5 C 251.199,728.128 257.866,728.795 264.5,729.5C 264.362,734.414 265.028,739.081 266.5,743.5C 267.461,745.265 267.795,747.265 267.5,749.5C 267.41,752.152 268.076,754.485 269.5,756.5C 269.448,758.903 269.781,761.236 270.5,763.5C 264.669,765.178 258.503,766.178 252,766.5C 251.148,765.429 250.315,764.429 249.5,763.5C 248.833,762.5 248.167,761.5 247.5,760.5C 247.5,760.167 247.5,759.833 247.5,759.5C 247.138,754.248 246.138,749.248 244.5,744.5C 244.5,738.833 244.5,733.167 244.5,727.5 Z"/></g>
<g><path style="opacity:1" fill="#fc4b46" d="M 541.5,712.5 C 550.895,711.862 559.895,712.529 568.5,714.5C 551.167,732.5 533.5,750.167 515.5,767.5C 506.895,765.529 497.895,764.862 488.5,765.5C 505.833,747.5 523.5,729.833 541.5,712.5 Z"/></g>
<g><path style="opacity:1" fill="#a5b4cf" d="M 230.5,705.5 C 229.224,718.503 229.224,731.503 230.5,744.5C 228.993,738.573 228.326,732.406 228.5,726C 228.381,718.942 229.047,712.109 230.5,705.5 Z"/></g>
<g><path style="opacity:1" fill="#f4cfcb" d="M 267.5,749.5 C 268.924,751.515 269.59,753.848 269.5,756.5C 268.076,754.485 267.41,752.152 267.5,749.5 Z"/></g>
<g><path style="opacity:1" fill="#bcc5d9" d="M 230.5,747.5 C 231.785,750.589 232.451,753.922 232.5,757.5C 230.989,754.456 230.322,751.122 230.5,747.5 Z"/></g>
<g><path style="opacity:1" fill="#f6ccc6" d="M 244.5,744.5 C 246.138,749.248 247.138,754.248 247.5,759.5C 245.678,754.795 244.678,749.795 244.5,744.5 Z"/></g>
<g><path style="opacity:1" fill="#f8edeb" d="M 247.5,760.5 C 248.167,761.5 248.833,762.5 249.5,763.5C 249.5,764.5 249.5,765.5 249.5,766.5C 247.926,764.898 247.259,762.898 247.5,760.5 Z"/></g>
<g><path style="opacity:1" fill="#f5c2bb" d="M 269.5,756.5 C 270.735,759.33 271.735,762.33 272.5,765.5C 271.833,764.833 271.167,764.167 270.5,763.5C 269.781,761.236 269.448,758.903 269.5,756.5 Z"/></g>
<g><path style="opacity:1" fill="#fa4f4b" d="M 249.5,763.5 C 250.315,764.429 251.148,765.429 252,766.5C 258.503,766.178 264.669,765.178 270.5,763.5C 271.167,764.167 271.833,764.833 272.5,765.5C 272.402,767.553 273.069,769.22 274.5,770.5C 276.674,773.515 278.341,776.849 279.5,780.5C 279.738,782.404 280.738,783.738 282.5,784.5C 283.6,785.605 284.267,786.938 284.5,788.5C 285.08,790.749 286.413,792.415 288.5,793.5C 289.419,796.089 291.086,798.089 293.5,799.5C 295.833,801.167 297.833,803.167 299.5,805.5C 300.754,808.093 302.42,810.427 304.5,812.5C 304.587,815.598 304.087,815.932 303,813.5C 302.333,816.167 301.667,816.167 301,813.5C 300.333,816.167 299.667,816.167 299,813.5C 298.333,816.167 297.667,816.167 297,813.5C 296.333,816.167 295.667,816.167 295,813.5C 294.333,816.167 293.667,816.167 293,813.5C 292.333,816.167 291.667,816.167 291,813.5C 290.333,816.167 289.667,816.167 289,813.5C 288.333,816.167 287.667,816.167 287,813.5C 286.333,816.167 285.667,816.167 285,813.5C 284.333,816.167 283.667,816.167 283,813.5C 282.667,814.167 282.333,814.833 282,815.5C 281.29,814.027 280.124,813.36 278.5,813.5C 277.167,812.5 275.833,811.5 274.5,810.5C 271.8,808.766 269.8,806.432 268.5,803.5C 268.573,801.973 267.906,800.973 266.5,800.5C 266.367,797.634 265.034,795.634 262.5,794.5C 262.573,792.973 261.906,791.973 260.5,791.5C 259.4,790.395 258.733,789.062 258.5,787.5C 258.346,785.03 257.346,783.03 255.5,781.5C 254.662,781.158 254.328,780.492 254.5,779.5C 254.598,777.447 253.931,775.78 252.5,774.5C 252.598,772.447 251.931,770.78 250.5,769.5C 249.89,768.609 249.557,767.609 249.5,766.5C 249.5,765.5 249.5,764.5 249.5,763.5 Z"/></g>
<g><path style="opacity:1" fill="#fb514c" d="M 488.5,765.5 C 497.895,764.862 506.895,765.529 515.5,767.5C 499.833,783.833 483.833,799.833 467.5,815.5C 466.02,813.397 464.853,813.397 464,815.5C 463.333,812.833 462.667,812.833 462,815.5C 461.333,812.833 460.667,812.833 460,815.5C 459.333,812.833 458.667,812.833 458,815.5C 457.333,812.833 456.667,812.833 456,815.5C 455.333,812.833 454.667,812.833 454,815.5C 453.333,812.833 452.667,812.833 452,815.5C 451.333,812.833 450.667,812.833 450,815.5C 449.333,812.833 448.667,812.833 448,815.5C 447.333,812.833 446.667,812.833 446,815.5C 445.333,812.833 444.667,812.833 444,815.5C 443.333,812.833 442.667,812.833 442,815.5C 441.722,814.584 441.222,813.918 440.5,813.5C 456.167,797.167 472.167,781.167 488.5,765.5 Z"/></g>
<g><path style="opacity:1" fill="#fdfdfe" d="M 633.5,767.5 C 655.503,767.333 677.503,767.5 699.5,768C 703.558,770.113 705.891,773.446 706.5,778C 705.599,783.84 704.432,789.674 703,795.5C 701.833,797.333 700.333,798.833 698.5,800C 684.559,801.429 670.559,801.929 656.5,801.5C 655.647,806.47 654.98,811.47 654.5,816.5C 665.172,816.333 675.839,816.5 686.5,817C 690.694,819.212 693.028,822.712 693.5,827.5C 692.549,833.203 691.383,838.869 690,844.5C 688.833,846.333 687.333,847.833 685.5,849C 673.562,850.415 661.562,850.915 649.5,850.5C 648.142,862.176 646.642,873.843 645,885.5C 645.134,891.808 642.634,896.641 637.5,900C 631.167,900.667 624.833,900.667 618.5,900C 614.306,897.788 611.972,894.288 611.5,889.5C 616.897,852.218 622.064,814.885 627,777.5C 627.435,772.945 629.602,769.611 633.5,767.5 Z"/></g>
<g><path style="opacity:1" fill="#fdfdfe" d="M 753.5,767.5 C 760.175,767.334 766.842,767.5 773.5,768C 775.624,769.122 777.457,770.622 779,772.5C 786.435,811.612 793.602,850.779 800.5,890C 799.881,894.583 797.548,897.917 793.5,900C 786.833,900.667 780.167,900.667 773.5,900C 770,899.167 767.833,897 767,893.5C 765.282,884.523 763.782,875.523 762.5,866.5C 755.825,866.334 749.158,866.5 742.5,867C 738.338,876.816 734.171,886.65 730,896.5C 728.786,898.049 727.286,899.215 725.5,900C 718.833,900.667 712.167,900.667 705.5,900C 701.442,897.887 699.109,894.554 698.5,890C 714.905,850.352 731.739,810.852 749,771.5C 750.397,769.93 751.897,768.596 753.5,767.5 Z"/></g>
<g><path style="opacity:1" fill="#fdfdfd" d="M 840.5,767.5 C 858.17,767.333 875.836,767.5 893.5,768C 908.417,770.585 916.917,779.418 919,794.5C 921.75,815.306 914.917,831.972 898.5,844.5C 904.863,859.424 910.529,874.59 915.5,890C 913.143,899.355 907.143,902.855 897.5,900.5C 893.053,900.604 888.72,900.104 884.5,899C 883.333,897.833 882.167,896.667 881,895.5C 876.383,880.814 870.883,866.481 864.5,852.5C 861.628,851.217 858.795,851.217 856,852.5C 854.333,864.833 852.667,877.167 851,889.5C 850.559,894.573 848.059,898.073 843.5,900C 837.5,900.667 831.5,900.667 825.5,900C 820.727,897.893 818.394,894.226 818.5,889C 823.534,850.093 829.034,811.26 835,772.5C 836.73,770.598 838.563,768.931 840.5,767.5 Z M 862.5,801.5 C 870.174,801.334 877.841,801.5 885.5,802C 887.597,808.043 885.931,812.71 880.5,816C 873.839,817.39 867.173,817.556 860.5,816.5C 861.726,811.585 862.393,806.585 862.5,801.5 Z"/></g>
<g><path style="opacity:1" fill="#fffbfa" d="M 958.5,767.5 C 966.507,767.334 974.507,767.5 982.5,768C 986.165,769.668 988.332,772.501 989,776.5C 991.334,794.502 993.667,812.502 996,830.5C 1003.47,811.087 1011.14,791.754 1019,772.5C 1020.54,770.622 1022.38,769.122 1024.5,768C 1032.17,767.333 1039.83,767.333 1047.5,768C 1051.69,770.212 1054.03,773.712 1054.5,778.5C 1049.1,815.782 1043.94,853.115 1039,890.5C 1037.14,899.107 1031.81,902.44 1023,900.5C 1009.88,901.385 1004.55,895.385 1007,882.5C 1005.11,888.532 1002.27,894.032 998.5,899C 991.943,900.586 985.276,900.92 978.5,900C 976.376,898.878 974.543,897.378 973,895.5C 971.568,889.574 970.568,883.574 970,877.5C 969,883.167 968,888.833 967,894.5C 966.215,896.286 965.049,897.786 963.5,899C 956.608,900.591 949.608,900.924 942.5,900C 938.442,897.887 936.109,894.554 935.5,890C 940.94,852.919 946.107,815.753 951,778.5C 951.561,773.34 954.061,769.673 958.5,767.5 Z"/></g>
<g><path style="opacity:1" fill="#fffcfb" d="M 1111.5,767.5 C 1118.17,767.334 1124.84,767.5 1131.5,768C 1133.62,769.122 1135.46,770.622 1137,772.5C 1144.44,811.612 1151.6,850.779 1158.5,890C 1157.88,894.583 1155.55,897.917 1151.5,900C 1144.83,900.667 1138.17,900.667 1131.5,900C 1128,899.167 1125.83,897 1125,893.5C 1123.28,884.523 1121.78,875.523 1120.5,866.5C 1113.83,866.334 1107.16,866.5 1100.5,867C 1096.34,876.816 1092.17,886.65 1088,896.5C 1086.79,898.049 1085.29,899.215 1083.5,900C 1076.83,900.667 1070.17,900.667 1063.5,900C 1059.44,897.887 1057.11,894.554 1056.5,890C 1072.91,850.352 1089.74,810.852 1107,771.5C 1108.4,769.93 1109.9,768.596 1111.5,767.5 Z"/></g>
<g><path style="opacity:1" fill="#f3d3cf" d="M 272.5,765.5 C 273.931,766.78 274.598,768.447 274.5,770.5C 273.069,769.22 272.402,767.553 272.5,765.5 Z"/></g>
<g><path style="opacity:1" fill="#8d9ecb" d="M 233.5,762.5 C 234.821,765.729 236.155,769.062 237.5,772.5C 234.901,772.648 232.901,771.315 231.5,768.5C 232.767,769.087 233.767,769.087 234.5,768.5C 233.652,766.591 233.318,764.591 233.5,762.5 Z"/></g>
<g><path style="opacity:1" fill="#f2cac4" d="M 250.5,769.5 C 251.931,770.78 252.598,772.447 252.5,774.5C 251.069,773.22 250.402,771.553 250.5,769.5 Z"/></g>
<g><path style="opacity:1" fill="#f3d0cc" d="M 252.5,774.5 C 253.931,775.78 254.598,777.447 254.5,779.5C 253.069,778.22 252.402,776.553 252.5,774.5 Z"/></g>
<g><path style="opacity:1" fill="#5284c9" d="M 637.5,777.5 C 656.833,777.5 676.167,777.5 695.5,777.5C 695.116,781.747 694.449,785.914 693.5,790C 677.837,790.5 662.17,790.667 646.5,790.5C 645.261,802.504 643.928,814.504 642.5,826.5C 655.833,826.5 669.167,826.5 682.5,826.5C 681.705,830.785 681.372,835.119 681.5,839.5C 667.833,839.5 654.167,839.5 640.5,839.5C 638.074,856.484 635.74,873.484 633.5,890.5C 629.833,890.5 626.167,890.5 622.5,890.5C 627.407,852.82 632.407,815.154 637.5,777.5 Z"/></g>
<g><path style="opacity:1" fill="#5384c9" d="M 773.5,800.5 C 770.314,804.873 767.647,809.54 765.5,814.5C 764.011,806.595 762.844,798.595 762,790.5C 755.449,807.937 748.615,825.271 741.5,842.5C 746.167,842.5 750.833,842.5 755.5,842.5C 754.788,844.928 753.788,847.261 752.5,849.5C 752.709,850.086 753.043,850.586 753.5,851C 752.117,852.271 751.117,853.771 750.5,855.5C 745.456,855.173 740.456,855.506 735.5,856.5C 730.833,867.5 726.167,878.5 721.5,889.5C 717.5,890.833 713.5,890.833 709.5,889.5C 725.333,852.5 741.167,815.5 757,778.5C 761.401,777.533 765.901,777.2 770.5,777.5C 771.391,785.181 772.391,792.848 773.5,800.5 Z"/></g>
<g><path style="opacity:1" fill="#8b7aa6" d="M 870.5,777.5 C 870.142,779.967 868.809,782.134 866.5,784C 867.654,784.914 867.487,785.747 866,786.5C 865.667,786.167 865.333,785.833 865,785.5C 864.648,787.247 864.148,788.914 863.5,790.5C 860.167,790.5 856.833,790.5 853.5,790.5C 852.873,797.888 851.873,805.221 850.5,812.5C 848.862,815.527 847.695,818.527 847,821.5C 846.395,819.519 845.395,819.185 844,820.5C 843.28,822.112 843.446,823.612 844.5,825C 843.107,826.171 842.273,827.671 842,829.5C 841.667,828.5 841.333,827.5 841,826.5C 842.401,830.635 840.901,833.301 836.5,834.5C 838.98,815.473 841.647,796.473 844.5,777.5C 853.167,777.5 861.833,777.5 870.5,777.5 Z"/></g>
<g><path style="opacity:1" fill="#9f7596" d="M 870.5,777.5 C 878.222,777.233 885.889,777.566 893.5,778.5C 893.587,781.598 893.087,781.932 892,779.5C 891.626,780.416 891.126,781.25 890.5,782C 890.888,783.808 890.888,785.475 890.5,787C 889.468,788.627 888.134,789.793 886.5,790.5C 878.833,790.5 871.167,790.5 863.5,790.5C 864.148,788.914 864.648,787.247 865,785.5C 865.333,785.833 865.667,786.167 866,786.5C 867.487,785.747 867.654,784.914 866.5,784C 868.809,782.134 870.142,779.967 870.5,777.5 Z"/></g>
<g><path style="opacity:1" fill="#e05254" d="M 980.5,790.5 C 979.842,789.602 979.176,788.602 978.5,787.5C 977.494,787.938 977.494,788.604 978.5,789.5C 975.896,793.054 973.562,796.721 971.5,800.5C 970.778,800.082 970.278,799.416 970,798.5C 969.205,802.312 968.371,805.979 967.5,809.5C 967.657,808.127 967.49,806.793 967,805.5C 966.792,809.907 965.458,813.907 963,817.5C 961.989,818.337 960.822,818.67 959.5,818.5C 959.33,819.822 959.663,820.989 960.5,822C 959.552,822.483 958.552,822.649 957.5,822.5C 956.667,824.752 956.667,826.919 957.5,829C 956.95,831.158 955.95,831.658 954.5,830.5C 956.915,812.846 959.248,795.18 961.5,777.5C 967.5,777.5 973.5,777.5 979.5,777.5C 979.467,781.869 979.8,786.202 980.5,790.5 Z"/></g>
<g><path style="opacity:1" fill="#ff0904" d="M 1115.5,777.5 C 1120,776.945 1124.16,777.611 1128,779.5C 1134.55,816.51 1141.05,853.51 1147.5,890.5C 1143.17,890.5 1138.83,890.5 1134.5,890.5C 1133.48,879.064 1131.82,867.731 1129.5,856.5C 1117.51,855.334 1105.51,855.167 1093.5,856C 1088.7,867.094 1084.04,878.261 1079.5,889.5C 1075.5,890.833 1071.5,890.833 1067.5,889.5C 1083.51,852.141 1099.51,814.807 1115.5,777.5 Z"/></g>
<g><path style="opacity:1" fill="#f3cfcc" d="M 255.5,781.5 C 257.346,783.03 258.346,785.03 258.5,787.5C 256.654,785.97 255.654,783.97 255.5,781.5 Z"/></g>
<g><path style="opacity:1" fill="#f4cfca" d="M 279.5,780.5 C 281.262,781.262 282.262,782.596 282.5,784.5C 280.738,783.738 279.738,782.404 279.5,780.5 Z"/></g>
<g><path style="opacity:1" fill="#ff0c06" d="M 1036.5,777.5 C 1038.83,777.5 1041.17,777.5 1043.5,777.5C 1038.22,815.126 1033.22,852.793 1028.5,890.5C 1024.83,890.5 1021.17,890.5 1017.5,890.5C 1022.05,858.861 1026.39,827.194 1030.5,795.5C 1030.41,794.504 1030.75,793.671 1031.5,793C 1030.83,792.333 1030.17,791.667 1029.5,791C 1032.48,786.871 1034.82,782.371 1036.5,777.5 Z"/></g>
<g><path style="opacity:1" fill="#efbab6" d="M 284.5,788.5 C 286.587,789.585 287.92,791.251 288.5,793.5C 286.413,792.415 285.08,790.749 284.5,788.5 Z"/></g>
<g><path style="opacity:1" fill="#fdfcfd" d="M 863.5,790.5 C 871.167,790.5 878.833,790.5 886.5,790.5C 894.859,793.538 898.359,799.538 897,808.5C 893.28,823.96 883.446,830.294 867.5,827.5C 861.132,827.83 854.798,827.496 848.5,826.5C 849.632,821.909 850.299,817.242 850.5,812.5C 851.873,805.221 852.873,797.888 853.5,790.5C 856.833,790.5 860.167,790.5 863.5,790.5 Z M 862.5,801.5 C 862.393,806.585 861.726,811.585 860.5,816.5C 867.173,817.556 873.839,817.39 880.5,816C 885.931,812.71 887.597,808.043 885.5,802C 877.841,801.5 870.174,801.334 862.5,801.5 Z"/></g>
<g><path style="opacity:1" fill="#f8e0dd" d="M 260.5,791.5 C 261.906,791.973 262.573,792.973 262.5,794.5C 261.094,794.027 260.427,793.027 260.5,791.5 Z"/></g>
<g><path style="opacity:1" fill="#f1b9b4" d="M 288.5,793.5 C 290.914,794.911 292.581,796.911 293.5,799.5C 291.086,798.089 289.419,796.089 288.5,793.5 Z"/></g>
<g><path style="opacity:1" fill="#fbfcfd" d="M 765.5,814.5 C 766.725,823.517 768.058,832.517 769.5,841.5C 764.88,842.493 760.214,842.827 755.5,842.5C 750.833,842.5 746.167,842.5 741.5,842.5C 748.615,825.271 755.449,807.937 762,790.5C 762.844,798.595 764.011,806.595 765.5,814.5 Z"/></g>
<g><path style="opacity:1" fill="#fff8f7" d="M 1119.5,790.5 C 1122.43,807.651 1125.09,824.984 1127.5,842.5C 1118.17,842.5 1108.83,842.5 1099.5,842.5C 1106.36,825.252 1113.03,807.919 1119.5,790.5 Z"/></g>
<g><path style="opacity:1" fill="#f5aea6" d="M 262.5,794.5 C 265.034,795.634 266.367,797.634 266.5,800.5C 264.674,798.853 263.34,796.853 262.5,794.5 Z"/></g>
<g><path style="opacity:1" fill="#cbd3e3" d="M 388.5,795.5 C 389.833,795.5 391.167,795.5 392.5,795.5C 387.894,797.876 382.894,798.876 377.5,798.5C 378.919,797.549 380.585,797.216 382.5,797.5C 384.698,797.125 386.698,796.458 388.5,795.5 Z"/></g>
<g><path style="opacity:1" fill="#f6e0dd" d="M 266.5,800.5 C 267.906,800.973 268.573,801.973 268.5,803.5C 267.094,803.027 266.427,802.027 266.5,800.5 Z"/></g>
<g><path style="opacity:1" fill="#e99e94" d="M 579.5,672.5 C 579.631,673.239 579.464,673.906 579,674.5C 566.298,687.035 553.798,699.702 541.5,712.5C 523.5,729.833 505.833,747.5 488.5,765.5C 472.167,781.167 456.167,797.167 440.5,813.5C 418.167,835.167 396.167,857.167 374.5,879.5C 372.027,879.912 370.694,878.912 370.5,876.5C 371.458,876.953 372.292,877.619 373,878.5C 441.701,809.632 510.535,740.965 579.5,672.5 Z"/></g>
<g><path style="opacity:1" fill="#ea4141" d="M 980.5,790.5 C 981.323,801.905 982.656,813.238 984.5,824.5C 983.175,825.953 982.342,825.619 982,823.5C 979.306,827.879 977.473,832.546 976.5,837.5C 974.439,825.355 972.772,813.021 971.5,800.5C 973.562,796.721 975.896,793.054 978.5,789.5C 977.494,788.604 977.494,787.938 978.5,787.5C 979.176,788.602 979.842,789.602 980.5,790.5 Z"/></g>
<g><path style="opacity:1" fill="#e64848" d="M 967.5,809.5 C 966.975,817.698 965.975,825.698 964.5,833.5C 964.657,832.127 964.49,830.793 964,829.5C 959.083,837.212 954.917,845.212 951.5,853.5C 952.593,845.847 953.593,838.18 954.5,830.5C 955.95,831.658 956.95,831.158 957.5,829C 956.667,826.919 956.667,824.752 957.5,822.5C 958.552,822.649 959.552,822.483 960.5,822C 959.663,820.989 959.33,819.822 959.5,818.5C 960.822,818.67 961.989,818.337 963,817.5C 965.458,813.907 966.792,809.907 967,805.5C 967.49,806.793 967.657,808.127 967.5,809.5 Z"/></g>
<g><path style="opacity:1" fill="#e79f98" d="M 299.5,805.5 C 316.167,821.5 332.5,837.833 348.5,854.5C 347.761,854.631 347.094,854.464 346.5,854C 332.632,839.965 318.632,826.131 304.5,812.5C 302.42,810.427 300.754,808.093 299.5,805.5 Z"/></g>
<g><path style="opacity:1" fill="#efcac8" d="M 274.5,810.5 C 275.833,811.5 277.167,812.5 278.5,813.5C 279.6,814.605 280.267,815.938 280.5,817.5C 277.757,815.761 275.757,813.427 274.5,810.5 Z"/></g>
<g><path style="opacity:1" fill="#fa5654" d="M 304.5,812.5 C 318.632,826.131 332.632,839.965 346.5,854C 347.094,854.464 347.761,854.631 348.5,854.5C 349.833,855.167 350.833,856.167 351.5,857.5C 352.833,860.833 355.167,863.167 358.5,864.5C 361.167,866.5 363.5,868.833 365.5,871.5C 366.955,874.182 368.289,876.849 369.5,879.5C 361.248,879.184 353.081,879.518 345,880.5C 344.184,879.177 343.017,878.511 341.5,878.5C 320.833,858.5 300.5,838.167 280.5,817.5C 280.267,815.938 279.6,814.605 278.5,813.5C 280.124,813.36 281.29,814.027 282,815.5C 282.333,814.833 282.667,814.167 283,813.5C 283.667,816.167 284.333,816.167 285,813.5C 285.667,816.167 286.333,816.167 287,813.5C 287.667,816.167 288.333,816.167 289,813.5C 289.667,816.167 290.333,816.167 291,813.5C 291.667,816.167 292.333,816.167 293,813.5C 293.667,816.167 294.333,816.167 295,813.5C 295.667,816.167 296.333,816.167 297,813.5C 297.667,816.167 298.333,816.167 299,813.5C 299.667,816.167 300.333,816.167 301,813.5C 301.667,816.167 302.333,816.167 303,813.5C 304.087,815.932 304.587,815.598 304.5,812.5 Z"/></g>
<g><path style="opacity:1" fill="#fa5653" d="M 440.5,813.5 C 441.222,813.918 441.722,814.584 442,815.5C 442.667,812.833 443.333,812.833 444,815.5C 444.667,812.833 445.333,812.833 446,815.5C 446.667,812.833 447.333,812.833 448,815.5C 448.667,812.833 449.333,812.833 450,815.5C 450.667,812.833 451.333,812.833 452,815.5C 452.667,812.833 453.333,812.833 454,815.5C 454.667,812.833 455.333,812.833 456,815.5C 456.667,812.833 457.333,812.833 458,815.5C 458.667,812.833 459.333,812.833 460,815.5C 460.667,812.833 461.333,812.833 462,815.5C 462.667,812.833 463.333,812.833 464,815.5C 464.853,813.397 466.02,813.397 467.5,815.5C 445.833,837.833 423.833,859.833 401.5,881.5C 392.895,879.529 383.895,878.862 374.5,879.5C 396.167,857.167 418.167,835.167 440.5,813.5 Z"/></g>
<g><path style="opacity:1" fill="#9d7598" d="M 850.5,812.5 C 850.299,817.242 849.632,821.909 848.5,826.5C 854.798,827.496 861.132,827.83 867.5,827.5C 866.992,829.233 866.159,829.566 865,828.5C 864.316,829.784 864.483,830.951 865.5,832C 862.928,834.313 861.261,837.146 860.5,840.5C 855.833,840.5 851.167,840.5 846.5,840.5C 844.501,857.164 842.501,873.831 840.5,890.5C 836.833,890.5 833.167,890.5 829.5,890.5C 831.669,871.817 834.002,853.151 836.5,834.5C 840.901,833.301 842.401,830.635 841,826.5C 841.333,827.5 841.667,828.5 842,829.5C 842.273,827.671 843.107,826.171 844.5,825C 843.446,823.612 843.28,822.112 844,820.5C 845.395,819.185 846.395,819.519 847,821.5C 847.695,818.527 848.862,815.527 850.5,812.5 Z"/></g>
<g><path style="opacity:1" fill="#b56c83" d="M 893.5,778.5 C 904.902,782.279 909.902,790.279 908.5,802.5C 908.781,822.363 899.448,834.863 880.5,840C 885.901,842.968 889.234,847.468 890.5,853.5C 889.21,852.942 888.377,851.942 888,850.5C 887.641,853.544 886.974,853.878 886,851.5C 885.63,853.664 884.796,855.664 883.5,857.5C 883.709,858.086 884.043,858.586 884.5,859C 882.859,860.129 881.859,861.629 881.5,863.5C 878.907,856.98 875.74,850.647 872,844.5C 868.819,841.328 864.986,839.994 860.5,840.5C 861.261,837.146 862.928,834.313 865.5,832C 864.483,830.951 864.316,829.784 865,828.5C 866.159,829.566 866.992,829.233 867.5,827.5C 883.446,830.294 893.28,823.96 897,808.5C 898.359,799.538 894.859,793.538 886.5,790.5C 888.134,789.793 889.468,788.627 890.5,787C 890.888,785.475 890.888,783.808 890.5,782C 891.126,781.25 891.626,780.416 892,779.5C 893.087,781.932 893.587,781.598 893.5,778.5 Z"/></g>
<g><path style="opacity:1" fill="#6182c0" d="M 773.5,800.5 C 776.951,817.293 779.951,834.293 782.5,851.5C 779.114,858.561 776.614,864.561 775,869.5C 774.802,867.618 774.302,865.952 773.5,864.5C 772.836,861.863 772.169,859.197 771.5,856.5C 764.532,855.503 757.532,855.17 750.5,855.5C 751.117,853.771 752.117,852.271 753.5,851C 753.043,850.586 752.709,850.086 752.5,849.5C 753.788,847.261 754.788,844.928 755.5,842.5C 760.214,842.827 764.88,842.493 769.5,841.5C 768.058,832.517 766.725,823.517 765.5,814.5C 767.647,809.54 770.314,804.873 773.5,800.5 Z"/></g>
<g><path style="opacity:1" fill="#f43631" d="M 984.5,824.5 C 985.833,835.499 987.167,846.499 988.5,857.5C 987.448,857.351 986.448,857.517 985.5,858C 985.833,858.333 986.167,858.667 986.5,859C 985.54,860.419 984.707,861.919 984,863.5C 983.333,862.167 982.667,862.167 982,863.5C 980.799,866.182 980.299,868.849 980.5,871.5C 978.183,860.423 976.85,849.089 976.5,837.5C 977.473,832.546 979.306,827.879 982,823.5C 982.342,825.619 983.175,825.953 984.5,824.5 Z"/></g>
<g><path style="opacity:1" fill="#fe1813" d="M 1036.5,777.5 C 1034.82,782.371 1032.48,786.871 1029.5,791C 1030.17,791.667 1030.83,792.333 1031.5,793C 1030.75,793.671 1030.41,794.504 1030.5,795.5C 1017.66,826.653 1005,857.987 992.5,889.5C 989.232,890.487 985.898,890.82 982.5,890.5C 981.687,884.185 981.021,877.852 980.5,871.5C 980.299,868.849 980.799,866.182 982,863.5C 982.667,862.167 983.333,862.167 984,863.5C 984.707,861.919 985.54,860.419 986.5,859C 986.167,858.667 985.833,858.333 985.5,858C 986.448,857.517 987.448,857.351 988.5,857.5C 989.109,862.812 989.609,868.146 990,873.5C 1003.19,841.774 1015.69,809.774 1027.5,777.5C 1030.5,777.5 1033.5,777.5 1036.5,777.5 Z"/></g>
<g><path style="opacity:1" fill="#ed3e3d" d="M 964.5,833.5 C 962.093,852.493 959.76,871.493 957.5,890.5C 953.833,890.5 950.167,890.5 946.5,890.5C 948.085,878.155 949.752,865.821 951.5,853.5C 954.917,845.212 959.083,837.212 964,829.5C 964.49,830.793 964.657,832.127 964.5,833.5 Z"/></g>
<g><path style="opacity:1" fill="#787eb3" d="M 782.5,851.5 C 785.232,864.305 787.566,877.305 789.5,890.5C 785.167,890.5 780.833,890.5 776.5,890.5C 775.664,881.812 774.664,873.145 773.5,864.5C 774.302,865.952 774.802,867.618 775,869.5C 776.614,864.561 779.114,858.561 782.5,851.5 Z"/></g>
<g><path style="opacity:1" fill="#e6a099" d="M 351.5,857.5 C 354.167,859.5 356.5,861.833 358.5,864.5C 355.167,863.167 352.833,860.833 351.5,857.5 Z"/></g>
<g><path style="opacity:1" fill="#ca606c" d="M 890.5,853.5 C 895.727,865.164 900.394,877.164 904.5,889.5C 899.833,890.833 895.167,890.833 890.5,889.5C 887.094,880.948 884.094,872.281 881.5,863.5C 881.859,861.629 882.859,860.129 884.5,859C 884.043,858.586 883.709,858.086 883.5,857.5C 884.796,855.664 885.63,853.664 886,851.5C 886.974,853.878 887.641,853.544 888,850.5C 888.377,851.942 889.21,852.942 890.5,853.5 Z"/></g>
<g><path style="opacity:1" fill="#fa5f5b" d="M 365.5,871.5 C 367.5,872.833 369.167,874.5 370.5,876.5C 370.694,878.912 372.027,879.912 374.5,879.5C 383.895,878.862 392.895,879.529 401.5,881.5C 392.493,891.34 382.993,900.674 373,909.5C 362.007,899.674 351.507,889.34 341.5,878.5C 343.017,878.511 344.184,879.177 345,880.5C 353.081,879.518 361.248,879.184 369.5,879.5C 368.289,876.849 366.955,874.182 365.5,871.5 Z"/></g>
</svg>
