<?xml version="1.0" encoding="UTF-8"?>
<!DOCTYPE svg PUBLIC "-//W3C//DTD SVG 1.1//EN" "http://www.w3.org/Graphics/SVG/1.1/DTD/svg11.dtd">
<svg xmlns="http://www.w3.org/2000/svg" version="1.1" width="2445px" height="1756px" style="shape-rendering:geometricPrecision; text-rendering:geometricPrecision; image-rendering:optimizeQuality; fill-rule:evenodd; clip-rule:evenodd" xmlns:xlink="http://www.w3.org/1999/xlink">
<g><path style="opacity:1" fill="#fefefe" d="M -0.5,-0.5 C 814.5,-0.5 1629.5,-0.5 2444.5,-0.5C 2444.5,584.833 2444.5,1170.17 2444.5,1755.5C 1629.5,1755.5 814.5,1755.5 -0.5,1755.5C -0.5,1170.17 -0.5,584.833 -0.5,-0.5 Z"/></g>
<g><path style="opacity:1" fill="#608dcd" d="M 821.5,656.5 C 821.082,657.222 820.416,657.722 819.5,658C 820.167,658.333 820.833,658.667 821.5,659C 789.255,727.07 757.255,795.237 725.5,863.5C 722.687,860.554 720.354,857.221 718.5,853.5C 718.36,851.876 719.027,850.71 720.5,850C 719.167,848.16 719.334,847.66 721,848.5C 722.688,847.675 722.855,846.675 721.5,845.5C 723.717,842.932 724.884,839.932 725,836.5C 725.333,837.5 725.667,838.5 726,839.5C 727.928,833.639 730.428,827.972 733.5,822.5C 733.291,821.914 732.957,821.414 732.5,821C 733.109,818.942 734.109,818.109 735.5,818.5C 735.167,817.833 734.833,817.167 734.5,816.5C 735.806,815.088 736.64,813.421 737,811.5C 737.805,813.901 738.638,813.734 739.5,811C 739.167,810.667 738.833,810.333 738.5,810C 739.833,807.333 741.167,804.667 742.5,802C 741.216,800.703 741.383,799.536 743,798.5C 743.333,798.833 743.667,799.167 744,799.5C 745.368,798.007 745.535,796.507 744.5,795C 745.126,794.25 745.626,793.416 746,792.5C 746.333,792.833 746.667,793.167 747,793.5C 748.044,791.285 748.71,788.952 749,786.5C 750.666,787.34 750.833,786.84 749.5,785C 750.863,783.055 751.697,780.888 752,778.5C 752.333,779.5 752.667,780.5 753,781.5C 754.817,775.554 757.317,769.887 760.5,764.5C 760.291,763.914 759.957,763.414 759.5,763C 760.109,760.942 761.109,760.109 762.5,760.5C 761.674,759.549 761.508,758.549 762,757.5C 762.92,757.07 763.753,756.736 764.5,756.5C 764.291,755.914 763.957,755.414 763.5,755C 765.354,752.457 766.521,749.624 767,746.5C 767.333,747.5 767.667,748.5 768,749.5C 769.44,744.232 771.94,738.399 775.5,732C 775.167,731.667 774.833,731.333 774.5,731C 775.109,728.942 776.109,728.109 777.5,728.5C 776.674,727.549 776.508,726.549 777,725.5C 777.667,724.167 778.333,724.167 779,725.5C 780.368,724.007 780.535,722.507 779.5,721C 782.915,714.436 787.248,706.269 792.5,696.5C 792.167,695.833 791.833,695.167 791.5,694.5C 792.512,692.136 793.845,690.802 795.5,690.5C 795.291,689.914 794.957,689.414 794.5,689C 795.525,686.929 796.358,684.762 797,682.5C 797.333,683.5 797.667,684.5 798,685.5C 798.543,681.255 800.043,677.421 802.5,674C 801.216,672.703 801.383,671.536 803,670.5C 803.333,670.833 803.667,671.167 804,671.5C 804.93,669.064 806.097,666.731 807.5,664.5C 806.141,662.694 806.475,661.194 808.5,660C 807.833,659.667 807.167,659.333 806.5,659C 808.058,658.79 809.391,658.29 810.5,657.5C 813.962,656.518 817.629,656.185 821.5,656.5 Z"/></g>
<g><path style="opacity:1" fill="#5686ca" d="M 821.5,656.5 C 828.175,656.334 834.842,656.5 841.5,657C 846.434,657.116 851.1,657.949 855.5,659.5C 854.504,659.414 853.671,659.748 853,660.5C 850.993,659.331 848.827,658.665 846.5,658.5C 812.425,733.368 777.758,808.035 742.5,882.5C 736.14,876.773 730.473,870.44 725.5,863.5C 757.255,795.237 789.255,727.07 821.5,659C 820.833,658.667 820.167,658.333 819.5,658C 820.416,657.722 821.082,657.222 821.5,656.5 Z"/></g>
<g><path style="opacity:1" fill="#6792cf" d="M 810.5,657.5 C 809.391,658.29 808.058,658.79 806.5,659C 807.167,659.333 807.833,659.667 808.5,660C 806.475,661.194 806.141,662.694 807.5,664.5C 806.097,666.731 804.93,669.064 804,671.5C 803.667,671.167 803.333,670.833 803,670.5C 801.383,671.536 801.216,672.703 802.5,674C 800.043,677.421 798.543,681.255 798,685.5C 797.667,684.5 797.333,683.5 797,682.5C 796.358,684.762 795.525,686.929 794.5,689C 794.957,689.414 795.291,689.914 795.5,690.5C 793.845,690.802 792.512,692.136 791.5,694.5C 791.833,695.167 792.167,695.833 792.5,696.5C 787.248,706.269 782.915,714.436 779.5,721C 780.535,722.507 780.368,724.007 779,725.5C 778.333,724.167 777.667,724.167 777,725.5C 776.508,726.549 776.674,727.549 777.5,728.5C 776.109,728.109 775.109,728.942 774.5,731C 774.833,731.333 775.167,731.667 775.5,732C 771.94,738.399 769.44,744.232 768,749.5C 767.667,748.5 767.333,747.5 767,746.5C 766.521,749.624 765.354,752.457 763.5,755C 763.957,755.414 764.291,755.914 764.5,756.5C 763.753,756.736 762.92,757.07 762,757.5C 761.508,758.549 761.674,759.549 762.5,760.5C 761.109,760.109 760.109,760.942 759.5,763C 759.957,763.414 760.291,763.914 760.5,764.5C 757.317,769.887 754.817,775.554 753,781.5C 752.667,780.5 752.333,779.5 752,778.5C 751.697,780.888 750.863,783.055 749.5,785C 750.833,786.84 750.666,787.34 749,786.5C 748.71,788.952 748.044,791.285 747,793.5C 746.667,793.167 746.333,792.833 746,792.5C 745.626,793.416 745.126,794.25 744.5,795C 745.535,796.507 745.368,798.007 744,799.5C 743.667,799.167 743.333,798.833 743,798.5C 741.383,799.536 741.216,800.703 742.5,802C 741.167,804.667 739.833,807.333 738.5,810C 738.833,810.333 739.167,810.667 739.5,811C 738.638,813.734 737.805,813.901 737,811.5C 736.64,813.421 735.806,815.088 734.5,816.5C 734.833,817.167 735.167,817.833 735.5,818.5C 734.109,818.109 733.109,818.942 732.5,821C 732.957,821.414 733.291,821.914 733.5,822.5C 730.428,827.972 727.928,833.639 726,839.5C 725.667,838.5 725.333,837.5 725,836.5C 724.884,839.932 723.717,842.932 721.5,845.5C 722.855,846.675 722.688,847.675 721,848.5C 719.334,847.66 719.167,848.16 720.5,850C 719.027,850.71 718.36,851.876 718.5,853.5C 713.892,846.377 710.226,838.71 707.5,830.5C 734.032,776.102 760.032,721.436 785.5,666.5C 784.757,665.818 784.091,665.151 783.5,664.5C 792.11,660.776 801.11,658.443 810.5,657.5 Z"/></g>
<g><path style="opacity:1" fill="#4e81c8" d="M 855.5,659.5 C 858.829,659.215 861.829,659.882 864.5,661.5C 863.325,661.281 862.325,661.614 861.5,662.5C 858.575,668.638 856.075,674.638 854,680.5C 853.667,679.833 853.333,679.167 853,678.5C 852.443,680.615 851.609,682.615 850.5,684.5C 850.833,685.167 851.167,685.833 851.5,686.5C 848.727,691.27 846.56,695.937 845,700.5C 844.667,700.167 844.333,699.833 844,699.5C 842.851,701.99 841.684,704.49 840.5,707C 840.645,707.772 840.978,708.439 841.5,709C 840.299,709.903 839.465,711.069 839,712.5C 838.667,711.833 838.333,711.167 838,710.5C 837.443,712.615 836.609,714.615 835.5,716.5C 835.833,717.167 836.167,717.833 836.5,718.5C 833.014,724.802 829.514,731.135 826,737.5C 825.316,738.784 825.483,739.951 826.5,741C 825.747,742.487 824.914,742.654 824,741.5C 823.508,742.549 823.674,743.549 824.5,744.5C 823.469,745.7 822.635,747.034 822,748.5C 821.163,742.163 820.497,742.497 820,749.5C 819.667,748.833 819.333,748.167 819,747.5C 818.293,749.081 817.46,750.581 816.5,752C 817.167,753.333 817.833,754.667 818.5,756C 816.721,759.056 815.054,762.223 813.5,765.5C 814.855,766.675 814.688,767.675 813,768.5C 812.667,768.167 812.333,767.833 812,767.5C 810.495,769.298 810.328,771.132 811.5,773C 810.529,774.204 809.529,774.704 808.5,774.5C 808.833,775.167 809.167,775.833 809.5,776.5C 804.799,784.707 800.299,793.041 796,801.5C 795.316,802.784 795.483,803.951 796.5,805C 795.529,806.204 794.529,806.704 793.5,806.5C 793.833,807.167 794.167,807.833 794.5,808.5C 790.568,816.273 786.401,823.94 782,831.5C 780.798,833.553 780.464,835.553 781,837.5C 780.08,837.93 779.247,838.264 778.5,838.5C 779.326,839.451 779.492,840.451 779,841.5C 778.085,842.328 777.419,843.328 777,844.5C 776.667,843.833 776.333,843.167 776,842.5C 775.28,844.112 775.446,845.612 776.5,847C 775.002,849.482 773.502,851.982 772,854.5C 771.667,852.833 771.333,851.167 771,849.5C 770.627,851.698 770.127,853.865 769.5,856C 770.479,857.779 770.146,859.445 768.5,861C 769.923,862.412 769.756,863.579 768,864.5C 767.667,864.167 767.333,863.833 767,863.5C 764.362,867.723 762.695,872.056 762,876.5C 761.026,874.122 760.359,874.456 760,877.5C 759.667,876.833 759.333,876.167 759,875.5C 757.961,877.746 756.794,879.913 755.5,882C 755.833,882.333 756.167,882.667 756.5,883C 755.642,884.57 754.975,886.237 754.5,888C 755.065,890.388 755.065,892.555 754.5,894.5C 750.167,890.833 746.167,886.833 742.5,882.5C 777.758,808.035 812.425,733.368 846.5,658.5C 848.827,658.665 850.993,659.331 853,660.5C 853.671,659.748 854.504,659.414 855.5,659.5 Z"/></g>
<g><path style="opacity:1" fill="#467ac5" d="M 864.5,661.5 C 871.664,663.215 878.331,665.881 884.5,669.5C 881.386,677.062 877.553,684.729 873,692.5C 872.667,694.167 872.333,695.833 872,697.5C 871.667,696.5 871.333,695.5 871,694.5C 872.228,697.709 871.395,700.209 868.5,702C 868.833,702.333 869.167,702.667 869.5,703C 862.647,715.434 857.48,726.267 854,735.5C 850.297,743.2 845.797,751.866 840.5,761.5C 841.041,763.523 840.541,765.523 839,767.5C 838.667,766.833 838.333,766.167 838,765.5C 837.667,767.5 837.333,769.5 837,771.5C 836.667,770.5 836.333,769.5 836,768.5C 835.28,770.112 835.446,771.612 836.5,773C 833.65,777.532 831.484,782.366 830,787.5C 829.667,786.5 829.333,785.5 829,784.5C 827.126,790.991 824.793,797.325 822,803.5C 821.667,802.833 821.333,802.167 821,801.5C 820.013,807.848 817.513,813.848 813.5,819.5C 813.709,820.086 814.043,820.586 814.5,821C 813.333,822.167 812.167,823.333 811,824.5C 810.517,828.467 809.184,832.134 807,835.5C 806.667,834.833 806.333,834.167 806,833.5C 805.316,834.784 805.483,835.951 806.5,837C 803.266,842.634 800.433,848.468 798,854.5C 797.195,852.099 796.362,852.266 795.5,855C 795.833,855.333 796.167,855.667 796.5,856C 795.751,857.734 795.251,859.567 795,861.5C 794.667,860.5 794.333,859.5 794,858.5C 793.28,860.112 793.446,861.612 794.5,863C 787.779,875.135 782.946,885.301 780,893.5C 779.667,892.5 779.333,891.5 779,890.5C 778.28,892.112 778.446,893.612 779.5,895C 777.221,899.057 775.054,903.223 773,907.5C 772.195,905.099 771.362,905.266 770.5,908C 771.598,908.77 771.598,909.603 770.5,910.5C 764.833,905.5 759.5,900.167 754.5,894.5C 755.065,892.555 755.065,890.388 754.5,888C 754.975,886.237 755.642,884.57 756.5,883C 756.167,882.667 755.833,882.333 755.5,882C 756.794,879.913 757.961,877.746 759,875.5C 759.333,876.167 759.667,876.833 760,877.5C 760.359,874.456 761.026,874.122 762,876.5C 762.695,872.056 764.362,867.723 767,863.5C 767.333,863.833 767.667,864.167 768,864.5C 769.756,863.579 769.923,862.412 768.5,861C 770.146,859.445 770.479,857.779 769.5,856C 770.127,853.865 770.627,851.698 771,849.5C 771.333,851.167 771.667,852.833 772,854.5C 773.502,851.982 775.002,849.482 776.5,847C 775.446,845.612 775.28,844.112 776,842.5C 776.333,843.167 776.667,843.833 777,844.5C 777.419,843.328 778.085,842.328 779,841.5C 779.492,840.451 779.326,839.451 778.5,838.5C 779.247,838.264 780.08,837.93 781,837.5C 780.464,835.553 780.798,833.553 782,831.5C 786.401,823.94 790.568,816.273 794.5,808.5C 794.167,807.833 793.833,807.167 793.5,806.5C 794.529,806.704 795.529,806.204 796.5,805C 795.483,803.951 795.316,802.784 796,801.5C 800.299,793.041 804.799,784.707 809.5,776.5C 809.167,775.833 808.833,775.167 808.5,774.5C 809.529,774.704 810.529,774.204 811.5,773C 810.328,771.132 810.495,769.298 812,767.5C 812.333,767.833 812.667,768.167 813,768.5C 814.688,767.675 814.855,766.675 813.5,765.5C 815.054,762.223 816.721,759.056 818.5,756C 817.833,754.667 817.167,753.333 816.5,752C 817.46,750.581 818.293,749.081 819,747.5C 819.333,748.167 819.667,748.833 820,749.5C 820.497,742.497 821.163,742.163 822,748.5C 822.635,747.034 823.469,745.7 824.5,744.5C 823.674,743.549 823.508,742.549 824,741.5C 824.914,742.654 825.747,742.487 826.5,741C 825.483,739.951 825.316,738.784 826,737.5C 829.514,731.135 833.014,724.802 836.5,718.5C 836.167,717.833 835.833,717.167 835.5,716.5C 836.609,714.615 837.443,712.615 838,710.5C 838.333,711.167 838.667,711.833 839,712.5C 839.465,711.069 840.299,709.903 841.5,709C 840.978,708.439 840.645,707.772 840.5,707C 841.684,704.49 842.851,701.99 844,699.5C 844.333,699.833 844.667,700.167 845,700.5C 846.56,695.937 848.727,691.27 851.5,686.5C 851.167,685.833 850.833,685.167 850.5,684.5C 851.609,682.615 852.443,680.615 853,678.5C 853.333,679.167 853.667,679.833 854,680.5C 856.075,674.638 858.575,668.638 861.5,662.5C 862.325,661.614 863.325,661.281 864.5,661.5 Z"/></g>
<g><path style="opacity:1" fill="#6e97d2" d="M 783.5,664.5 C 784.091,665.151 784.757,665.818 785.5,666.5C 760.032,721.436 734.032,776.102 707.5,830.5C 703.906,823.361 701.906,815.695 701.5,807.5C 720.22,769.634 738.72,730.3 757,689.5C 759.641,685.049 762.141,680.549 764.5,676C 763.584,675.722 762.918,675.222 762.5,674.5C 769.082,670.242 776.082,666.909 783.5,664.5 Z"/></g>
<g><path style="opacity:1" fill="#fe100a" d="M 1185.5,701.5 C 1186.9,706.068 1186.4,706.402 1184,702.5C 1183.39,706.272 1182.39,706.272 1181,702.5C 1180.39,706.272 1179.39,706.272 1178,702.5C 1177.39,706.272 1176.39,706.272 1175,702.5C 1174.39,706.272 1173.39,706.272 1172,702.5C 1171.39,706.272 1170.39,706.272 1169,702.5C 1168.39,706.272 1167.39,706.272 1166,702.5C 1165.39,706.272 1164.39,706.272 1163,702.5C 1162.29,704.367 1162.79,705.867 1164.5,707C 1163.91,707.464 1163.24,707.631 1162.5,707.5C 1129.38,678.475 1091.71,670.642 1049.5,684C 1037.01,689.072 1025.68,695.905 1015.5,704.5C 1006.75,705.085 998.085,705.085 989.5,704.5C 988.522,704.977 987.689,705.643 987,706.5C 987.109,705.231 986.942,704.231 986.5,703.5C 1027.68,658.818 1077.35,645.985 1135.5,665C 1155.13,673.135 1171.8,685.302 1185.5,701.5 Z"/></g>
<g><path style="opacity:1" fill="#3e73c2" d="M 884.5,669.5 C 888.787,670.977 892.787,672.977 896.5,675.5C 895.761,675.369 895.094,675.536 894.5,676C 895.428,676.388 896.095,677.055 896.5,678C 860.254,754.598 824.421,831.431 789,908.5C 786.483,912.873 783.983,917.206 781.5,921.5C 777.5,918.167 773.833,914.5 770.5,910.5C 771.598,909.603 771.598,908.77 770.5,908C 771.362,905.266 772.195,905.099 773,907.5C 775.054,903.223 777.221,899.057 779.5,895C 778.446,893.612 778.28,892.112 779,890.5C 779.333,891.5 779.667,892.5 780,893.5C 782.946,885.301 787.779,875.135 794.5,863C 793.446,861.612 793.28,860.112 794,858.5C 794.333,859.5 794.667,860.5 795,861.5C 795.251,859.567 795.751,857.734 796.5,856C 796.167,855.667 795.833,855.333 795.5,855C 796.362,852.266 797.195,852.099 798,854.5C 800.433,848.468 803.266,842.634 806.5,837C 805.483,835.951 805.316,834.784 806,833.5C 806.333,834.167 806.667,834.833 807,835.5C 809.184,832.134 810.517,828.467 811,824.5C 812.167,823.333 813.333,822.167 814.5,821C 814.043,820.586 813.709,820.086 813.5,819.5C 817.513,813.848 820.013,807.848 821,801.5C 821.333,802.167 821.667,802.833 822,803.5C 824.793,797.325 827.126,790.991 829,784.5C 829.333,785.5 829.667,786.5 830,787.5C 831.484,782.366 833.65,777.532 836.5,773C 835.446,771.612 835.28,770.112 836,768.5C 836.333,769.5 836.667,770.5 837,771.5C 837.333,769.5 837.667,767.5 838,765.5C 838.333,766.167 838.667,766.833 839,767.5C 840.541,765.523 841.041,763.523 840.5,761.5C 845.797,751.866 850.297,743.2 854,735.5C 857.48,726.267 862.647,715.434 869.5,703C 869.167,702.667 868.833,702.333 868.5,702C 871.395,700.209 872.228,697.709 871,694.5C 871.333,695.5 871.667,696.5 872,697.5C 872.333,695.833 872.667,694.167 873,692.5C 877.553,684.729 881.386,677.062 884.5,669.5 Z"/></g>
<g><path style="opacity:1" fill="#fefcfc" d="M 1162.5,707.5 C 1187.23,732.675 1198.23,763.008 1195.5,798.5C 1192.57,816.381 1186.23,833.047 1176.5,848.5C 1166.89,859.442 1156.89,870.109 1146.5,880.5C 1127.83,898.5 1109.5,916.833 1091.5,935.5C 1080.17,946.167 1069.17,957.167 1058.5,968.5C 1054.17,972.167 1050.17,976.167 1046.5,980.5C 1017.16,1009.67 987.661,1038.67 958,1067.5C 935.339,1045.67 912.839,1023.67 890.5,1001.5C 872.45,985.408 859.95,965.741 853,942.5C 851.182,934.925 850.015,927.259 849.5,919.5C 849.315,896.559 854.982,875.226 866.5,855.5C 869.888,851.751 873.055,847.751 876,843.5C 890.39,829.278 904.556,814.944 918.5,800.5C 950.86,768.473 983.194,736.473 1015.5,704.5C 1025.68,695.905 1037.01,689.072 1049.5,684C 1091.71,670.642 1129.38,678.475 1162.5,707.5 Z"/></g>
<g><path style="opacity:1" fill="#366cbe" d="M 896.5,675.5 C 905.631,680.399 913.631,686.733 920.5,694.5C 917.937,696.612 916.104,699.279 915,702.5C 900.319,733.702 885.819,765.035 871.5,796.5C 865.203,803.298 858.703,809.965 852,816.5C 815.789,858.691 805.122,906.691 820,960.5C 806.965,947.632 794.131,934.632 781.5,921.5C 783.983,917.206 786.483,912.873 789,908.5C 824.421,831.431 860.254,754.598 896.5,678C 896.095,677.055 895.428,676.388 894.5,676C 895.094,675.536 895.761,675.369 896.5,675.5 Z"/></g>
<g><path style="opacity:1" fill="#4974bf" d="M 1567.5,705.5 C 1567.54,706.756 1567.04,707.756 1566,708.5C 1565,707.167 1564,707.167 1563,708.5C 1561.69,706.109 1560.69,706.109 1560,708.5C 1559.66,706.381 1558.82,706.047 1557.5,707.5C 1534.27,688.763 1508.94,685.597 1481.5,698C 1476.63,700.929 1471.96,704.096 1467.5,707.5C 1466.78,707.082 1466.28,706.416 1466,705.5C 1465.33,708.167 1464.67,708.167 1464,705.5C 1463.33,709.5 1462.67,709.5 1462,705.5C 1459.95,710.652 1457.79,710.652 1455.5,705.5C 1481.16,680.84 1510.83,674.673 1544.5,687C 1553.85,691.194 1561.52,697.361 1567.5,705.5 Z"/></g>
<g><path style="opacity:1" fill="#4f74bc" d="M 1409.5,730.5 C 1409.63,731.239 1409.46,731.906 1409,732.5C 1407.49,730.043 1406.15,730.043 1405,732.5C 1404.33,729.833 1403.67,729.833 1403,732.5C 1402.66,730.381 1401.82,730.047 1400.5,731.5C 1396.34,709.834 1383.34,697.668 1361.5,695C 1341.83,694.333 1322.17,694.333 1302.5,695C 1291.4,699.342 1285.23,707.509 1284,719.5C 1282.84,726.803 1282,734.136 1281.5,741.5C 1278.63,740.321 1275.8,740.321 1273,741.5C 1272.54,740.906 1272.37,740.239 1272.5,739.5C 1272.04,724.643 1275.2,710.643 1282,697.5C 1287.19,690.654 1294.02,686.487 1302.5,685C 1321.83,684.333 1341.17,684.333 1360.5,685C 1388.56,687.557 1404.89,702.724 1409.5,730.5 Z"/></g>
<g><path style="opacity:1" fill="#4f74bc" d="M 1747.5,730.5 C 1747.63,731.239 1747.46,731.906 1747,732.5C 1745.49,730.043 1744.15,730.043 1743,732.5C 1742.33,729.833 1741.67,729.833 1741,732.5C 1740.66,730.381 1739.82,730.047 1738.5,731.5C 1734.32,709.821 1721.32,697.654 1699.5,695C 1679.83,694.333 1660.17,694.333 1640.5,695C 1629.4,699.342 1623.23,707.509 1622,719.5C 1620.84,726.803 1620,734.136 1619.5,741.5C 1616.63,740.321 1613.8,740.321 1611,741.5C 1610.54,740.906 1610.37,740.239 1610.5,739.5C 1610.04,724.643 1613.2,710.643 1620,697.5C 1625.19,690.654 1632.02,686.487 1640.5,685C 1659.83,684.333 1679.17,684.333 1698.5,685C 1726.56,687.557 1742.89,702.724 1747.5,730.5 Z"/></g>
<g><path style="opacity:1" fill="#fefdfe" d="M 1557.5,707.5 C 1564.97,716.774 1570.64,727.107 1574.5,738.5C 1576.55,746.758 1578.22,755.091 1579.5,763.5C 1579.5,774.833 1579.5,786.167 1579.5,797.5C 1578.86,805.893 1577.86,814.226 1576.5,822.5C 1576.04,828.274 1575.04,833.94 1573.5,839.5C 1571.11,850.016 1568.11,860.349 1564.5,870.5C 1562.83,874.495 1561.17,878.495 1559.5,882.5C 1556.35,888.798 1552.68,894.798 1548.5,900.5C 1543.42,908.004 1537.42,914.67 1530.5,920.5C 1510.51,935.164 1488.51,939.164 1464.5,932.5C 1451.76,927.106 1441.76,918.439 1434.5,906.5C 1431.01,900.517 1428.34,894.183 1426.5,887.5C 1424.4,882.022 1423.07,876.355 1422.5,870.5C 1421.76,864.51 1421.09,858.51 1420.5,852.5C 1420.5,842.833 1420.5,833.167 1420.5,823.5C 1421.49,814.974 1422.49,806.307 1423.5,797.5C 1426.17,785.883 1429.17,774.217 1432.5,762.5C 1436.67,751.834 1441.67,741.501 1447.5,731.5C 1453.1,722.574 1459.76,714.574 1467.5,707.5C 1471.96,704.096 1476.63,700.929 1481.5,698C 1508.94,685.597 1534.27,688.763 1557.5,707.5 Z"/></g>
<g><path style="opacity:1" fill="#779dd3" d="M 762.5,674.5 C 762.918,675.222 763.584,675.722 764.5,676C 762.141,680.549 759.641,685.049 757,689.5C 738.72,730.3 720.22,769.634 701.5,807.5C 693.925,750.319 714.258,705.986 762.5,674.5 Z"/></g>
<g><path style="opacity:1" fill="#2e66bb" d="M 920.5,694.5 C 929.632,703.131 938.632,711.964 947.5,721C 922.299,746.368 896.965,771.535 871.5,796.5C 885.819,765.035 900.319,733.702 915,702.5C 916.104,699.279 917.937,696.612 920.5,694.5 Z"/></g>
<g><path style="opacity:1" fill="#fefdfd" d="M 1400.5,731.5 C 1401.78,745.82 1401.78,760.153 1400.5,774.5C 1398.61,782.522 1396.27,790.522 1393.5,798.5C 1390.19,806.46 1385.85,813.794 1380.5,820.5C 1374.19,827.312 1366.86,832.646 1358.5,836.5C 1353.2,837.766 1347.87,838.932 1342.5,840C 1330.17,840.5 1317.84,840.667 1305.5,840.5C 1304.92,848.229 1303.92,855.896 1302.5,863.5C 1301.17,874.833 1299.83,886.167 1298.5,897.5C 1298.34,906.153 1296.67,914.486 1293.5,922.5C 1287.77,935.243 1278.94,938.243 1267,931.5C 1264.42,928.274 1262.92,924.607 1262.5,920.5C 1261.26,913.854 1261.26,907.187 1262.5,900.5C 1263.17,894.833 1263.83,889.167 1264.5,883.5C 1265.75,874.53 1266.75,865.53 1267.5,856.5C 1268.62,851.027 1269.28,845.36 1269.5,839.5C 1271,828.869 1272.33,818.202 1273.5,807.5C 1274.34,799.475 1275.34,791.475 1276.5,783.5C 1277.88,769.441 1279.54,755.441 1281.5,741.5C 1282,734.136 1282.84,726.803 1284,719.5C 1285.23,707.509 1291.4,699.342 1302.5,695C 1322.17,694.333 1341.83,694.333 1361.5,695C 1383.34,697.668 1396.34,709.834 1400.5,731.5 Z"/></g>
<g><path style="opacity:1" fill="#fefdfd" d="M 1738.5,731.5 C 1739.78,745.82 1739.78,760.153 1738.5,774.5C 1736.61,782.522 1734.27,790.522 1731.5,798.5C 1728.19,806.46 1723.85,813.794 1718.5,820.5C 1712.19,827.312 1704.86,832.646 1696.5,836.5C 1691.2,837.766 1685.87,838.932 1680.5,840C 1668.17,840.5 1655.84,840.667 1643.5,840.5C 1642.86,848.553 1641.86,856.553 1640.5,864.5C 1639.08,875.488 1637.75,886.488 1636.5,897.5C 1636.34,906.153 1634.67,914.486 1631.5,922.5C 1625.77,935.243 1616.94,938.243 1605,931.5C 1602.42,928.274 1600.92,924.607 1600.5,920.5C 1599.26,913.854 1599.26,907.187 1600.5,900.5C 1601.17,894.833 1601.83,889.167 1602.5,883.5C 1603.72,874.527 1604.72,865.527 1605.5,856.5C 1606.62,851.027 1607.28,845.36 1607.5,839.5C 1609,828.869 1610.33,818.202 1611.5,807.5C 1612.34,799.475 1613.34,791.475 1614.5,783.5C 1615.88,769.441 1617.54,755.441 1619.5,741.5C 1620,734.136 1620.84,726.803 1622,719.5C 1623.23,707.509 1629.4,699.342 1640.5,695C 1660.17,694.333 1679.83,694.333 1699.5,695C 1721.32,697.654 1734.32,709.821 1738.5,731.5 Z"/></g>
<g><path style="opacity:1" fill="#fb4a48" d="M 1077.5,714.5 C 1078.21,715.404 1079.21,715.737 1080.5,715.5C 1079.57,719.362 1078.07,723.029 1076,726.5C 1058,758.5 1040,790.5 1022,822.5C 1019.95,825.431 1019.12,828.431 1019.5,831.5C 1013.17,825.833 1007.17,819.833 1001.5,813.5C 1016.72,785.563 1032.05,757.729 1047.5,730C 1047.01,728.862 1046.68,727.695 1046.5,726.5C 1055.71,719.76 1066.05,715.76 1077.5,714.5 Z"/></g>
<g><path style="opacity:1" fill="#fc413e" d="M 1077.5,714.5 C 1085.51,714.334 1093.51,714.5 1101.5,715C 1103.72,715.566 1105.72,716.4 1107.5,717.5C 1107.8,718.15 1108.14,718.817 1108.5,719.5C 1084.27,764.162 1060.27,806.828 1036.5,847.5C 1030.22,842.852 1024.55,837.519 1019.5,831.5C 1019.12,828.431 1019.95,825.431 1022,822.5C 1040,790.5 1058,758.5 1076,726.5C 1078.07,723.029 1079.57,719.362 1080.5,715.5C 1079.21,715.737 1078.21,715.404 1077.5,714.5 Z"/></g>
<g><path style="opacity:1" fill="#6073b4" d="M 1455.5,705.5 C 1457.79,710.652 1459.95,710.652 1462,705.5C 1462.67,709.5 1463.33,709.5 1464,705.5C 1464.67,708.167 1465.33,708.167 1466,705.5C 1466.28,706.416 1466.78,707.082 1467.5,707.5C 1459.76,714.574 1453.1,722.574 1447.5,731.5C 1445.11,731.151 1442.94,731.484 1441,732.5C 1439.96,731.29 1438.79,730.29 1437.5,729.5C 1442.38,720.628 1448.38,712.628 1455.5,705.5 Z"/></g>
<g><path style="opacity:1" fill="#6373b3" d="M 1567.5,705.5 C 1576.65,716.138 1582.32,728.471 1584.5,742.5C 1583.78,742.082 1583.28,741.416 1583,740.5C 1582.67,741.167 1582.33,741.833 1582,742.5C 1579.53,741.069 1577.03,739.736 1574.5,738.5C 1570.64,727.107 1564.97,716.774 1557.5,707.5C 1558.82,706.047 1559.66,706.381 1560,708.5C 1560.69,706.109 1561.69,706.109 1563,708.5C 1564,707.167 1565,707.167 1566,708.5C 1567.04,707.756 1567.54,706.756 1567.5,705.5 Z"/></g>
<g><path style="opacity:1" fill="#fc3936" d="M 1107.5,717.5 C 1115.45,718.979 1122.45,722.312 1128.5,727.5C 1126.93,727.937 1125.76,728.937 1125,730.5C 1100.28,774.61 1076.11,818.944 1052.5,863.5C 1046.83,858.5 1041.5,853.167 1036.5,847.5C 1060.27,806.828 1084.27,764.162 1108.5,719.5C 1108.14,718.817 1107.8,718.15 1107.5,717.5 Z"/></g>
<g><path style="opacity:1" fill="#fa4f4e" d="M 1046.5,726.5 C 1046.68,727.695 1047.01,728.862 1047.5,730C 1032.05,757.729 1016.72,785.563 1001.5,813.5C 995.535,808.036 989.702,802.37 984,796.5C 982.398,794.631 981.398,792.631 981,790.5C 1002.4,768.602 1024.23,747.268 1046.5,726.5 Z"/></g>
<g><path style="opacity:1" fill="#fd322e" d="M 1128.5,727.5 C 1133.25,729.882 1137.25,733.216 1140.5,737.5C 1139.44,738.6 1138.61,739.934 1138,741.5C 1137.67,740.833 1137.33,740.167 1137,739.5C 1133.45,745.93 1130.45,752.596 1128,759.5C 1127.67,758.833 1127.33,758.167 1127,757.5C 1123.45,763.93 1120.45,770.596 1118,777.5C 1117.67,776.833 1117.33,776.167 1117,775.5C 1113.11,782.606 1109.78,789.939 1107,797.5C 1106.67,796.833 1106.33,796.167 1106,795.5C 1104.5,798.5 1103,801.5 1101.5,804.5C 1101.71,805.086 1102.04,805.586 1102.5,806C 1100.29,808.921 1098.45,812.088 1097,815.5C 1096.67,814.833 1096.33,814.167 1096,813.5C 1094.5,816.5 1093,819.5 1091.5,822.5C 1091.71,823.086 1092.04,823.586 1092.5,824C 1090.29,826.921 1088.45,830.088 1087,833.5C 1086.67,832.833 1086.33,832.167 1086,831.5C 1082.45,837.93 1079.45,844.596 1077,851.5C 1076.67,850.833 1076.33,850.167 1076,849.5C 1071.86,858.113 1068.03,866.779 1064.5,875.5C 1060.17,871.833 1056.17,867.833 1052.5,863.5C 1076.11,818.944 1100.28,774.61 1125,730.5C 1125.76,728.937 1126.93,727.937 1128.5,727.5 Z"/></g>
<g><path style="opacity:1" fill="#7671a7" d="M 1364.5,769.5 C 1361.53,770.476 1358.7,770.809 1356,770.5C 1355.52,769.552 1355.35,768.552 1355.5,767.5C 1355.67,761.824 1355.5,756.157 1355,750.5C 1354.03,746.594 1351.53,744.427 1347.5,744C 1340.51,743.5 1333.51,743.334 1326.5,743.5C 1325.85,751.012 1324.85,758.345 1323.5,765.5C 1323.05,762.476 1322.22,762.143 1321,764.5C 1319.67,764.5 1318.33,764.5 1317,764.5C 1316.67,763.833 1316.33,763.167 1316,762.5C 1315.77,763.737 1315.27,764.737 1314.5,765.5C 1315.38,754.817 1316.38,744.15 1317.5,733.5C 1327.17,733.334 1336.84,733.5 1346.5,734C 1354.81,734.889 1360.65,739.056 1364,746.5C 1365.78,754.138 1365.95,761.804 1364.5,769.5 Z"/></g>
<g><path style="opacity:1" fill="#7871a6" d="M 1542.5,772.5 C 1542.99,776.29 1542.16,776.956 1540,774.5C 1537.89,775.598 1535.72,775.598 1533.5,774.5C 1532.77,762.45 1528.1,752.284 1519.5,744C 1511.13,740.253 1503.13,740.92 1495.5,746C 1486.59,754.391 1479.93,764.224 1475.5,775.5C 1475.28,772.903 1474.78,772.903 1474,775.5C 1473.33,772.833 1472.67,772.833 1472,775.5C 1471.33,772.833 1470.67,772.833 1470,775.5C 1469.67,774.833 1469.33,774.167 1469,773.5C 1468.58,774.756 1467.75,775.423 1466.5,775.5C 1470.94,758.571 1480.27,745.071 1494.5,735C 1515.9,727.363 1530.73,734.196 1539,755.5C 1540.69,761.077 1541.86,766.744 1542.5,772.5 Z"/></g>
<g><path style="opacity:1" fill="#7671a7" d="M 1702.5,769.5 C 1699.53,770.476 1696.7,770.809 1694,770.5C 1693.52,769.552 1693.35,768.552 1693.5,767.5C 1693.67,761.824 1693.5,756.157 1693,750.5C 1692.03,746.594 1689.53,744.427 1685.5,744C 1678.51,743.5 1671.51,743.334 1664.5,743.5C 1663.85,751.012 1662.85,758.345 1661.5,765.5C 1661.05,762.476 1660.22,762.143 1659,764.5C 1657.67,764.5 1656.33,764.5 1655,764.5C 1654.67,763.833 1654.33,763.167 1654,762.5C 1653.77,763.737 1653.27,764.737 1652.5,765.5C 1653.38,754.817 1654.38,744.15 1655.5,733.5C 1665.17,733.334 1674.84,733.5 1684.5,734C 1692.81,734.889 1698.65,739.056 1702,746.5C 1703.78,754.138 1703.95,761.804 1702.5,769.5 Z"/></g>
<g><path style="opacity:1" fill="#fefdfe" d="M 1533.5,774.5 C 1533.5,782.5 1533.5,790.5 1533.5,798.5C 1533.15,806.923 1532.15,815.256 1530.5,823.5C 1529.96,828.622 1528.96,833.622 1527.5,838.5C 1525.06,846.719 1522.06,854.719 1518.5,862.5C 1515.13,868.052 1511.13,873.219 1506.5,878C 1490.56,889.317 1478.56,886.15 1470.5,868.5C 1469.37,863.527 1468.37,858.527 1467.5,853.5C 1466.63,843.194 1466.3,832.86 1466.5,822.5C 1467.39,814.819 1468.39,807.152 1469.5,799.5C 1471.19,791.416 1473.19,783.416 1475.5,775.5C 1479.93,764.224 1486.59,754.391 1495.5,746C 1503.13,740.92 1511.13,740.253 1519.5,744C 1528.1,752.284 1532.77,762.45 1533.5,774.5 Z"/></g>
<g><path style="opacity:1" fill="#fdfcfd" d="M 1355.5,767.5 C 1352.85,787.197 1341.52,795.197 1321.5,791.5C 1322.17,782.833 1322.83,774.167 1323.5,765.5C 1324.85,758.345 1325.85,751.012 1326.5,743.5C 1333.51,743.334 1340.51,743.5 1347.5,744C 1351.53,744.427 1354.03,746.594 1355,750.5C 1355.5,756.157 1355.67,761.824 1355.5,767.5 Z"/></g>
<g><path style="opacity:1" fill="#fdfcfd" d="M 1693.5,767.5 C 1690.85,787.197 1679.52,795.197 1659.5,791.5C 1660.17,782.833 1660.83,774.167 1661.5,765.5C 1662.85,758.345 1663.85,751.012 1664.5,743.5C 1671.51,743.334 1678.51,743.5 1685.5,744C 1689.53,744.427 1692.03,746.594 1693,750.5C 1693.5,756.157 1693.67,761.824 1693.5,767.5 Z"/></g>
<g><path style="opacity:1" fill="#fe2a26" d="M 1140.5,737.5 C 1145.07,741.631 1148.4,746.631 1150.5,752.5C 1149.78,753.461 1148.62,754.461 1147,755.5C 1145,760.167 1143,764.833 1141,769.5C 1140.67,768.833 1140.33,768.167 1140,767.5C 1136.45,773.93 1133.45,780.596 1131,787.5C 1130.67,786.833 1130.33,786.167 1130,785.5C 1126.28,792.665 1122.95,799.998 1120,807.5C 1119.67,806.833 1119.33,806.167 1119,805.5C 1115.81,812.083 1112.81,818.75 1110,825.5C 1109.67,824.833 1109.33,824.167 1109,823.5C 1105.45,829.93 1102.45,836.596 1100,843.5C 1099.67,842.833 1099.33,842.167 1099,841.5C 1093.53,855.103 1087.53,867.103 1081,877.5C 1080.67,876.833 1080.33,876.167 1080,875.5C 1078.83,877.833 1077.67,880.167 1076.5,882.5C 1076.74,884.55 1077.08,886.55 1077.5,888.5C 1072.83,884.5 1068.5,880.167 1064.5,875.5C 1068.03,866.779 1071.86,858.113 1076,849.5C 1076.33,850.167 1076.67,850.833 1077,851.5C 1079.45,844.596 1082.45,837.93 1086,831.5C 1086.33,832.167 1086.67,832.833 1087,833.5C 1088.45,830.088 1090.29,826.921 1092.5,824C 1092.04,823.586 1091.71,823.086 1091.5,822.5C 1093,819.5 1094.5,816.5 1096,813.5C 1096.33,814.167 1096.67,814.833 1097,815.5C 1098.45,812.088 1100.29,808.921 1102.5,806C 1102.04,805.586 1101.71,805.086 1101.5,804.5C 1103,801.5 1104.5,798.5 1106,795.5C 1106.33,796.167 1106.67,796.833 1107,797.5C 1109.78,789.939 1113.11,782.606 1117,775.5C 1117.33,776.167 1117.67,776.833 1118,777.5C 1120.45,770.596 1123.45,763.93 1127,757.5C 1127.33,758.167 1127.67,758.833 1128,759.5C 1130.45,752.596 1133.45,745.93 1137,739.5C 1137.33,740.167 1137.67,740.833 1138,741.5C 1138.61,739.934 1139.44,738.6 1140.5,737.5 Z"/></g>
<g><path style="opacity:1" fill="#fd2720" d="M 986.5,703.5 C 986.942,704.231 987.109,705.231 987,706.5C 987.689,705.643 988.522,704.977 989.5,704.5C 998.085,705.085 1006.75,705.085 1015.5,704.5C 983.194,736.473 950.86,768.473 918.5,800.5C 918.631,799.761 918.464,799.094 918,798.5C 917.385,800.116 916.385,801.449 915,802.5C 907.667,801.167 900.333,801.167 893,802.5C 891.955,801.627 891.122,800.627 890.5,799.5C 922.167,767.167 954.167,735.167 986.5,703.5 Z"/></g>
<g><path style="opacity:1" fill="#fd231e" d="M 1185.5,701.5 C 1207.93,727.513 1218.27,757.846 1216.5,792.5C 1215.68,794.969 1215.18,797.635 1215,800.5C 1214.33,797.833 1213.67,797.833 1213,800.5C 1212.33,797.833 1211.67,797.833 1211,800.5C 1210.33,797.833 1209.67,797.833 1209,800.5C 1208.33,797.833 1207.67,797.833 1207,800.5C 1206.33,797.833 1205.67,797.833 1205,800.5C 1204.33,797.833 1203.67,797.833 1203,800.5C 1202.33,797.833 1201.67,797.833 1201,800.5C 1200.33,797.833 1199.67,797.833 1199,800.5C 1198.33,797.833 1197.67,797.833 1197,800.5C 1196.72,799.584 1196.22,798.918 1195.5,798.5C 1198.23,763.008 1187.23,732.675 1162.5,707.5C 1163.24,707.631 1163.91,707.464 1164.5,707C 1162.79,705.867 1162.29,704.367 1163,702.5C 1164.39,706.272 1165.39,706.272 1166,702.5C 1167.39,706.272 1168.39,706.272 1169,702.5C 1170.39,706.272 1171.39,706.272 1172,702.5C 1173.39,706.272 1174.39,706.272 1175,702.5C 1176.39,706.272 1177.39,706.272 1178,702.5C 1179.39,706.272 1180.39,706.272 1181,702.5C 1182.39,706.272 1183.39,706.272 1184,702.5C 1186.4,706.402 1186.9,706.068 1185.5,701.5 Z"/></g>
<g><path style="opacity:1" fill="#7a70a4" d="M 1574.5,738.5 C 1577.03,739.736 1579.53,741.069 1582,742.5C 1582.33,741.833 1582.67,741.167 1583,740.5C 1583.28,741.416 1583.78,742.082 1584.5,742.5C 1586.93,748.478 1588.27,754.811 1588.5,761.5C 1588.01,762.473 1587.51,763.473 1587,764.5C 1585.67,764.5 1584.33,764.5 1583,764.5C 1582.33,761.833 1581.67,761.833 1581,764.5C 1580.62,763.944 1580.12,763.611 1579.5,763.5C 1578.22,755.091 1576.55,746.758 1574.5,738.5 Z"/></g>
<g><path style="opacity:1" fill="#7970a6" d="M 1437.5,729.5 C 1438.79,730.29 1439.96,731.29 1441,732.5C 1442.94,731.484 1445.11,731.151 1447.5,731.5C 1441.67,741.501 1436.67,751.834 1432.5,762.5C 1431.66,761.991 1431.16,762.657 1431,764.5C 1429.67,764.5 1428.33,764.5 1427,764.5C 1426.33,761.833 1425.67,761.833 1425,764.5C 1423.96,763.756 1423.46,762.756 1423.5,761.5C 1426.83,750.154 1431.5,739.488 1437.5,729.5 Z"/></g>
<g><path style="opacity:1" fill="#fe201d" d="M 1150.5,752.5 C 1156.96,762.422 1159.62,773.422 1158.5,785.5C 1158.82,802.181 1153.99,817.181 1144,830.5C 1123.5,851 1103,871.5 1082.5,892C 1080.23,891.923 1078.56,890.757 1077.5,888.5C 1077.08,886.55 1076.74,884.55 1076.5,882.5C 1077.67,880.167 1078.83,877.833 1080,875.5C 1080.33,876.167 1080.67,876.833 1081,877.5C 1087.53,867.103 1093.53,855.103 1099,841.5C 1099.33,842.167 1099.67,842.833 1100,843.5C 1102.45,836.596 1105.45,829.93 1109,823.5C 1109.33,824.167 1109.67,824.833 1110,825.5C 1112.81,818.75 1115.81,812.083 1119,805.5C 1119.33,806.167 1119.67,806.833 1120,807.5C 1122.95,799.998 1126.28,792.665 1130,785.5C 1130.33,786.167 1130.67,786.833 1131,787.5C 1133.45,780.596 1136.45,773.93 1140,767.5C 1140.33,768.167 1140.67,768.833 1141,769.5C 1143,764.833 1145,760.167 1147,755.5C 1148.62,754.461 1149.78,753.461 1150.5,752.5 Z"/></g>
<g><path style="opacity:1" fill="#8070a2" d="M 1409.5,730.5 C 1412.07,745.352 1412.07,760.352 1409.5,775.5C 1408.78,775.082 1408.28,774.416 1408,773.5C 1407.67,774.167 1407.33,774.833 1407,775.5C 1406.33,774.167 1405.67,774.167 1405,775.5C 1404.09,774.672 1403.42,773.672 1403,772.5C 1402.58,773.672 1401.91,774.672 1401,775.5C 1400.6,775.272 1400.43,774.938 1400.5,774.5C 1401.78,760.153 1401.78,745.82 1400.5,731.5C 1401.82,730.047 1402.66,730.381 1403,732.5C 1403.67,729.833 1404.33,729.833 1405,732.5C 1406.15,730.043 1407.49,730.043 1409,732.5C 1409.46,731.906 1409.63,731.239 1409.5,730.5 Z"/></g>
<g><path style="opacity:1" fill="#8070a2" d="M 1747.5,730.5 C 1750.07,745.352 1750.07,760.352 1747.5,775.5C 1746.78,775.082 1746.28,774.416 1746,773.5C 1745.67,774.167 1745.33,774.833 1745,775.5C 1744.33,774.167 1743.67,774.167 1743,775.5C 1742.09,774.672 1741.42,773.672 1741,772.5C 1740.58,773.672 1739.91,774.672 1739,775.5C 1738.6,775.272 1738.43,774.938 1738.5,774.5C 1739.78,760.153 1739.78,745.82 1738.5,731.5C 1739.82,730.047 1740.66,730.381 1741,732.5C 1741.67,729.833 1742.33,729.833 1743,732.5C 1744.15,730.043 1745.49,730.043 1747,732.5C 1747.46,731.906 1747.63,731.239 1747.5,730.5 Z"/></g>
<g><path style="opacity:1" fill="#89719e" d="M 1272.5,739.5 C 1272.37,740.239 1272.54,740.906 1273,741.5C 1275.8,740.321 1278.63,740.321 1281.5,741.5C 1279.54,755.441 1277.88,769.441 1276.5,783.5C 1275.54,783.047 1274.71,782.381 1274,781.5C 1273.26,782.641 1272.43,782.641 1271.5,781.5C 1270.81,782.025 1270.31,782.692 1270,783.5C 1269.3,781.273 1268.13,780.94 1266.5,782.5C 1268.07,767.971 1270.07,753.638 1272.5,739.5 Z"/></g>
<g><path style="opacity:1" fill="#89719e" d="M 1610.5,739.5 C 1610.37,740.239 1610.54,740.906 1611,741.5C 1613.8,740.321 1616.63,740.321 1619.5,741.5C 1617.54,755.441 1615.88,769.441 1614.5,783.5C 1613.54,783.047 1612.71,782.381 1612,781.5C 1611.26,782.641 1610.43,782.641 1609.5,781.5C 1608.81,782.025 1608.31,782.692 1608,783.5C 1607.3,781.273 1606.13,780.94 1604.5,782.5C 1606.07,767.971 1608.07,753.638 1610.5,739.5 Z"/></g>
<g><path style="opacity:1" fill="#976c92" d="M 1409.5,775.5 C 1408.56,783.237 1406.56,790.571 1403.5,797.5C 1402.07,797.881 1401.24,798.881 1401,800.5C 1400.64,797.456 1399.97,797.122 1399,799.5C 1398.33,796.833 1397.67,796.833 1397,799.5C 1396.03,797.122 1395.36,797.456 1395,800.5C 1394.72,799.584 1394.22,798.918 1393.5,798.5C 1396.27,790.522 1398.61,782.522 1400.5,774.5C 1400.43,774.938 1400.6,775.272 1401,775.5C 1401.91,774.672 1402.58,773.672 1403,772.5C 1403.42,773.672 1404.09,774.672 1405,775.5C 1405.67,774.167 1406.33,774.167 1407,775.5C 1407.33,774.833 1407.67,774.167 1408,773.5C 1408.28,774.416 1408.78,775.082 1409.5,775.5 Z"/></g>
<g><path style="opacity:1" fill="#976c92" d="M 1747.5,775.5 C 1746.56,783.237 1744.56,790.571 1741.5,797.5C 1740.07,797.881 1739.24,798.881 1739,800.5C 1738.64,797.456 1737.97,797.122 1737,799.5C 1736.33,796.833 1735.67,796.833 1735,799.5C 1734.03,797.122 1733.36,797.456 1733,800.5C 1732.72,799.584 1732.22,798.918 1731.5,798.5C 1734.27,790.522 1736.61,782.522 1738.5,774.5C 1738.43,774.938 1738.6,775.272 1739,775.5C 1739.91,774.672 1740.58,773.672 1741,772.5C 1741.42,773.672 1742.09,774.672 1743,775.5C 1743.67,774.167 1744.33,774.167 1745,775.5C 1745.33,774.833 1745.67,774.167 1746,773.5C 1746.28,774.416 1746.78,775.082 1747.5,775.5 Z"/></g>
<g><path style="opacity:1" fill="#976d93" d="M 1475.5,775.5 C 1473.19,783.416 1471.19,791.416 1469.5,799.5C 1468.78,799.082 1468.28,798.416 1468,797.5C 1467.33,801.5 1466.67,801.5 1466,797.5C 1465.33,800.167 1464.67,800.167 1464,797.5C 1463.33,800.167 1462.67,800.167 1462,797.5C 1460.51,798.253 1460.35,799.086 1461.5,800C 1460.91,800.464 1460.24,800.631 1459.5,800.5C 1460.77,791.751 1463.1,783.417 1466.5,775.5C 1467.75,775.423 1468.58,774.756 1469,773.5C 1469.33,774.167 1469.67,774.833 1470,775.5C 1470.67,772.833 1471.33,772.833 1472,775.5C 1472.67,772.833 1473.33,772.833 1474,775.5C 1474.78,772.903 1475.28,772.903 1475.5,775.5 Z"/></g>
<g><path style="opacity:1" fill="#9e6c8e" d="M 1276.5,783.5 C 1275.34,791.475 1274.34,799.475 1273.5,807.5C 1272.78,807.918 1272.28,808.584 1272,809.5C 1271.03,807.122 1270.36,807.456 1270,810.5C 1269.33,806.5 1268.67,806.5 1268,810.5C 1267.09,806.815 1266.42,807.148 1266,811.5C 1265.67,810.167 1265.33,808.833 1265,807.5C 1264.62,808.056 1264.12,808.389 1263.5,808.5C 1264.94,799.891 1265.94,791.224 1266.5,782.5C 1268.13,780.94 1269.3,781.273 1270,783.5C 1270.31,782.692 1270.81,782.025 1271.5,781.5C 1272.43,782.641 1273.26,782.641 1274,781.5C 1274.71,782.381 1275.54,783.047 1276.5,783.5 Z"/></g>
<g><path style="opacity:1" fill="#996c91" d="M 1323.5,765.5 C 1322.83,774.167 1322.17,782.833 1321.5,791.5C 1341.52,795.197 1352.85,787.197 1355.5,767.5C 1355.35,768.552 1355.52,769.552 1356,770.5C 1358.7,770.809 1361.53,770.476 1364.5,769.5C 1363.26,787.901 1353.59,798.401 1335.5,801C 1327.17,801.5 1318.84,801.666 1310.5,801.5C 1311.19,789.287 1312.52,777.287 1314.5,765.5C 1315.27,764.737 1315.77,763.737 1316,762.5C 1316.33,763.167 1316.67,763.833 1317,764.5C 1318.33,764.5 1319.67,764.5 1321,764.5C 1322.22,762.143 1323.05,762.476 1323.5,765.5 Z"/></g>
<g><path style="opacity:1" fill="#986f94" d="M 1423.5,761.5 C 1423.46,762.756 1423.96,763.756 1425,764.5C 1425.67,761.833 1426.33,761.833 1427,764.5C 1428.33,764.5 1429.67,764.5 1431,764.5C 1431.16,762.657 1431.66,761.991 1432.5,762.5C 1429.17,774.217 1426.17,785.883 1423.5,797.5C 1422.25,797.577 1421.42,798.244 1421,799.5C 1420.33,796.833 1419.67,796.833 1419,799.5C 1418.03,797.122 1417.36,797.456 1417,800.5C 1416.67,799.5 1416.33,798.5 1416,797.5C 1415.88,799.437 1415.05,800.77 1413.5,801.5C 1415.3,787.651 1418.63,774.318 1423.5,761.5 Z"/></g>
<g><path style="opacity:1" fill="#986c91" d="M 1542.5,772.5 C 1543.49,781.318 1543.83,790.318 1543.5,799.5C 1542.78,799.082 1542.28,798.416 1542,797.5C 1541.33,801.5 1540.67,801.5 1540,797.5C 1539.33,800.167 1538.67,800.167 1538,797.5C 1537.37,799.991 1536.54,799.991 1535.5,797.5C 1534.82,797.863 1534.15,798.196 1533.5,798.5C 1533.5,790.5 1533.5,782.5 1533.5,774.5C 1535.72,775.598 1537.89,775.598 1540,774.5C 1542.16,776.956 1542.99,776.29 1542.5,772.5 Z"/></g>
<g><path style="opacity:1" fill="#976d93" d="M 1588.5,761.5 C 1589.83,774.5 1589.83,787.5 1588.5,800.5C 1588.59,797.402 1588.09,797.068 1587,799.5C 1586.03,797.122 1585.36,797.456 1585,800.5C 1584.64,797.456 1583.97,797.122 1583,799.5C 1582.33,796.833 1581.67,796.833 1581,799.5C 1580.72,798.584 1580.22,797.918 1579.5,797.5C 1579.5,786.167 1579.5,774.833 1579.5,763.5C 1580.12,763.611 1580.62,763.944 1581,764.5C 1581.67,761.833 1582.33,761.833 1583,764.5C 1584.33,764.5 1585.67,764.5 1587,764.5C 1587.51,763.473 1588.01,762.473 1588.5,761.5 Z"/></g>
<g><path style="opacity:1" fill="#9e6c8e" d="M 1614.5,783.5 C 1613.34,791.475 1612.34,799.475 1611.5,807.5C 1610.78,807.918 1610.28,808.584 1610,809.5C 1609.03,807.122 1608.36,807.456 1608,810.5C 1607.33,806.5 1606.67,806.5 1606,810.5C 1605.09,806.815 1604.42,807.148 1604,811.5C 1603.67,810.167 1603.33,808.833 1603,807.5C 1602.62,808.056 1602.12,808.389 1601.5,808.5C 1602.94,799.891 1603.94,791.224 1604.5,782.5C 1606.13,780.94 1607.3,781.273 1608,783.5C 1608.31,782.692 1608.81,782.025 1609.5,781.5C 1610.43,782.641 1611.26,782.641 1612,781.5C 1612.71,782.381 1613.54,783.047 1614.5,783.5 Z"/></g>
<g><path style="opacity:1" fill="#996c91" d="M 1661.5,765.5 C 1660.83,774.167 1660.17,782.833 1659.5,791.5C 1679.52,795.197 1690.85,787.197 1693.5,767.5C 1693.35,768.552 1693.52,769.552 1694,770.5C 1696.7,770.809 1699.53,770.476 1702.5,769.5C 1701.26,787.901 1691.59,798.401 1673.5,801C 1665.17,801.5 1656.84,801.666 1648.5,801.5C 1649.19,789.287 1650.52,777.287 1652.5,765.5C 1653.27,764.737 1653.77,763.737 1654,762.5C 1654.33,763.167 1654.67,763.833 1655,764.5C 1656.33,764.5 1657.67,764.5 1659,764.5C 1660.22,762.143 1661.05,762.476 1661.5,765.5 Z"/></g>
<g><path style="opacity:1" fill="#ad6882" d="M 1423.5,797.5 C 1422.49,806.307 1421.49,814.974 1420.5,823.5C 1420.52,819.623 1419.35,818.957 1417,821.5C 1416.69,820.692 1416.19,820.025 1415.5,819.5C 1414.38,820.63 1413.04,821.297 1411.5,821.5C 1411.51,814.749 1412.18,808.082 1413.5,801.5C 1415.05,800.77 1415.88,799.437 1416,797.5C 1416.33,798.5 1416.67,799.5 1417,800.5C 1417.36,797.456 1418.03,797.122 1419,799.5C 1419.67,796.833 1420.33,796.833 1421,799.5C 1421.42,798.244 1422.25,797.577 1423.5,797.5 Z"/></g>
<g><path style="opacity:1" fill="#ab6681" d="M 1469.5,799.5 C 1468.39,807.152 1467.39,814.819 1466.5,822.5C 1465.73,821.34 1464.73,820.34 1463.5,819.5C 1462.46,821.991 1461.63,821.991 1461,819.5C 1460.67,819.833 1460.33,820.167 1460,820.5C 1459.29,819.619 1458.46,818.953 1457.5,818.5C 1457.78,812.453 1458.44,806.453 1459.5,800.5C 1460.24,800.631 1460.91,800.464 1461.5,800C 1460.35,799.086 1460.51,798.253 1462,797.5C 1462.67,800.167 1463.33,800.167 1464,797.5C 1464.67,800.167 1465.33,800.167 1466,797.5C 1466.67,801.5 1467.33,801.5 1468,797.5C 1468.28,798.416 1468.78,799.082 1469.5,799.5 Z"/></g>
<g><path style="opacity:1" fill="#ac6782" d="M 1579.5,797.5 C 1580.22,797.918 1580.72,798.584 1581,799.5C 1581.67,796.833 1582.33,796.833 1583,799.5C 1583.97,797.122 1584.64,797.456 1585,800.5C 1585.36,797.456 1586.03,797.122 1587,799.5C 1588.09,797.068 1588.59,797.402 1588.5,800.5C 1588.48,807.374 1587.81,814.041 1586.5,820.5C 1585.18,819.047 1584.34,819.381 1584,821.5C 1582.31,818.978 1580.98,819.311 1580,822.5C 1579.67,821.833 1579.33,821.167 1579,820.5C 1578.29,821.381 1577.46,822.047 1576.5,822.5C 1577.86,814.226 1578.86,805.893 1579.5,797.5 Z"/></g>
<g><path style="opacity:1" fill="#ac6882" d="M 1403.5,797.5 C 1401.35,806.79 1397.35,815.124 1391.5,822.5C 1391.65,821.448 1391.48,820.448 1391,819.5C 1390.26,820.641 1389.43,820.641 1388.5,819.5C 1387.75,820.376 1387.25,821.376 1387,822.5C 1386.75,821.376 1386.25,820.376 1385.5,819.5C 1383.89,819.389 1382.22,819.722 1380.5,820.5C 1385.85,813.794 1390.19,806.46 1393.5,798.5C 1394.22,798.918 1394.72,799.584 1395,800.5C 1395.36,797.456 1396.03,797.122 1397,799.5C 1397.67,796.833 1398.33,796.833 1399,799.5C 1399.97,797.122 1400.64,797.456 1401,800.5C 1401.24,798.881 1402.07,797.881 1403.5,797.5 Z"/></g>
<g><path style="opacity:1" fill="#ad6882" d="M 1543.5,799.5 C 1542.91,807.024 1541.91,814.358 1540.5,821.5C 1538.82,821.868 1537.16,821.202 1535.5,819.5C 1534.4,823.361 1533.57,823.361 1533,819.5C 1532.88,821.437 1532.05,822.77 1530.5,823.5C 1532.15,815.256 1533.15,806.923 1533.5,798.5C 1534.15,798.196 1534.82,797.863 1535.5,797.5C 1536.54,799.991 1537.37,799.991 1538,797.5C 1538.67,800.167 1539.33,800.167 1540,797.5C 1540.67,801.5 1541.33,801.5 1542,797.5C 1542.28,798.416 1542.78,799.082 1543.5,799.5 Z"/></g>
<g><path style="opacity:1" fill="#ac6782" d="M 1741.5,797.5 C 1739.21,806.748 1735.21,815.081 1729.5,822.5C 1729.65,821.448 1729.48,820.448 1729,819.5C 1728.26,820.641 1727.43,820.641 1726.5,819.5C 1725.75,820.376 1725.25,821.376 1725,822.5C 1724.75,821.376 1724.25,820.376 1723.5,819.5C 1721.89,819.389 1720.22,819.722 1718.5,820.5C 1723.85,813.794 1728.19,806.46 1731.5,798.5C 1732.22,798.918 1732.72,799.584 1733,800.5C 1733.36,797.456 1734.03,797.122 1735,799.5C 1735.67,796.833 1736.33,796.833 1737,799.5C 1737.97,797.122 1738.64,797.456 1739,800.5C 1739.24,798.881 1740.07,797.881 1741.5,797.5 Z"/></g>
<g><path style="opacity:1" fill="#fc342e" d="M 1216.5,792.5 C 1215.47,813.216 1209.8,832.55 1199.5,850.5C 1196.65,850.809 1195.15,852.475 1195,855.5C 1194.33,851.5 1193.67,851.5 1193,855.5C 1192.33,851.5 1191.67,851.5 1191,855.5C 1190.33,851.5 1189.67,851.5 1189,855.5C 1188.33,851.5 1187.67,851.5 1187,855.5C 1186.33,851.5 1185.67,851.5 1185,855.5C 1184.33,851.5 1183.67,851.5 1183,855.5C 1182.33,851.5 1181.67,851.5 1181,855.5C 1180.33,851.5 1179.67,851.5 1179,855.5C 1178.43,851.639 1177.6,851.639 1176.5,855.5C 1175.42,853.189 1175.42,850.856 1176.5,848.5C 1186.23,833.047 1192.57,816.381 1195.5,798.5C 1196.22,798.918 1196.72,799.584 1197,800.5C 1197.67,797.833 1198.33,797.833 1199,800.5C 1199.67,797.833 1200.33,797.833 1201,800.5C 1201.67,797.833 1202.33,797.833 1203,800.5C 1203.67,797.833 1204.33,797.833 1205,800.5C 1205.67,797.833 1206.33,797.833 1207,800.5C 1207.67,797.833 1208.33,797.833 1209,800.5C 1209.67,797.833 1210.33,797.833 1211,800.5C 1211.67,797.833 1212.33,797.833 1213,800.5C 1213.67,797.833 1214.33,797.833 1215,800.5C 1215.18,797.635 1215.68,794.969 1216.5,792.5 Z"/></g>
<g><path style="opacity:1" fill="#2b63ba" d="M 985.5,829.5 C 984.831,879.902 984.164,930.402 983.5,981C 983.728,981.399 984.062,981.565 984.5,981.5C 980.026,984.43 975.026,985.763 969.5,985.5C 967.473,985.662 965.473,985.495 963.5,985C 964.832,938.402 964.832,891.902 963.5,845.5C 965.168,843.66 966.668,841.66 968,839.5C 969.622,830.21 965.789,826.71 956.5,829C 954.297,831.372 951.963,833.539 949.5,835.5C 947.402,831.468 947.402,827.134 949.5,822.5C 954.13,817.369 958.963,812.369 964,807.5C 971.369,814.702 978.536,822.035 985.5,829.5 Z"/></g>
<g><path style="opacity:1" fill="#bc6173" d="M 1540.5,821.5 C 1540.04,827.814 1538.71,833.814 1536.5,839.5C 1535.54,839.047 1534.71,838.381 1534,837.5C 1533.33,840.167 1532.67,840.167 1532,837.5C 1531.33,838.167 1530.67,838.833 1530,839.5C 1529.33,838.748 1528.5,838.414 1527.5,838.5C 1528.96,833.622 1529.96,828.622 1530.5,823.5C 1532.05,822.77 1532.88,821.437 1533,819.5C 1533.57,823.361 1534.4,823.361 1535.5,819.5C 1537.16,821.202 1538.82,821.868 1540.5,821.5 Z"/></g>
<g><path style="opacity:1" fill="#b86378" d="M 1273.5,807.5 C 1272.33,818.202 1271,828.869 1269.5,839.5C 1268.56,836.875 1267.39,836.875 1266,839.5C 1264.69,837.109 1263.69,837.109 1263,839.5C 1262.66,837.381 1261.82,837.047 1260.5,838.5C 1261.1,828.457 1262.1,818.457 1263.5,808.5C 1264.12,808.389 1264.62,808.056 1265,807.5C 1265.33,808.833 1265.67,810.167 1266,811.5C 1266.42,807.148 1267.09,806.815 1268,810.5C 1268.67,806.5 1269.33,806.5 1270,810.5C 1270.36,807.456 1271.03,807.122 1272,809.5C 1272.28,808.584 1272.78,807.918 1273.5,807.5 Z"/></g>
<g><path style="opacity:1" fill="#bd6375" d="M 1391.5,822.5 C 1386.4,830.265 1379.74,836.265 1371.5,840.5C 1370.38,837.721 1369.22,837.388 1368,839.5C 1367.31,837.109 1366.31,837.109 1365,839.5C 1363.69,837.109 1362.69,837.109 1362,839.5C 1361.64,836.456 1360.97,836.122 1360,838.5C 1359.72,837.584 1359.22,836.918 1358.5,836.5C 1366.86,832.646 1374.19,827.312 1380.5,820.5C 1382.22,819.722 1383.89,819.389 1385.5,819.5C 1386.25,820.376 1386.75,821.376 1387,822.5C 1387.25,821.376 1387.75,820.376 1388.5,819.5C 1389.43,820.641 1390.26,820.641 1391,819.5C 1391.48,820.448 1391.65,821.448 1391.5,822.5 Z"/></g>
<g><path style="opacity:1" fill="#bc6375" d="M 1586.5,820.5 C 1586.39,826.356 1585.39,832.022 1583.5,837.5C 1582.78,837.918 1582.28,838.584 1582,839.5C 1581.31,837.109 1580.31,837.109 1579,839.5C 1577.69,837.109 1576.69,837.109 1576,839.5C 1575.67,838.833 1575.33,838.167 1575,837.5C 1574.72,838.416 1574.22,839.082 1573.5,839.5C 1575.04,833.94 1576.04,828.274 1576.5,822.5C 1577.46,822.047 1578.29,821.381 1579,820.5C 1579.33,821.167 1579.67,821.833 1580,822.5C 1580.98,819.311 1582.31,818.978 1584,821.5C 1584.34,819.381 1585.18,819.047 1586.5,820.5 Z"/></g>
<g><path style="opacity:1" fill="#b86378" d="M 1611.5,807.5 C 1610.33,818.202 1609,828.869 1607.5,839.5C 1606.56,836.875 1605.39,836.875 1604,839.5C 1602.69,837.109 1601.69,837.109 1601,839.5C 1600.66,837.381 1599.82,837.047 1598.5,838.5C 1599.1,828.457 1600.1,818.457 1601.5,808.5C 1602.12,808.389 1602.62,808.056 1603,807.5C 1603.33,808.833 1603.67,810.167 1604,811.5C 1604.42,807.148 1605.09,806.815 1606,810.5C 1606.67,806.5 1607.33,806.5 1608,810.5C 1608.36,807.456 1609.03,807.122 1610,809.5C 1610.28,808.584 1610.78,807.918 1611.5,807.5 Z"/></g>
<g><path style="opacity:1" fill="#bd6375" d="M 1729.5,822.5 C 1724.4,830.265 1717.74,836.265 1709.5,840.5C 1708.38,837.721 1707.22,837.388 1706,839.5C 1705.31,837.109 1704.31,837.109 1703,839.5C 1701.69,837.109 1700.69,837.109 1700,839.5C 1699.64,836.456 1698.97,836.122 1698,838.5C 1697.72,837.584 1697.22,836.918 1696.5,836.5C 1704.86,832.646 1712.19,827.312 1718.5,820.5C 1720.22,819.722 1721.89,819.389 1723.5,819.5C 1724.25,820.376 1724.75,821.376 1725,822.5C 1725.25,821.376 1725.75,820.376 1726.5,819.5C 1727.43,820.641 1728.26,820.641 1729,819.5C 1729.48,820.448 1729.65,821.448 1729.5,822.5 Z"/></g>
<g><path style="opacity:1" fill="#89aada" d="M 963.5,845.5 C 957.221,851.113 951.221,857.113 945.5,863.5C 943.833,864.833 942.167,866.167 940.5,867.5C 940.909,860.594 941.575,853.761 942.5,847C 942.167,846.667 941.833,846.333 941.5,846C 943.825,843.709 946.158,841.376 948.5,839C 948.272,838.601 947.938,838.435 947.5,838.5C 948.167,837.5 948.833,836.5 949.5,835.5C 951.963,833.539 954.297,831.372 956.5,829C 965.789,826.71 969.622,830.21 968,839.5C 966.668,841.66 965.168,843.66 963.5,845.5 Z"/></g>
<g><path style="opacity:1" fill="#fc3530" d="M 918.5,800.5 C 904.556,814.944 890.39,829.278 876,843.5C 873.055,847.751 869.888,851.751 866.5,855.5C 859.5,855.5 852.5,855.5 845.5,855.5C 845.5,854.167 845.5,852.833 845.5,851.5C 849.159,844.853 853.326,838.519 858,832.5C 868.339,820.995 879.172,809.995 890.5,799.5C 891.122,800.627 891.955,801.627 893,802.5C 900.333,801.167 907.667,801.167 915,802.5C 916.385,801.449 917.385,800.116 918,798.5C 918.464,799.094 918.631,799.761 918.5,800.5 Z"/></g>
<g><path style="opacity:1" fill="#c65a69" d="M 1358.5,836.5 C 1359.22,836.918 1359.72,837.584 1360,838.5C 1360.97,836.122 1361.64,836.456 1362,839.5C 1362.69,837.109 1363.69,837.109 1365,839.5C 1366.31,837.109 1367.31,837.109 1368,839.5C 1369.22,837.388 1370.38,837.721 1371.5,840.5C 1353.25,849.615 1333.91,852.948 1313.5,850.5C 1313.81,854.042 1313.48,857.375 1312.5,860.5C 1311.78,860.918 1311.28,861.584 1311,862.5C 1309.67,862.5 1308.33,862.5 1307,862.5C 1306.67,861.833 1306.33,861.167 1306,860.5C 1304.84,861.338 1303.68,862.338 1302.5,863.5C 1303.92,855.896 1304.92,848.229 1305.5,840.5C 1317.84,840.667 1330.17,840.5 1342.5,840C 1347.87,838.932 1353.2,837.766 1358.5,836.5 Z"/></g>
<g><path style="opacity:1" fill="#c65a69" d="M 1696.5,836.5 C 1697.22,836.918 1697.72,837.584 1698,838.5C 1698.97,836.122 1699.64,836.456 1700,839.5C 1700.69,837.109 1701.69,837.109 1703,839.5C 1704.31,837.109 1705.31,837.109 1706,839.5C 1707.22,837.388 1708.38,837.721 1709.5,840.5C 1691.25,849.615 1671.91,852.948 1651.5,850.5C 1651.69,854.566 1651.36,858.566 1650.5,862.5C 1649.6,861.402 1648.77,861.402 1648,862.5C 1647.33,859.833 1646.67,859.833 1646,862.5C 1645,862.167 1644,861.833 1643,861.5C 1642.15,862.571 1641.31,863.571 1640.5,864.5C 1641.86,856.553 1642.86,848.553 1643.5,840.5C 1655.84,840.667 1668.17,840.5 1680.5,840C 1685.87,838.932 1691.2,837.766 1696.5,836.5 Z"/></g>
<g><path style="opacity:1" fill="#c65c6a" d="M 1269.5,839.5 C 1269.28,845.36 1268.62,851.027 1267.5,856.5C 1267.71,854.856 1267.38,853.356 1266.5,852C 1264.24,851.764 1262.07,851.264 1260,850.5C 1259.72,851.416 1259.22,852.082 1258.5,852.5C 1258.95,847.763 1259.62,843.097 1260.5,838.5C 1261.82,837.047 1262.66,837.381 1263,839.5C 1263.69,837.109 1264.69,837.109 1266,839.5C 1267.39,836.875 1268.56,836.875 1269.5,839.5 Z"/></g>
<g><path style="opacity:1" fill="#c25d6d" d="M 1420.5,823.5 C 1420.5,833.167 1420.5,842.833 1420.5,852.5C 1417.99,851.887 1415.49,851.22 1413,850.5C 1411.65,852.594 1411.15,854.927 1411.5,857.5C 1410.2,845.628 1410.2,833.628 1411.5,821.5C 1413.04,821.297 1414.38,820.63 1415.5,819.5C 1416.19,820.025 1416.69,820.692 1417,821.5C 1419.35,818.957 1420.52,819.623 1420.5,823.5 Z"/></g>
<g><path style="opacity:1" fill="#c25e6e" d="M 1457.5,818.5 C 1458.46,818.953 1459.29,819.619 1460,820.5C 1460.33,820.167 1460.67,819.833 1461,819.5C 1461.63,821.991 1462.46,821.991 1463.5,819.5C 1464.73,820.34 1465.73,821.34 1466.5,822.5C 1466.3,832.86 1466.63,843.194 1467.5,853.5C 1464.29,851.524 1460.96,850.858 1457.5,851.5C 1456.22,840.359 1456.22,829.359 1457.5,818.5 Z"/></g>
<g><path style="opacity:1" fill="#c65c6a" d="M 1607.5,839.5 C 1607.28,845.36 1606.62,851.027 1605.5,856.5C 1605.71,854.856 1605.38,853.356 1604.5,852C 1602.24,851.764 1600.07,851.264 1598,850.5C 1597.72,851.416 1597.22,852.082 1596.5,852.5C 1596.95,847.763 1597.62,843.097 1598.5,838.5C 1599.82,837.047 1600.66,837.381 1601,839.5C 1601.69,837.109 1602.69,837.109 1604,839.5C 1605.39,836.875 1606.56,836.875 1607.5,839.5 Z"/></g>
<g><path style="opacity:1" fill="#225bb6" d="M 985.5,829.5 C 1012.48,855.812 1039.15,882.479 1065.5,909.5C 1044.01,930.486 1022.68,951.653 1001.5,973C 996.059,976.387 990.392,979.221 984.5,981.5C 984.062,981.565 983.728,981.399 983.5,981C 984.164,930.402 984.831,879.902 985.5,829.5 Z"/></g>
<g><path style="opacity:1" fill="#5987ca" d="M 949.5,822.5 C 947.402,827.134 947.402,831.468 949.5,835.5C 948.833,836.5 948.167,837.5 947.5,838.5C 939.167,846.5 930.833,854.5 922.5,862.5C 921.517,858.702 921.183,854.702 921.5,850.5C 930.5,840.833 939.833,831.5 949.5,822.5 Z"/></g>
<g><path style="opacity:1" fill="#386ebf" d="M 963.5,845.5 C 964.832,891.902 964.832,938.402 963.5,985C 965.473,985.495 967.473,985.662 969.5,985.5C 967.735,986.461 965.735,986.795 963.5,986.5C 958.473,986.497 953.473,986.164 948.5,985.5C 948.667,944.499 948.5,903.499 948,862.5C 947.329,863.252 946.496,863.586 945.5,863.5C 951.221,857.113 957.221,851.113 963.5,845.5 Z"/></g>
<g><path style="opacity:1" fill="#cb5965" d="M 1536.5,839.5 C 1535.01,847.652 1532.34,855.319 1528.5,862.5C 1527.52,859.93 1526.35,859.93 1525,862.5C 1524.33,859.833 1523.67,859.833 1523,862.5C 1521.57,860.069 1520.07,860.069 1518.5,862.5C 1522.06,854.719 1525.06,846.719 1527.5,838.5C 1528.5,838.414 1529.33,838.748 1530,839.5C 1530.67,838.833 1531.33,838.167 1532,837.5C 1532.67,840.167 1533.33,840.167 1534,837.5C 1534.71,838.381 1535.54,839.047 1536.5,839.5 Z"/></g>
<g><path style="opacity:1" fill="#d3555d" d="M 1420.5,852.5 C 1421.09,858.51 1421.76,864.51 1422.5,870.5C 1421.15,869.829 1419.99,869.829 1419,870.5C 1418.09,869.672 1417.42,868.672 1417,867.5C 1416.64,870.544 1415.97,870.878 1415,868.5C 1413.81,869.563 1413.31,870.897 1413.5,872.5C 1412.11,867.731 1411.44,862.731 1411.5,857.5C 1411.15,854.927 1411.65,852.594 1413,850.5C 1415.49,851.22 1417.99,851.887 1420.5,852.5 Z"/></g>
<g><path style="opacity:1" fill="#d3555d" d="M 1467.5,853.5 C 1468.37,858.527 1469.37,863.527 1470.5,868.5C 1470.63,869.239 1470.46,869.906 1470,870.5C 1469.64,867.456 1468.97,867.122 1468,869.5C 1466.2,866.904 1464.87,867.237 1464,870.5C 1463.67,869.5 1463.33,868.5 1463,867.5C 1462.72,868.416 1462.22,869.082 1461.5,869.5C 1459.53,863.688 1458.2,857.688 1457.5,851.5C 1460.96,850.858 1464.29,851.524 1467.5,853.5 Z"/></g>
<g><path style="opacity:1" fill="#d05760" d="M 1583.5,837.5 C 1581.72,848.626 1578.72,859.293 1574.5,869.5C 1572.46,866.662 1570.96,866.995 1570,870.5C 1569.64,867.456 1568.97,867.122 1568,869.5C 1567.67,869.167 1567.33,868.833 1567,868.5C 1566.29,869.381 1565.46,870.047 1564.5,870.5C 1568.11,860.349 1571.11,850.016 1573.5,839.5C 1574.22,839.082 1574.72,838.416 1575,837.5C 1575.33,838.167 1575.67,838.833 1576,839.5C 1576.69,837.109 1577.69,837.109 1579,839.5C 1580.31,837.109 1581.31,837.109 1582,839.5C 1582.28,838.584 1582.78,837.918 1583.5,837.5 Z"/></g>
<g><path style="opacity:1" fill="#477ac5" d="M 963.5,986.5 C 956.578,987.767 949.578,987.434 942.5,985.5C 941.235,984.521 939.901,983.521 938.5,982.5C 938.977,981.522 939.643,980.689 940.5,980C 940.5,944 940.5,908 940.5,872C 939.956,871.283 939.289,870.783 938.5,870.5C 939.167,869.5 939.833,868.5 940.5,867.5C 942.167,866.167 943.833,864.833 945.5,863.5C 946.496,863.586 947.329,863.252 948,862.5C 948.5,903.499 948.667,944.499 948.5,985.5C 953.473,986.164 958.473,986.497 963.5,986.5 Z"/></g>
<g><path style="opacity:1" fill="#a0b9e0" d="M 947.5,838.5 C 947.938,838.435 948.272,838.601 948.5,839C 946.158,841.376 943.825,843.709 941.5,846C 941.833,846.333 942.167,846.667 942.5,847C 941.575,853.761 940.909,860.594 940.5,867.5C 939.833,868.5 939.167,869.5 938.5,870.5C 934.5,873.833 930.833,877.5 927.5,881.5C 916.63,893.404 911.297,907.571 911.5,924C 910.97,938.934 915.303,952.267 924.5,964C 921.578,963.087 919.078,961.254 917,958.5C 914.615,955.621 912.448,952.621 910.5,949.5C 893.055,917.496 897.055,888.496 922.5,862.5C 930.833,854.5 939.167,846.5 947.5,838.5 Z"/></g>
<g><path style="opacity:1" fill="#5384c9" d="M 938.5,870.5 C 939.289,870.783 939.956,871.283 940.5,872C 940.5,908 940.5,944 940.5,980C 939.643,980.689 938.977,981.522 938.5,982.5C 939.901,983.521 941.235,984.521 942.5,985.5C 936.786,984.485 931.453,982.485 926.5,979.5C 928.829,946.983 929.162,914.317 927.5,881.5C 930.833,877.5 934.5,873.833 938.5,870.5 Z"/></g>
<g><path style="opacity:1" fill="#fc3d39" d="M 1176.5,848.5 C 1175.42,850.856 1175.42,853.189 1176.5,855.5C 1177.6,851.639 1178.43,851.639 1179,855.5C 1179.67,851.5 1180.33,851.5 1181,855.5C 1181.67,851.5 1182.33,851.5 1183,855.5C 1183.67,851.5 1184.33,851.5 1185,855.5C 1185.67,851.5 1186.33,851.5 1187,855.5C 1187.67,851.5 1188.33,851.5 1189,855.5C 1189.67,851.5 1190.33,851.5 1191,855.5C 1191.67,851.5 1192.33,851.5 1193,855.5C 1193.67,851.5 1194.33,851.5 1195,855.5C 1195.15,852.475 1196.65,850.809 1199.5,850.5C 1187.07,869.603 1172.07,886.603 1154.5,901.5C 1153.73,900.737 1153.23,899.737 1153,898.5C 1152.33,902.5 1151.67,902.5 1151,898.5C 1150.33,902.5 1149.67,902.5 1149,898.5C 1148.33,902.5 1147.67,902.5 1147,898.5C 1146.33,902.5 1145.67,902.5 1145,898.5C 1144.33,902.5 1143.67,902.5 1143,898.5C 1142.33,902.5 1141.67,902.5 1141,898.5C 1140.33,902.5 1139.67,902.5 1139,898.5C 1138.33,902.5 1137.67,902.5 1137,898.5C 1136.33,902.5 1135.67,902.5 1135,898.5C 1134.67,899.5 1134.33,900.5 1134,901.5C 1133.01,899.553 1132.68,897.553 1133,895.5C 1138.1,890.908 1142.6,885.908 1146.5,880.5C 1156.89,870.109 1166.89,859.442 1176.5,848.5 Z"/></g>
<g><path style="opacity:1" fill="#dd4c51" d="M 1574.5,869.5 C 1573.3,874.895 1571.3,879.895 1568.5,884.5C 1568.63,883.761 1568.46,883.094 1568,882.5C 1567.33,883.833 1566.67,883.833 1566,882.5C 1565.33,885.167 1564.67,885.167 1564,882.5C 1562.55,882.736 1561.05,882.736 1559.5,882.5C 1561.17,878.495 1562.83,874.495 1564.5,870.5C 1565.46,870.047 1566.29,869.381 1567,868.5C 1567.33,868.833 1567.67,869.167 1568,869.5C 1568.97,867.122 1569.64,867.456 1570,870.5C 1570.96,866.995 1572.46,866.662 1574.5,869.5 Z"/></g>
<g><path style="opacity:1" fill="#da5056" d="M 1267.5,856.5 C 1266.75,865.53 1265.75,874.53 1264.5,883.5C 1263.18,882.047 1262.34,882.381 1262,884.5C 1261.31,882.109 1260.31,882.109 1259,884.5C 1258.67,883.833 1258.33,883.167 1258,882.5C 1256.96,883.71 1255.79,884.71 1254.5,885.5C 1255.77,874.487 1257.1,863.487 1258.5,852.5C 1259.22,852.082 1259.72,851.416 1260,850.5C 1262.07,851.264 1264.24,851.764 1266.5,852C 1267.38,853.356 1267.71,854.856 1267.5,856.5 Z"/></g>
<g><path style="opacity:1" fill="#da5056" d="M 1605.5,856.5 C 1604.72,865.527 1603.72,874.527 1602.5,883.5C 1601.18,882.047 1600.34,882.381 1600,884.5C 1599.31,882.109 1598.31,882.109 1597,884.5C 1596.67,883.833 1596.33,883.167 1596,882.5C 1594.96,883.71 1593.79,884.71 1592.5,885.5C 1593.83,874.495 1595.17,863.495 1596.5,852.5C 1597.22,852.082 1597.72,851.416 1598,850.5C 1600.07,851.264 1602.24,851.764 1604.5,852C 1605.38,853.356 1605.71,854.856 1605.5,856.5 Z"/></g>
<g><path style="opacity:1" fill="#81a3d5" d="M 921.5,850.5 C 921.183,854.702 921.517,858.702 922.5,862.5C 897.055,888.496 893.055,917.496 910.5,949.5C 910.755,955.34 910.422,961.34 909.5,967.5C 891.424,950.116 883.924,928.782 887,903.5C 889.453,889.929 895.12,877.929 904,867.5C 909.702,861.63 915.535,855.964 921.5,850.5 Z"/></g>
<g><path style="opacity:1" fill="#e04c50" d="M 1422.5,870.5 C 1423.07,876.355 1424.4,882.022 1426.5,887.5C 1423.53,888.476 1420.7,888.809 1418,888.5C 1417.72,887.584 1417.22,886.918 1416.5,886.5C 1414.66,882.138 1413.66,877.471 1413.5,872.5C 1413.31,870.897 1413.81,869.563 1415,868.5C 1415.97,870.878 1416.64,870.544 1417,867.5C 1417.42,868.672 1418.09,869.672 1419,870.5C 1419.99,869.829 1421.15,869.829 1422.5,870.5 Z"/></g>
<g><path style="opacity:1" fill="#e04a4d" d="M 1528.5,862.5 C 1522.98,878.182 1512.32,888.682 1496.5,894C 1477.99,895.738 1466.33,887.571 1461.5,869.5C 1462.22,869.082 1462.72,868.416 1463,867.5C 1463.33,868.5 1463.67,869.5 1464,870.5C 1464.87,867.237 1466.2,866.904 1468,869.5C 1468.97,867.122 1469.64,867.456 1470,870.5C 1470.46,869.906 1470.63,869.239 1470.5,868.5C 1478.56,886.15 1490.56,889.317 1506.5,878C 1511.13,873.219 1515.13,868.052 1518.5,862.5C 1520.07,860.069 1521.57,860.069 1523,862.5C 1523.67,859.833 1524.33,859.833 1525,862.5C 1526.35,859.93 1527.52,859.93 1528.5,862.5 Z"/></g>
<g><path style="opacity:1" fill="#6390ce" d="M 927.5,881.5 C 929.162,914.317 928.829,946.983 926.5,979.5C 919.953,976.728 914.286,972.728 909.5,967.5C 910.422,961.34 910.755,955.34 910.5,949.5C 912.448,952.621 914.615,955.621 917,958.5C 919.078,961.254 921.578,963.087 924.5,964C 915.303,952.267 910.97,938.934 911.5,924C 911.297,907.571 916.63,893.404 927.5,881.5 Z"/></g>
<g><path style="opacity:1" fill="#e14f52" d="M 1312.5,860.5 C 1311.99,871.616 1310.66,882.616 1308.5,893.5C 1307.54,893.047 1306.71,892.381 1306,891.5C 1304.67,891.5 1303.33,891.5 1302,891.5C 1300.25,893.257 1299.08,895.257 1298.5,897.5C 1299.83,886.167 1301.17,874.833 1302.5,863.5C 1303.68,862.338 1304.84,861.338 1306,860.5C 1306.33,861.167 1306.67,861.833 1307,862.5C 1308.33,862.5 1309.67,862.5 1311,862.5C 1311.28,861.584 1311.78,860.918 1312.5,860.5 Z"/></g>
<g><path style="opacity:1" fill="#e14f52" d="M 1650.5,862.5 C 1649.88,872.937 1648.55,883.27 1646.5,893.5C 1645.54,893.047 1644.71,892.381 1644,891.5C 1642.67,891.5 1641.33,891.5 1640,891.5C 1638.25,893.257 1637.08,895.257 1636.5,897.5C 1637.75,886.488 1639.08,875.488 1640.5,864.5C 1641.31,863.571 1642.15,862.571 1643,861.5C 1644,861.833 1645,862.167 1646,862.5C 1646.67,859.833 1647.33,859.833 1648,862.5C 1648.77,861.402 1649.6,861.402 1650.5,862.5 Z"/></g>
<g><path style="opacity:1" fill="#e84344" d="M 1264.5,883.5 C 1263.83,889.167 1263.17,894.833 1262.5,900.5C 1261.18,899.047 1260.34,899.381 1260,901.5C 1259.33,898.833 1258.67,898.833 1258,901.5C 1257.33,898.833 1256.67,898.833 1256,901.5C 1255.67,900.833 1255.33,900.167 1255,899.5C 1254.62,900.942 1253.79,901.942 1252.5,902.5C 1253.23,896.845 1253.9,891.179 1254.5,885.5C 1255.79,884.71 1256.96,883.71 1258,882.5C 1258.33,883.167 1258.67,883.833 1259,884.5C 1260.31,882.109 1261.31,882.109 1262,884.5C 1262.34,882.381 1263.18,882.047 1264.5,883.5 Z"/></g>
<g><path style="opacity:1" fill="#ea4141" d="M 1416.5,886.5 C 1417.22,886.918 1417.72,887.584 1418,888.5C 1420.7,888.809 1423.53,888.476 1426.5,887.5C 1428.34,894.183 1431.01,900.517 1434.5,906.5C 1433.78,906.918 1433.28,907.584 1433,908.5C 1431.67,904.5 1430.33,904.5 1429,908.5C 1428.33,904.5 1427.67,904.5 1427,908.5C 1425.91,906.068 1425.41,906.402 1425.5,909.5C 1421.16,902.484 1418.16,894.817 1416.5,886.5 Z"/></g>
<g><path style="opacity:1" fill="#e94546" d="M 1559.5,882.5 C 1561.05,882.736 1562.55,882.736 1564,882.5C 1564.67,885.167 1565.33,885.167 1566,882.5C 1566.67,883.833 1567.33,883.833 1568,882.5C 1568.46,883.094 1568.63,883.761 1568.5,884.5C 1566.18,891.153 1562.84,897.153 1558.5,902.5C 1557.88,901.373 1557.04,900.373 1556,899.5C 1553.79,900.082 1551.29,900.415 1548.5,900.5C 1552.68,894.798 1556.35,888.798 1559.5,882.5 Z"/></g>
<g><path style="opacity:1" fill="#e84344" d="M 1602.5,883.5 C 1601.83,889.167 1601.17,894.833 1600.5,900.5C 1599.18,899.047 1598.34,899.381 1598,901.5C 1597.33,898.833 1596.67,898.833 1596,901.5C 1595.33,898.833 1594.67,898.833 1594,901.5C 1593.67,900.833 1593.33,900.167 1593,899.5C 1592.62,900.942 1591.79,901.942 1590.5,902.5C 1591.23,896.845 1591.9,891.179 1592.5,885.5C 1593.79,884.71 1594.96,883.71 1596,882.5C 1596.33,883.167 1596.67,883.833 1597,884.5C 1598.31,882.109 1599.31,882.109 1600,884.5C 1600.34,882.381 1601.18,882.047 1602.5,883.5 Z"/></g>
<g><path style="opacity:1" fill="#fc3e3b" d="M 845.5,851.5 C 845.5,852.833 845.5,854.167 845.5,855.5C 852.5,855.5 859.5,855.5 866.5,855.5C 854.982,875.226 849.315,896.559 849.5,919.5C 848.224,921.562 847.39,923.896 847,926.5C 846.333,921.167 845.667,921.167 845,926.5C 844.333,919.833 843.667,919.833 843,926.5C 842.333,919.833 841.667,919.833 841,926.5C 840.333,919.833 839.667,919.833 839,926.5C 838.333,919.833 837.667,919.833 837,926.5C 836.333,919.833 835.667,919.833 835,926.5C 834.333,919.833 833.667,919.833 833,926.5C 832.667,924.833 832.333,923.167 832,921.5C 831.333,925.5 830.667,925.5 830,921.5C 829.5,915.175 829.334,908.842 829.5,902.5C 830.679,884.094 836.012,867.094 845.5,851.5 Z"/></g>
<g><path style="opacity:1" fill="#f23936" d="M 1558.5,902.5 C 1554.3,910.038 1548.97,916.704 1542.5,922.5C 1542.63,921.761 1542.46,921.094 1542,920.5C 1540.67,920.5 1539.33,920.5 1538,920.5C 1537.33,923.167 1536.67,923.167 1536,920.5C 1534.34,921.166 1532.51,921.166 1530.5,920.5C 1537.42,914.67 1543.42,908.004 1548.5,900.5C 1551.29,900.415 1553.79,900.082 1556,899.5C 1557.04,900.373 1557.88,901.373 1558.5,902.5 Z"/></g>
<g><path style="opacity:1" fill="#f23a37" d="M 1262.5,900.5 C 1261.26,907.187 1261.26,913.854 1262.5,920.5C 1261.25,920.577 1260.42,921.244 1260,922.5C 1259.67,921.833 1259.33,921.167 1259,920.5C 1257.67,920.5 1256.33,920.5 1255,920.5C 1254.72,921.416 1254.22,922.082 1253.5,922.5C 1252.09,919.618 1251.42,916.451 1251.5,913C 1251.8,909.489 1252.14,905.989 1252.5,902.5C 1253.79,901.942 1254.62,900.942 1255,899.5C 1255.33,900.167 1255.67,900.833 1256,901.5C 1256.67,898.833 1257.33,898.833 1258,901.5C 1258.67,898.833 1259.33,898.833 1260,901.5C 1260.34,899.381 1261.18,899.047 1262.5,900.5 Z"/></g>
<g><path style="opacity:1" fill="#f23a37" d="M 1600.5,900.5 C 1599.26,907.187 1599.26,913.854 1600.5,920.5C 1599.25,920.577 1598.42,921.244 1598,922.5C 1597.67,921.833 1597.33,921.167 1597,920.5C 1595.67,920.5 1594.33,920.5 1593,920.5C 1592.72,921.416 1592.22,922.082 1591.5,922.5C 1590.09,919.618 1589.42,916.451 1589.5,913C 1589.8,909.489 1590.14,905.989 1590.5,902.5C 1591.79,901.942 1592.62,900.942 1593,899.5C 1593.33,900.167 1593.67,900.833 1594,901.5C 1594.67,898.833 1595.33,898.833 1596,901.5C 1596.67,898.833 1597.33,898.833 1598,901.5C 1598.34,899.381 1599.18,899.047 1600.5,900.5 Z"/></g>
<g><path style="opacity:1" fill="#f13a37" d="M 1308.5,893.5 C 1308.29,903.243 1306.62,912.576 1303.5,921.5C 1302.18,920.047 1301.34,920.381 1301,922.5C 1300.67,921.833 1300.33,921.167 1300,920.5C 1298.67,920.5 1297.33,920.5 1296,920.5C 1295.58,921.756 1294.75,922.423 1293.5,922.5C 1296.67,914.486 1298.34,906.153 1298.5,897.5C 1299.08,895.257 1300.25,893.257 1302,891.5C 1303.33,891.5 1304.67,891.5 1306,891.5C 1306.71,892.381 1307.54,893.047 1308.5,893.5 Z"/></g>
<g><path style="opacity:1" fill="#f13a37" d="M 1646.5,893.5 C 1646.29,903.243 1644.62,912.576 1641.5,921.5C 1640.18,920.047 1639.34,920.381 1639,922.5C 1638.67,921.833 1638.33,921.167 1638,920.5C 1636.67,920.5 1635.33,920.5 1634,920.5C 1633.58,921.756 1632.75,922.423 1631.5,922.5C 1634.67,914.486 1636.34,906.153 1636.5,897.5C 1637.08,895.257 1638.25,893.257 1640,891.5C 1641.33,891.5 1642.67,891.5 1644,891.5C 1644.71,892.381 1645.54,893.047 1646.5,893.5 Z"/></g>
<g><path style="opacity:1" fill="#fb4542" d="M 1146.5,880.5 C 1142.6,885.908 1138.1,890.908 1133,895.5C 1132.68,897.553 1133.01,899.553 1134,901.5C 1134.33,900.5 1134.67,899.5 1135,898.5C 1135.67,902.5 1136.33,902.5 1137,898.5C 1137.67,902.5 1138.33,902.5 1139,898.5C 1139.67,902.5 1140.33,902.5 1141,898.5C 1141.67,902.5 1142.33,902.5 1143,898.5C 1143.67,902.5 1144.33,902.5 1145,898.5C 1145.67,902.5 1146.33,902.5 1147,898.5C 1147.67,902.5 1148.33,902.5 1149,898.5C 1149.67,902.5 1150.33,902.5 1151,898.5C 1151.67,902.5 1152.33,902.5 1153,898.5C 1153.23,899.737 1153.73,900.737 1154.5,901.5C 1137.17,919.5 1119.5,937.167 1101.5,954.5C 1092.54,954.748 1083.87,954.415 1075.5,953.5C 1081.23,947.778 1086.56,941.778 1091.5,935.5C 1109.5,916.833 1127.83,898.5 1146.5,880.5 Z"/></g>
<g><path style="opacity:1" fill="#f72d2a" d="M 1434.5,906.5 C 1441.76,918.439 1451.76,927.106 1464.5,932.5C 1462.89,933.452 1461.39,933.786 1460,933.5C 1459.33,932.833 1458.67,932.167 1458,931.5C 1454.67,932.833 1451.33,932.833 1448,931.5C 1447.28,932.044 1446.78,932.711 1446.5,933.5C 1437.32,927.329 1430.32,919.329 1425.5,909.5C 1425.41,906.402 1425.91,906.068 1427,908.5C 1427.67,904.5 1428.33,904.5 1429,908.5C 1430.33,904.5 1431.67,904.5 1433,908.5C 1433.28,907.584 1433.78,906.918 1434.5,906.5 Z"/></g>
<g><path style="opacity:1" fill="#fd201b" d="M 1530.5,920.5 C 1532.51,921.166 1534.34,921.166 1536,920.5C 1536.67,923.167 1537.33,923.167 1538,920.5C 1539.33,920.5 1540.67,920.5 1542,920.5C 1542.46,921.094 1542.63,921.761 1542.5,922.5C 1519.74,942.941 1493.4,949.441 1463.5,942C 1457.25,940.208 1451.58,937.374 1446.5,933.5C 1446.78,932.711 1447.28,932.044 1448,931.5C 1451.33,932.833 1454.67,932.833 1458,931.5C 1458.67,932.167 1459.33,932.833 1460,933.5C 1461.39,933.786 1462.89,933.452 1464.5,932.5C 1488.51,939.164 1510.51,935.164 1530.5,920.5 Z"/></g>
<g><path style="opacity:1" fill="#fc231e" d="M 1262.5,920.5 C 1262.92,924.607 1264.42,928.274 1267,931.5C 1278.94,938.243 1287.77,935.243 1293.5,922.5C 1294.75,922.423 1295.58,921.756 1296,920.5C 1297.33,920.5 1298.67,920.5 1300,920.5C 1300.33,921.167 1300.67,921.833 1301,922.5C 1301.34,920.381 1302.18,920.047 1303.5,921.5C 1298.5,939.333 1286.83,946.833 1268.5,944C 1259.4,939.729 1254.4,932.562 1253.5,922.5C 1254.22,922.082 1254.72,921.416 1255,920.5C 1256.33,920.5 1257.67,920.5 1259,920.5C 1259.33,921.167 1259.67,921.833 1260,922.5C 1260.42,921.244 1261.25,920.577 1262.5,920.5 Z"/></g>
<g><path style="opacity:1" fill="#fc231e" d="M 1600.5,920.5 C 1600.92,924.607 1602.42,928.274 1605,931.5C 1616.94,938.243 1625.77,935.243 1631.5,922.5C 1632.75,922.423 1633.58,921.756 1634,920.5C 1635.33,920.5 1636.67,920.5 1638,920.5C 1638.33,921.167 1638.67,921.833 1639,922.5C 1639.34,920.381 1640.18,920.047 1641.5,921.5C 1636.5,939.333 1624.83,946.833 1606.5,944C 1597.4,939.729 1592.4,932.562 1591.5,922.5C 1592.22,922.082 1592.72,921.416 1593,920.5C 1594.33,920.5 1595.67,920.5 1597,920.5C 1597.33,921.167 1597.67,921.833 1598,922.5C 1598.42,921.244 1599.25,920.577 1600.5,920.5 Z"/></g>
<g><path style="opacity:1" fill="#fa4a48" d="M 829.5,902.5 C 829.334,908.842 829.5,915.175 830,921.5C 830.667,925.5 831.333,925.5 832,921.5C 832.333,923.167 832.667,924.833 833,926.5C 833.667,919.833 834.333,919.833 835,926.5C 835.667,919.833 836.333,919.833 837,926.5C 837.667,919.833 838.333,919.833 839,926.5C 839.667,919.833 840.333,919.833 841,926.5C 841.667,919.833 842.333,919.833 843,926.5C 843.667,919.833 844.333,919.833 845,926.5C 845.667,921.167 846.333,921.167 847,926.5C 847.39,923.896 848.224,921.562 849.5,919.5C 850.015,927.259 851.182,934.925 853,942.5C 859.95,965.741 872.45,985.408 890.5,1001.5C 890.587,1004.6 890.087,1004.93 889,1002.5C 888.333,1005.17 887.667,1005.17 887,1002.5C 886.333,1005.17 885.667,1005.17 885,1002.5C 884.333,1005.17 883.667,1005.17 883,1002.5C 882.333,1005.17 881.667,1005.17 881,1002.5C 880.333,1005.17 879.667,1005.17 879,1002.5C 878.333,1005.17 877.667,1005.17 877,1002.5C 876.333,1005.17 875.667,1005.17 875,1002.5C 874.333,1005.17 873.667,1005.17 873,1002.5C 872.333,1005.17 871.667,1005.17 871,1002.5C 870.333,1005.17 869.667,1005.17 869,1002.5C 868.333,1005.17 867.667,1005.17 867,1002.5C 866.768,1003.74 866.268,1004.74 865.5,1005.5C 838,976.669 826,942.335 829.5,902.5 Z"/></g>
<g><path style="opacity:1" fill="#ee6157" d="M 1091.5,935.5 C 1086.56,941.778 1081.23,947.778 1075.5,953.5C 1070.11,958.894 1064.44,963.894 1058.5,968.5C 1069.17,957.167 1080.17,946.167 1091.5,935.5 Z"/></g>
<g><path style="opacity:1" fill="#fa4b48" d="M 1075.5,953.5 C 1083.87,954.415 1092.54,954.748 1101.5,954.5C 1085.5,971.167 1069.17,987.5 1052.5,1003.5C 1051.18,1002.05 1050.34,1002.38 1050,1004.5C 1049.33,1001.83 1048.67,1001.83 1048,1004.5C 1047.33,1001.83 1046.67,1001.83 1046,1004.5C 1045.33,1001.83 1044.67,1001.83 1044,1004.5C 1043.33,1001.83 1042.67,1001.83 1042,1004.5C 1041.33,1001.83 1040.67,1001.83 1040,1004.5C 1039.33,1001.83 1038.67,1001.83 1038,1004.5C 1037.33,1001.83 1036.67,1001.83 1036,1004.5C 1035.33,1001.83 1034.67,1001.83 1034,1004.5C 1033.33,1001.83 1032.67,1001.83 1032,1004.5C 1031.33,1001.83 1030.67,1001.83 1030,1004.5C 1029.33,1001.83 1028.67,1001.83 1028,1004.5C 1027.63,1003.58 1027.13,1002.75 1026.5,1002C 1033.76,995.244 1040.43,988.078 1046.5,980.5C 1050.17,976.167 1054.17,972.167 1058.5,968.5C 1064.44,963.894 1070.11,958.894 1075.5,953.5 Z"/></g>
<g><path style="opacity:1" fill="#5284c9" d="M 1222.5,966.5 C 1241.83,966.5 1261.17,966.5 1280.5,966.5C 1279.8,970.798 1279.47,975.131 1279.5,979.5C 1263.5,979.5 1247.5,979.5 1231.5,979.5C 1230.26,991.509 1228.93,1003.51 1227.5,1015.5C 1240.83,1015.5 1254.17,1015.5 1267.5,1015.5C 1266.71,1019.79 1266.37,1024.12 1266.5,1028.5C 1252.83,1028.5 1239.17,1028.5 1225.5,1028.5C 1223.07,1045.48 1220.74,1062.48 1218.5,1079.5C 1214.83,1079.5 1211.17,1079.5 1207.5,1079.5C 1212.14,1041.78 1217.14,1004.11 1222.5,966.5 Z"/></g>
<g><path style="opacity:1" fill="#5784c7" d="M 1368.5,1046.5 C 1366.67,1050.89 1364.17,1055.23 1361,1059.5C 1360.19,1055.55 1359.69,1055.55 1359.5,1059.5C 1358.51,1054.96 1357.51,1050.29 1356.5,1045.5C 1344.5,1044.17 1332.5,1044.17 1320.5,1045.5C 1315.83,1056.5 1311.17,1067.5 1306.5,1078.5C 1302.5,1079.83 1298.5,1079.83 1294.5,1078.5C 1310.33,1041.5 1326.17,1004.5 1342,967.5C 1346.4,966.533 1350.9,966.2 1355.5,966.5C 1360.02,993.138 1364.35,1019.8 1368.5,1046.5 Z"/></g>
<g><path style="opacity:1" fill="#9179a2" d="M 1469.5,966.5 C 1468,968.258 1467.67,970.091 1468.5,972C 1467.53,973.758 1466.36,974.258 1465,973.5C 1464.19,975.436 1463.69,977.436 1463.5,979.5C 1455.17,979.5 1446.83,979.5 1438.5,979.5C 1436.59,991.767 1435.26,1004.1 1434.5,1016.5C 1437.17,1016.5 1439.83,1016.5 1442.5,1016.5C 1440.92,1019.39 1439.42,1022.39 1438,1025.5C 1437.67,1024.83 1437.33,1024.17 1437,1023.5C 1435.87,1025.35 1435.37,1027.35 1435.5,1029.5C 1434.17,1029.5 1432.83,1029.5 1431.5,1029.5C 1431.7,1031.95 1431.37,1034.28 1430.5,1036.5C 1428.87,1038.86 1427.7,1041.52 1427,1044.5C 1426.67,1043.83 1426.33,1043.17 1426,1042.5C 1423.86,1050.23 1420.69,1056.9 1416.5,1062.5C 1420.59,1030.5 1424.59,998.504 1428.5,966.5C 1442.17,966.5 1455.83,966.5 1469.5,966.5 Z"/></g>
<g><path style="opacity:1" fill="#e04f52" d="M 1566.5,987.5 C 1565.21,986.942 1564.38,985.942 1564,984.5C 1562.63,986.37 1561.47,988.37 1560.5,990.5C 1560.71,991.086 1561.04,991.586 1561.5,992C 1560.3,994.015 1558.97,995.849 1557.5,997.5C 1557.23,992.986 1556.4,988.653 1555,984.5C 1553.71,993.204 1552.55,1001.87 1551.5,1010.5C 1550.07,1010.58 1548.74,1010.25 1547.5,1009.5C 1546.14,1011.01 1545.8,1012.51 1546.5,1014C 1545.75,1015.49 1544.91,1015.65 1544,1014.5C 1543.29,1016.08 1542.46,1017.58 1541.5,1019C 1542.23,1021.09 1541.57,1021.59 1539.5,1020.5C 1542.13,1002.54 1544.46,984.542 1546.5,966.5C 1552.17,966.5 1557.83,966.5 1563.5,966.5C 1564.75,973.461 1565.75,980.461 1566.5,987.5 Z"/></g>
<g><path style="opacity:1" fill="#ff0a05" d="M 1700.5,966.5 C 1705,965.945 1709.16,966.611 1713,968.5C 1719.55,1005.5 1726.05,1042.5 1732.5,1079.5C 1728.17,1079.5 1723.83,1079.5 1719.5,1079.5C 1718.48,1068.06 1716.82,1056.73 1714.5,1045.5C 1702.51,1044.33 1690.51,1044.17 1678.5,1045C 1673.7,1056.09 1669.04,1067.26 1664.5,1078.5C 1660.5,1079.83 1656.5,1079.83 1652.5,1078.5C 1668.51,1041.15 1684.51,1003.81 1700.5,966.5 Z"/></g>
<g><path style="opacity:1" fill="#a9728f" d="M 1469.5,966.5 C 1474.27,966.692 1478.94,967.525 1483.5,969C 1484.94,969.377 1485.94,970.21 1486.5,971.5C 1486.06,971.435 1485.73,971.601 1485.5,972C 1486.36,972.689 1487.02,973.522 1487.5,974.5C 1485.57,979.328 1483.57,983.661 1481.5,987.5C 1477.26,981.187 1471.26,978.521 1463.5,979.5C 1463.69,977.436 1464.19,975.436 1465,973.5C 1466.36,974.258 1467.53,973.758 1468.5,972C 1467.67,970.091 1468,968.258 1469.5,966.5 Z"/></g>
<g><path style="opacity:1" fill="#b66b81" d="M 1486.5,971.5 C 1489.62,974.138 1491.79,977.472 1493,981.5C 1496.51,999.651 1491.01,1014.15 1476.5,1025C 1472.71,1026.15 1469.05,1027.48 1465.5,1029C 1468.74,1030.74 1471.07,1033.24 1472.5,1036.5C 1470.69,1037.35 1469.19,1037.35 1468,1036.5C 1467.38,1037.45 1467.55,1038.28 1468.5,1039C 1466.84,1039.73 1466.34,1040.89 1467,1042.5C 1467.45,1040.07 1468.28,1039.9 1469.5,1042C 1467.84,1044.33 1466.17,1046.17 1464.5,1047.5C 1462.12,1042.41 1459.45,1037.41 1456.5,1032.5C 1457.29,1031.21 1458.29,1030.04 1459.5,1029C 1458.48,1027.95 1458.32,1026.78 1459,1025.5C 1459.81,1027.9 1460.64,1027.73 1461.5,1025C 1460.48,1023.95 1460.32,1022.78 1461,1021.5C 1461.91,1022.65 1462.75,1022.49 1463.5,1021C 1463.17,1020.67 1462.83,1020.33 1462.5,1020C 1463.31,1018.89 1463.97,1017.72 1464.5,1016.5C 1478.61,1011.97 1484.27,1002.31 1481.5,987.5C 1483.57,983.661 1485.57,979.328 1487.5,974.5C 1487.02,973.522 1486.36,972.689 1485.5,972C 1485.73,971.601 1486.06,971.435 1486.5,971.5 Z"/></g>
<g><path style="opacity:1" fill="#fdfdfd" d="M 1463.5,979.5 C 1471.26,978.521 1477.26,981.187 1481.5,987.5C 1484.27,1002.31 1478.61,1011.97 1464.5,1016.5C 1457.17,1016.5 1449.83,1016.5 1442.5,1016.5C 1439.83,1016.5 1437.17,1016.5 1434.5,1016.5C 1435.26,1004.1 1436.59,991.767 1438.5,979.5C 1446.83,979.5 1455.17,979.5 1463.5,979.5 Z"/></g>
<g><path style="opacity:1" fill="#fbfbfd" d="M 1346.5,979.5 C 1349.14,996.388 1351.81,1013.39 1354.5,1030.5C 1345.19,1031.5 1335.86,1031.83 1326.5,1031.5C 1333.73,1014.37 1340.4,997.041 1346.5,979.5 Z"/></g>
<g><path style="opacity:1" fill="#fff8f7" d="M 1704.5,979.5 C 1707.43,996.662 1710.1,1014 1712.5,1031.5C 1703.17,1031.5 1693.83,1031.5 1684.5,1031.5C 1691.36,1014.25 1698.03,996.919 1704.5,979.5 Z"/></g>
<g><path style="opacity:1" fill="#eb4040" d="M 1566.5,987.5 C 1567.17,996.208 1568.17,1004.87 1569.5,1013.5C 1568.78,1013.92 1568.28,1014.58 1568,1015.5C 1567.11,1014.29 1566.27,1014.29 1565.5,1015.5C 1563.15,1019.12 1561.82,1022.79 1561.5,1026.5C 1559.77,1017.02 1558.44,1007.36 1557.5,997.5C 1558.97,995.849 1560.3,994.015 1561.5,992C 1561.04,991.586 1560.71,991.086 1560.5,990.5C 1561.47,988.37 1562.63,986.37 1564,984.5C 1564.38,985.942 1565.21,986.942 1566.5,987.5 Z"/></g>
<g><path style="opacity:1" fill="#f95251" d="M 1046.5,980.5 C 1040.43,988.078 1033.76,995.244 1026.5,1002C 1027.13,1002.75 1027.63,1003.58 1028,1004.5C 1028.67,1001.83 1029.33,1001.83 1030,1004.5C 1030.67,1001.83 1031.33,1001.83 1032,1004.5C 1032.67,1001.83 1033.33,1001.83 1034,1004.5C 1034.67,1001.83 1035.33,1001.83 1036,1004.5C 1036.67,1001.83 1037.33,1001.83 1038,1004.5C 1038.67,1001.83 1039.33,1001.83 1040,1004.5C 1040.67,1001.83 1041.33,1001.83 1042,1004.5C 1042.67,1001.83 1043.33,1001.83 1044,1004.5C 1044.67,1001.83 1045.33,1001.83 1046,1004.5C 1046.67,1001.83 1047.33,1001.83 1048,1004.5C 1048.67,1001.83 1049.33,1001.83 1050,1004.5C 1050.34,1002.38 1051.18,1002.05 1052.5,1003.5C 1021.2,1035.3 989.701,1066.97 958,1098.5C 926.965,1067.63 896.132,1036.63 865.5,1005.5C 866.268,1004.74 866.768,1003.74 867,1002.5C 867.667,1005.17 868.333,1005.17 869,1002.5C 869.667,1005.17 870.333,1005.17 871,1002.5C 871.667,1005.17 872.333,1005.17 873,1002.5C 873.667,1005.17 874.333,1005.17 875,1002.5C 875.667,1005.17 876.333,1005.17 877,1002.5C 877.667,1005.17 878.333,1005.17 879,1002.5C 879.667,1005.17 880.333,1005.17 881,1002.5C 881.667,1005.17 882.333,1005.17 883,1002.5C 883.667,1005.17 884.333,1005.17 885,1002.5C 885.667,1005.17 886.333,1005.17 887,1002.5C 887.667,1005.17 888.333,1005.17 889,1002.5C 890.087,1004.93 890.587,1004.6 890.5,1001.5C 912.839,1023.67 935.339,1045.67 958,1067.5C 987.661,1038.67 1017.16,1009.67 1046.5,980.5 Z"/></g>
<g><path style="opacity:1" fill="#a8708d" d="M 1442.5,1016.5 C 1449.83,1016.5 1457.17,1016.5 1464.5,1016.5C 1463.97,1017.72 1463.31,1018.89 1462.5,1020C 1462.83,1020.33 1463.17,1020.67 1463.5,1021C 1462.75,1022.49 1461.91,1022.65 1461,1021.5C 1460.32,1022.78 1460.48,1023.95 1461.5,1025C 1460.64,1027.73 1459.81,1027.9 1459,1025.5C 1458.32,1026.78 1458.48,1027.95 1459.5,1029C 1458.29,1030.04 1457.29,1031.21 1456.5,1032.5C 1454.86,1031.68 1453.19,1030.85 1451.5,1030C 1446.18,1029.5 1440.84,1029.33 1435.5,1029.5C 1435.37,1027.35 1435.87,1025.35 1437,1023.5C 1437.33,1024.17 1437.67,1024.83 1438,1025.5C 1439.42,1022.39 1440.92,1019.39 1442.5,1016.5 Z"/></g>
<g><path style="opacity:1" fill="#e74647" d="M 1551.5,1010.5 C 1550.67,1016.66 1549.67,1022.66 1548.5,1028.5C 1544.62,1034.57 1540.95,1040.91 1537.5,1047.5C 1537.04,1048.3 1536.38,1048.63 1535.5,1048.5C 1536.84,1039.15 1538.17,1029.82 1539.5,1020.5C 1541.57,1021.59 1542.23,1021.09 1541.5,1019C 1542.46,1017.58 1543.29,1016.08 1544,1014.5C 1544.91,1015.65 1545.75,1015.49 1546.5,1014C 1545.8,1012.51 1546.14,1011.01 1547.5,1009.5C 1548.74,1010.25 1550.07,1010.58 1551.5,1010.5 Z"/></g>
<g><path style="opacity:1" fill="#f6302b" d="M 1569.5,1013.5 C 1570.64,1024.53 1571.97,1035.53 1573.5,1046.5C 1572.21,1045.5 1570.88,1045.67 1569.5,1047C 1570.17,1047.33 1570.83,1047.67 1571.5,1048C 1569.29,1048.39 1567.95,1049.39 1567.5,1051C 1568.17,1051.33 1568.83,1051.67 1569.5,1052C 1567.11,1052.28 1566.45,1053.28 1567.5,1055C 1566.15,1056.54 1565.48,1058.37 1565.5,1060.5C 1563.67,1049.36 1562.34,1038.03 1561.5,1026.5C 1561.82,1022.79 1563.15,1019.12 1565.5,1015.5C 1566.27,1014.29 1567.11,1014.29 1568,1015.5C 1568.28,1014.58 1568.78,1013.92 1569.5,1013.5 Z"/></g>
<g><path style="opacity:1" fill="#a47493" d="M 1430.5,1036.5 C 1428.74,1050.82 1427.07,1065.15 1425.5,1079.5C 1421.83,1079.5 1418.17,1079.5 1414.5,1079.5C 1414.32,1073.6 1414.99,1067.93 1416.5,1062.5C 1420.69,1056.9 1423.86,1050.23 1426,1042.5C 1426.33,1043.17 1426.67,1043.83 1427,1044.5C 1427.7,1041.52 1428.87,1038.86 1430.5,1036.5 Z"/></g>
<g><path style="opacity:1" fill="#ee3b3a" d="M 1548.5,1028.5 C 1546.5,1045.5 1544.5,1062.5 1542.5,1079.5C 1538.83,1079.5 1535.17,1079.5 1531.5,1079.5C 1532.72,1069.15 1534.06,1058.82 1535.5,1048.5C 1536.38,1048.63 1537.04,1048.3 1537.5,1047.5C 1540.95,1040.91 1544.62,1034.57 1548.5,1028.5 Z"/></g>
<g><path style="opacity:1" fill="#797eb3" d="M 1368.5,1046.5 C 1371.37,1057.21 1373.37,1068.21 1374.5,1079.5C 1370.17,1079.5 1365.83,1079.5 1361.5,1079.5C 1361.05,1072.81 1360.38,1066.14 1359.5,1059.5C 1359.69,1055.55 1360.19,1055.55 1361,1059.5C 1364.17,1055.23 1366.67,1050.89 1368.5,1046.5 Z"/></g>
<g><path style="opacity:1" fill="#fe140f" d="M 1565.5,1060.5 C 1565.48,1058.37 1566.15,1056.54 1567.5,1055C 1566.45,1053.28 1567.11,1052.28 1569.5,1052C 1568.83,1051.67 1568.17,1051.33 1567.5,1051C 1567.95,1049.39 1569.29,1048.39 1571.5,1048C 1570.83,1047.67 1570.17,1047.33 1569.5,1047C 1570.88,1045.67 1572.21,1045.5 1573.5,1046.5C 1574.11,1051.81 1574.61,1057.15 1575,1062.5C 1587.46,1030.79 1600.13,999.121 1613,967.5C 1618.07,966.529 1623.24,966.195 1628.5,966.5C 1623.22,1004.13 1618.22,1041.79 1613.5,1079.5C 1609.83,1079.5 1606.17,1079.5 1602.5,1079.5C 1607.18,1047.86 1611.34,1016.2 1615,984.5C 1602.6,1015.87 1590.1,1047.21 1577.5,1078.5C 1574.23,1079.49 1570.9,1079.82 1567.5,1079.5C 1566.59,1073.2 1565.92,1066.86 1565.5,1060.5 Z"/></g>
<g><path style="opacity:1" fill="#c8626f" d="M 1472.5,1036.5 C 1477.64,1045.57 1481.64,1055.24 1484.5,1065.5C 1483.18,1064.05 1482.34,1064.38 1482,1066.5C 1481.67,1065.83 1481.33,1065.17 1481,1064.5C 1480.33,1065.83 1479.67,1067.17 1479,1068.5C 1478.67,1067.83 1478.33,1067.17 1478,1066.5C 1478.03,1070.53 1477.19,1074.53 1475.5,1078.5C 1471.66,1068.32 1467.99,1057.98 1464.5,1047.5C 1466.17,1046.17 1467.84,1044.33 1469.5,1042C 1468.28,1039.9 1467.45,1040.07 1467,1042.5C 1466.34,1040.89 1466.84,1039.73 1468.5,1039C 1467.55,1038.28 1467.38,1037.45 1468,1036.5C 1469.19,1037.35 1470.69,1037.35 1472.5,1036.5 Z"/></g>
<g><path style="opacity:1" fill="#d35a62" d="M 1484.5,1065.5 C 1485.96,1069.88 1487.63,1074.22 1489.5,1078.5C 1484.68,1079.81 1480.02,1079.81 1475.5,1078.5C 1477.19,1074.53 1478.03,1070.53 1478,1066.5C 1478.33,1067.17 1478.67,1067.83 1479,1068.5C 1479.67,1067.17 1480.33,1065.83 1481,1064.5C 1481.33,1065.17 1481.67,1065.83 1482,1066.5C 1482.34,1064.38 1483.18,1064.05 1484.5,1065.5 Z"/></g>
</svg>
