<?xml version="1.0" encoding="UTF-8"?>
<!DOCTYPE svg PUBLIC "-//W3C//DTD SVG 1.1//EN" "http://www.w3.org/Graphics/SVG/1.1/DTD/svg11.dtd">
<svg xmlns="http://www.w3.org/2000/svg" version="1.1" width="2445px" height="1756px" style="shape-rendering:geometricPrecision; text-rendering:geometricPrecision; image-rendering:optimizeQuality; fill-rule:evenodd; clip-rule:evenodd" xmlns:xlink="http://www.w3.org/1999/xlink">
<g><path style="opacity:1" fill="#000000" d="M -0.5,-0.5 C 814.5,-0.5 1629.5,-0.5 2444.5,-0.5C 2444.5,584.833 2444.5,1170.17 2444.5,1755.5C 1629.5,1755.5 814.5,1755.5 -0.5,1755.5C -0.5,1170.17 -0.5,584.833 -0.5,-0.5 Z"/></g>
<g><path style="opacity:1" fill="#5f8dcd" d="M 818.5,656.5 C 819.398,657.158 820.398,657.824 821.5,658.5C 790.087,725.922 758.587,793.255 727,860.5C 726.506,862.134 726.34,863.801 726.5,865.5C 722.719,861.376 719.719,856.709 717.5,851.5C 748.591,787.246 778.924,722.579 808.5,657.5C 811.807,656.949 815.14,656.616 818.5,656.5 Z"/></g>
<g><path style="opacity:1" fill="#5586ca" d="M 818.5,656.5 C 827.173,656.334 835.84,656.5 844.5,657C 846.382,657.198 848.048,657.698 849.5,658.5C 848.448,658.351 847.448,658.517 846.5,659C 846.616,660.268 846.949,661.602 847.5,663C 845.962,664.932 844.795,667.099 844,669.5C 842.334,668.66 842.167,669.16 843.5,671C 842.599,673.571 841.266,675.904 839.5,678C 839.232,681.679 837.565,685.012 834.5,688C 835.28,689.073 835.113,690.24 834,691.5C 833.667,690.833 833.333,690.167 833,689.5C 832.316,690.784 832.483,691.951 833.5,693C 831.898,694.935 830.731,697.101 830,699.5C 806.369,750.182 782.036,802.182 757,855.5C 756.667,854.833 756.333,854.167 756,853.5C 755.316,854.784 755.483,855.951 756.5,857C 754.437,859.511 752.937,862.344 752,865.5C 750.334,864.66 750.167,865.16 751.5,867C 749.663,871.184 747.829,875.35 746,879.5C 745.667,878.5 745.333,877.5 745,876.5C 743.712,878.933 743.212,881.266 743.5,883.5C 737.13,878.131 731.463,872.131 726.5,865.5C 726.34,863.801 726.506,862.134 727,860.5C 758.587,793.255 790.087,725.922 821.5,658.5C 820.398,657.824 819.398,657.158 818.5,656.5 Z"/></g>
<g><path style="opacity:1" fill="#6692cf" d="M 808.5,657.5 C 778.924,722.579 748.591,787.246 717.5,851.5C 712.543,844.516 708.877,836.849 706.5,828.5C 707.675,828.719 708.675,828.386 709.5,827.5C 735.104,773.175 760.604,718.841 786,664.5C 786.995,663.934 787.828,663.267 788.5,662.5C 794.99,660.195 801.657,658.528 808.5,657.5 Z"/></g>
<g><path style="opacity:1" fill="#4e81c8" d="M 849.5,658.5 C 854.831,658.421 859.831,659.421 864.5,661.5C 862.5,661.5 860.5,661.5 858.5,661.5C 823.274,738.282 787.274,814.615 750.5,890.5C 747.833,888.5 745.5,886.167 743.5,883.5C 743.212,881.266 743.712,878.933 745,876.5C 745.333,877.5 745.667,878.5 746,879.5C 747.829,875.35 749.663,871.184 751.5,867C 750.167,865.16 750.334,864.66 752,865.5C 752.937,862.344 754.437,859.511 756.5,857C 755.483,855.951 755.316,854.784 756,853.5C 756.333,854.167 756.667,854.833 757,855.5C 782.036,802.182 806.369,750.182 830,699.5C 830.731,697.101 831.898,694.935 833.5,693C 832.483,691.951 832.316,690.784 833,689.5C 833.333,690.167 833.667,690.833 834,691.5C 835.113,690.24 835.28,689.073 834.5,688C 837.565,685.012 839.232,681.679 839.5,678C 841.266,675.904 842.599,673.571 843.5,671C 842.167,669.16 842.334,668.66 844,669.5C 844.795,667.099 845.962,664.932 847.5,663C 846.949,661.602 846.616,660.268 846.5,659C 847.448,658.517 848.448,658.351 849.5,658.5 Z"/></g>
<g><path style="opacity:1" fill="#487bc6" d="M 864.5,661.5 C 871.207,663.029 877.54,665.362 883.5,668.5C 881.799,668.034 880.299,668.034 879,668.5C 842.304,748.226 804.804,827.559 766.5,906.5C 760.833,901.5 755.5,896.167 750.5,890.5C 787.274,814.615 823.274,738.282 858.5,661.5C 860.5,661.5 862.5,661.5 864.5,661.5 Z"/></g>
<g><path style="opacity:1" fill="#6e97d1" d="M 788.5,662.5 C 787.828,663.267 786.995,663.934 786,664.5C 760.604,718.841 735.104,773.175 709.5,827.5C 708.675,828.386 707.675,828.719 706.5,828.5C 704.098,822.488 702.431,816.155 701.5,809.5C 721.684,766.555 742.351,722.389 763.5,677C 761.885,676.938 760.552,676.771 759.5,676.5C 768.234,670.148 777.901,665.481 788.5,662.5 Z"/></g>
<g><path style="opacity:1" fill="#3f74c2" d="M 883.5,668.5 C 888.827,670.159 893.493,672.826 897.5,676.5C 861.042,753.582 824.876,830.915 789,908.5C 786.483,912.873 783.983,917.206 781.5,921.5C 776.167,916.833 771.167,911.833 766.5,906.5C 804.804,827.559 842.304,748.226 879,668.5C 880.299,668.034 881.799,668.034 883.5,668.5 Z"/></g>
<g><path style="opacity:1" fill="#fc0e09" d="M 1192.5,710.5 C 1192.79,712.423 1193.63,714.09 1195,715.5C 1195.67,717.167 1195.67,718.833 1195,720.5C 1194.33,716.5 1193.67,716.5 1193,720.5C 1192.33,716.5 1191.67,716.5 1191,720.5C 1190.33,716.5 1189.67,716.5 1189,720.5C 1188.33,716.5 1187.67,716.5 1187,720.5C 1186.33,716.5 1185.67,716.5 1185,720.5C 1184.33,716.5 1183.67,716.5 1183,720.5C 1182.33,716.5 1181.67,716.5 1181,720.5C 1180.33,716.5 1179.67,716.5 1179,720.5C 1178.33,716.5 1177.67,716.5 1177,720.5C 1176.33,716.5 1175.67,716.5 1175,720.5C 1174.93,718.065 1174.09,717.398 1172.5,718.5C 1138.29,680.214 1096.62,669.048 1047.5,685C 1041.33,687.588 1035.33,690.421 1029.5,693.5C 1019.95,693.264 1010.45,693.264 1001,693.5C 999.489,692.436 999.323,691.103 1000.5,689.5C 1036.35,658.964 1077.35,649.464 1123.5,661C 1152.26,669.608 1175.26,686.108 1192.5,710.5 Z"/></g>
<g><path style="opacity:1" fill="#020101" d="M 1172.5,718.5 C 1189.44,740.883 1197.1,766.216 1195.5,794.5C 1192.84,820.156 1182.84,842.489 1165.5,861.5C 1157.83,868.5 1150.5,875.833 1143.5,883.5C 1127.5,898.833 1111.83,914.5 1096.5,930.5C 1074.5,951.833 1052.83,973.5 1031.5,995.5C 1015.5,1010.83 999.833,1026.5 984.5,1042.5C 975.826,1051.01 966.993,1059.34 958,1067.5C 949.674,1060.01 941.507,1052.34 933.5,1044.5C 913.507,1024.34 893.673,1004.01 874,983.5C 863.862,970.225 856.695,955.558 852.5,939.5C 848.471,917 850.138,895 857.5,873.5C 861.817,864.867 866.65,856.533 872,848.5C 881.006,838.662 890.172,828.995 899.5,819.5C 917.472,802.529 935.138,785.196 952.5,767.5C 964.167,756.5 975.5,745.167 986.5,733.5C 996.965,723.535 1007.3,713.369 1017.5,703C 1021.4,699.589 1025.4,696.422 1029.5,693.5C 1035.33,690.421 1041.33,687.588 1047.5,685C 1096.62,669.048 1138.29,680.214 1172.5,718.5 Z"/></g>
<g><path style="opacity:1" fill="#376cbd" d="M 897.5,676.5 C 906.993,681.654 915.326,688.32 922.5,696.5C 921.178,696.67 920.011,696.337 919,695.5C 903.265,727.974 887.765,760.64 872.5,793.5C 872.863,794.183 873.196,794.85 873.5,795.5C 863.172,805.995 853.006,816.661 843,827.5C 813.797,868.116 806.63,912.449 821.5,960.5C 807.813,948.487 794.479,935.487 781.5,921.5C 783.983,917.206 786.483,912.873 789,908.5C 824.876,830.915 861.042,753.582 897.5,676.5 Z"/></g>
<g><path style="opacity:1" fill="#fcfcfc" d="M 1502.5,690.5 C 1540.3,687.48 1564.47,704.146 1575,740.5C 1584.81,789.866 1579.48,837.533 1559,883.5C 1549.71,903.264 1535.54,918.43 1516.5,929C 1468.16,945.245 1437.32,928.745 1424,879.5C 1415.64,832.071 1421.31,786.405 1441,742.5C 1450.39,721.779 1465.22,706.279 1485.5,696C 1491.14,693.682 1496.8,691.849 1502.5,690.5 Z"/></g>
<g><path style="opacity:1" fill="#759ad0" d="M 759.5,676.5 C 760.552,676.771 761.885,676.938 763.5,677C 742.351,722.389 721.684,766.555 701.5,809.5C 693.602,760.363 708.269,719.197 745.5,686C 750.051,682.566 754.718,679.399 759.5,676.5 Z"/></g>
<g><path style="opacity:1" fill="#3165b9" d="M 922.5,696.5 C 931.146,704.479 939.479,712.812 947.5,721.5C 923.146,746.521 898.479,771.188 873.5,795.5C 873.196,794.85 872.863,794.183 872.5,793.5C 887.765,760.64 903.265,727.974 919,695.5C 920.011,696.337 921.178,696.67 922.5,696.5 Z"/></g>
<g><path style="opacity:1" fill="#fcfcfc" d="M 1302.5,694.5 C 1322.84,694.333 1343.17,694.5 1363.5,695C 1381.78,697.612 1393.61,707.778 1399,725.5C 1405.23,755.108 1401.57,783.441 1388,810.5C 1378.2,827.157 1363.7,836.991 1344.5,840C 1331.49,840.167 1318.49,840.667 1305.5,841.5C 1302.85,866.198 1299.69,890.864 1296,915.5C 1293.95,926.715 1287.45,933.381 1276.5,935.5C 1269.49,934.99 1264.99,931.324 1263,924.5C 1261.5,917.901 1261.17,911.234 1262,904.5C 1269.11,842.802 1276.45,781.135 1284,719.5C 1285.2,707.174 1291.37,698.841 1302.5,694.5 Z"/></g>
<g><path style="opacity:1" fill="#fcfcfc" d="M 1640.5,694.5 C 1660.84,694.333 1681.17,694.5 1701.5,695C 1719.78,697.612 1731.61,707.778 1737,725.5C 1743.23,755.108 1739.57,783.441 1726,810.5C 1716.2,827.157 1701.7,836.991 1682.5,840C 1669.49,840.167 1656.49,840.667 1643.5,841.5C 1640.85,866.211 1637.68,890.878 1634,915.5C 1631.95,926.715 1625.45,933.381 1614.5,935.5C 1607.49,934.99 1602.99,931.324 1601,924.5C 1599.5,917.901 1599.17,911.234 1600,904.5C 1607.11,842.802 1614.45,781.135 1622,719.5C 1623.2,707.174 1629.37,698.841 1640.5,694.5 Z"/></g>
<g><path style="opacity:1" fill="#fa1a13" d="M 1000.5,689.5 C 999.323,691.103 999.489,692.436 1001,693.5C 1010.45,693.264 1019.95,693.264 1029.5,693.5C 1025.4,696.422 1021.4,699.589 1017.5,703C 1007.3,713.369 996.965,723.535 986.5,733.5C 985.069,733.119 984.236,732.119 984,730.5C 983.333,734.5 982.667,734.5 982,730.5C 981.333,734.5 980.667,734.5 980,730.5C 979.333,734.5 978.667,734.5 978,730.5C 977.333,734.5 976.667,734.5 976,730.5C 975.333,734.5 974.667,734.5 974,730.5C 973.333,734.5 972.667,734.5 972,730.5C 971.333,734.5 970.667,734.5 970,730.5C 969.333,734.5 968.667,734.5 968,730.5C 967.333,734.5 966.667,734.5 966,730.5C 965.333,734.5 964.667,734.5 964,730.5C 963.193,734.449 962.693,734.449 962.5,730.5C 961.5,730.5 960.5,730.5 959.5,730.5C 972.833,716.5 986.5,702.833 1000.5,689.5 Z"/></g>
<g><path style="opacity:1" fill="#fc4341" d="M 1077.5,714.5 C 1085.25,714.201 1092.92,714.534 1100.5,715.5C 1078.2,757.985 1055.2,800.152 1031.5,842C 1032.25,842.671 1032.59,843.504 1032.5,844.5C 1027.17,839.833 1022.17,834.833 1017.5,829.5C 1038.36,791.613 1059.36,753.78 1080.5,716C 1079.26,715.768 1078.26,715.268 1077.5,714.5 Z"/></g>
<g><path style="opacity:1" fill="#fc3c39" d="M 1100.5,715.5 C 1106.98,716.282 1112.98,718.282 1118.5,721.5C 1117.49,725.272 1115.99,729.272 1114,733.5C 1113.67,733.167 1113.33,732.833 1113,732.5C 1105.81,744.537 1099.14,757.537 1093,771.5C 1092.67,771.167 1092.33,770.833 1092,770.5C 1076.4,799.382 1060.56,828.048 1044.5,856.5C 1040.17,852.833 1036.17,848.833 1032.5,844.5C 1032.59,843.504 1032.25,842.671 1031.5,842C 1055.2,800.152 1078.2,757.985 1100.5,715.5 Z"/></g>
<g><path style="opacity:1" fill="#fa4c4a" d="M 1077.5,714.5 C 1078.26,715.268 1079.26,715.768 1080.5,716C 1059.36,753.78 1038.36,791.613 1017.5,829.5C 1006.2,818.702 995.035,807.702 984,796.5C 982.398,794.631 981.398,792.631 981,790.5C 1001.17,770.333 1021.33,750.167 1041.5,730C 1052,721.441 1064,716.275 1077.5,714.5 Z"/></g>
<g><path style="opacity:1" fill="#fc3431" d="M 1118.5,721.5 C 1127.58,725.245 1135.25,730.912 1141.5,738.5C 1140.32,738.281 1139.32,738.614 1138.5,739.5C 1125.56,761.721 1113.39,784.388 1102,807.5C 1101.67,806.5 1101.33,805.5 1101,804.5C 1098.28,811.606 1095.28,818.606 1092,825.5C 1091.67,824.5 1091.33,823.5 1091,822.5C 1085.73,835.714 1079.39,848.381 1072,860.5C 1069.16,864.172 1066.83,868.172 1065,872.5C 1064.67,871.833 1064.33,871.167 1064,870.5C 1063.68,872.689 1064.18,874.689 1065.5,876.5C 1058.27,870.055 1051.27,863.389 1044.5,856.5C 1060.56,828.048 1076.4,799.382 1092,770.5C 1092.33,770.833 1092.67,771.167 1093,771.5C 1099.14,757.537 1105.81,744.537 1113,732.5C 1113.33,732.833 1113.67,733.167 1114,733.5C 1115.99,729.272 1117.49,725.272 1118.5,721.5 Z"/></g>
<g><path style="opacity:1" fill="#fb231d" d="M 1192.5,710.5 C 1210.44,734.948 1218.44,762.282 1216.5,792.5C 1215.68,794.969 1215.18,797.635 1215,800.5C 1214.33,796.5 1213.67,796.5 1213,800.5C 1212.33,797.833 1211.67,797.833 1211,800.5C 1210.33,797.833 1209.67,797.833 1209,800.5C 1208.33,797.833 1207.67,797.833 1207,800.5C 1206.33,797.833 1205.67,797.833 1205,800.5C 1204.33,797.833 1203.67,797.833 1203,800.5C 1202.33,797.833 1201.67,797.833 1201,800.5C 1200.33,797.833 1199.67,797.833 1199,800.5C 1198.33,797.833 1197.67,797.833 1197,800.5C 1195.87,798.655 1195.37,796.655 1195.5,794.5C 1197.1,766.216 1189.44,740.883 1172.5,718.5C 1174.09,717.398 1174.93,718.065 1175,720.5C 1175.67,716.5 1176.33,716.5 1177,720.5C 1177.67,716.5 1178.33,716.5 1179,720.5C 1179.67,716.5 1180.33,716.5 1181,720.5C 1181.67,716.5 1182.33,716.5 1183,720.5C 1183.67,716.5 1184.33,716.5 1185,720.5C 1185.67,716.5 1186.33,716.5 1187,720.5C 1187.67,716.5 1188.33,716.5 1189,720.5C 1189.67,716.5 1190.33,716.5 1191,720.5C 1191.67,716.5 1192.33,716.5 1193,720.5C 1193.67,716.5 1194.33,716.5 1195,720.5C 1195.67,718.833 1195.67,717.167 1195,715.5C 1193.63,714.09 1192.79,712.423 1192.5,710.5 Z"/></g>
<g><path style="opacity:1" fill="#010101" d="M 1502.5,731.5 C 1519.83,730.079 1531.67,737.412 1538,753.5C 1546.48,789.891 1543.81,825.558 1530,860.5C 1524.28,874.547 1514.78,885.047 1501.5,892C 1481.88,897.772 1468.71,890.939 1462,871.5C 1452.57,832.581 1456.24,794.914 1473,758.5C 1479.55,745.777 1489.38,736.777 1502.5,731.5 Z"/></g>
<g><path style="opacity:1" fill="#020202" d="M 1317.5,733.5 C 1325.84,733.334 1334.17,733.5 1342.5,734C 1355.06,733.584 1362.56,739.418 1365,751.5C 1365.95,763.226 1364.28,774.56 1360,785.5C 1355.95,793.612 1349.45,798.445 1340.5,800C 1330.54,801.295 1320.54,801.795 1310.5,801.5C 1312.67,778.818 1315,756.152 1317.5,733.5 Z"/></g>
<g><path style="opacity:1" fill="#020202" d="M 1655.5,733.5 C 1663.84,733.334 1672.17,733.5 1680.5,734C 1693.06,733.584 1700.56,739.418 1703,751.5C 1703.95,763.226 1702.28,774.56 1698,785.5C 1693.95,793.612 1687.45,798.445 1678.5,800C 1668.54,801.295 1658.54,801.795 1648.5,801.5C 1650.67,778.818 1653,756.152 1655.5,733.5 Z"/></g>
<g><path style="opacity:1" fill="#fe2a26" d="M 1141.5,738.5 C 1145.49,742.479 1148.49,747.145 1150.5,752.5C 1148.93,752.937 1147.76,753.937 1147,755.5C 1145,760.167 1143,764.833 1141,769.5C 1140.67,768.833 1140.33,768.167 1140,767.5C 1136.45,773.93 1133.45,780.596 1131,787.5C 1130.67,786.833 1130.33,786.167 1130,785.5C 1126.28,792.665 1122.95,799.998 1120,807.5C 1119.67,806.833 1119.33,806.167 1119,805.5C 1115.81,812.083 1112.81,818.75 1110,825.5C 1109.67,824.833 1109.33,824.167 1109,823.5C 1102.67,836.167 1096.33,848.833 1090,861.5C 1089.67,860.833 1089.33,860.167 1089,859.5C 1085.28,866.665 1081.95,873.998 1079,881.5C 1078.67,880.833 1078.33,880.167 1078,879.5C 1075.89,881.992 1075.39,884.658 1076.5,887.5C 1072.5,884.167 1068.83,880.5 1065.5,876.5C 1064.18,874.689 1063.68,872.689 1064,870.5C 1064.33,871.167 1064.67,871.833 1065,872.5C 1066.83,868.172 1069.16,864.172 1072,860.5C 1079.39,848.381 1085.73,835.714 1091,822.5C 1091.33,823.5 1091.67,824.5 1092,825.5C 1095.28,818.606 1098.28,811.606 1101,804.5C 1101.33,805.5 1101.67,806.5 1102,807.5C 1113.39,784.388 1125.56,761.721 1138.5,739.5C 1139.32,738.614 1140.32,738.281 1141.5,738.5 Z"/></g>
<g><path style="opacity:1" fill="#fa241d" d="M 959.5,730.5 C 960.5,730.5 961.5,730.5 962.5,730.5C 962.693,734.449 963.193,734.449 964,730.5C 964.667,734.5 965.333,734.5 966,730.5C 966.667,734.5 967.333,734.5 968,730.5C 968.667,734.5 969.333,734.5 970,730.5C 970.667,734.5 971.333,734.5 972,730.5C 972.667,734.5 973.333,734.5 974,730.5C 974.667,734.5 975.333,734.5 976,730.5C 976.667,734.5 977.333,734.5 978,730.5C 978.667,734.5 979.333,734.5 980,730.5C 980.667,734.5 981.333,734.5 982,730.5C 982.667,734.5 983.333,734.5 984,730.5C 984.236,732.119 985.069,733.119 986.5,733.5C 975.5,745.167 964.167,756.5 952.5,767.5C 951.25,767.423 950.417,766.756 950,765.5C 949.333,769.5 948.667,769.5 948,765.5C 947.333,769.5 946.667,769.5 946,765.5C 945.333,769.5 944.667,769.5 944,765.5C 943.333,769.5 942.667,769.5 942,765.5C 941.333,769.5 940.667,769.5 940,765.5C 939.333,769.5 938.667,769.5 938,765.5C 937.333,769.5 936.667,769.5 936,765.5C 935.333,769.5 934.667,769.5 934,765.5C 933.333,769.5 932.667,769.5 932,765.5C 931.333,769.5 930.667,769.5 930,765.5C 929.333,769.5 928.667,769.5 928,765.5C 927.667,766.5 927.333,767.5 927,768.5C 926.79,766.942 926.29,765.609 925.5,764.5C 936.5,752.833 947.833,741.5 959.5,730.5 Z"/></g>
<g><path style="opacity:1" fill="#fc211c" d="M 1150.5,752.5 C 1156.96,762.458 1159.63,773.458 1158.5,785.5C 1158.87,804.084 1153.04,820.417 1141,834.5C 1121.81,853.694 1102.64,872.86 1083.5,892C 1080.33,892.032 1078,890.532 1076.5,887.5C 1075.39,884.658 1075.89,881.992 1078,879.5C 1078.33,880.167 1078.67,880.833 1079,881.5C 1081.95,873.998 1085.28,866.665 1089,859.5C 1089.33,860.167 1089.67,860.833 1090,861.5C 1096.33,848.833 1102.67,836.167 1109,823.5C 1109.33,824.167 1109.67,824.833 1110,825.5C 1112.81,818.75 1115.81,812.083 1119,805.5C 1119.33,806.167 1119.67,806.833 1120,807.5C 1122.95,799.998 1126.28,792.665 1130,785.5C 1130.33,786.167 1130.67,786.833 1131,787.5C 1133.45,780.596 1136.45,773.93 1140,767.5C 1140.33,768.167 1140.67,768.833 1141,769.5C 1143,764.833 1145,760.167 1147,755.5C 1147.76,753.937 1148.93,752.937 1150.5,752.5 Z"/></g>
<g><path style="opacity:1" fill="#fa2c26" d="M 925.5,764.5 C 926.29,765.609 926.79,766.942 927,768.5C 927.333,767.5 927.667,766.5 928,765.5C 928.667,769.5 929.333,769.5 930,765.5C 930.667,769.5 931.333,769.5 932,765.5C 932.667,769.5 933.333,769.5 934,765.5C 934.667,769.5 935.333,769.5 936,765.5C 936.667,769.5 937.333,769.5 938,765.5C 938.667,769.5 939.333,769.5 940,765.5C 940.667,769.5 941.333,769.5 942,765.5C 942.667,769.5 943.333,769.5 944,765.5C 944.667,769.5 945.333,769.5 946,765.5C 946.667,769.5 947.333,769.5 948,765.5C 948.667,769.5 949.333,769.5 950,765.5C 950.417,766.756 951.25,767.423 952.5,767.5C 935.138,785.196 917.472,802.529 899.5,819.5C 898.778,819.082 898.278,818.416 898,817.5C 897.333,820.167 896.667,820.167 896,817.5C 895.333,821.5 894.667,821.5 894,817.5C 893.333,821.5 892.667,821.5 892,817.5C 891.333,821.5 890.667,821.5 890,817.5C 889.333,821.5 888.667,821.5 888,817.5C 887.333,821.5 886.667,821.5 886,817.5C 885.333,821.5 884.667,821.5 884,817.5C 883.333,821.5 882.667,821.5 882,817.5C 881.333,821.5 880.667,821.5 880,817.5C 879.333,821.5 878.667,821.5 878,817.5C 877.667,818.5 877.333,819.5 877,820.5C 875.482,818.187 875.316,815.854 876.5,813.5C 892.5,796.833 908.833,780.5 925.5,764.5 Z"/></g>
<g><path style="opacity:1" fill="#2961b9" d="M 971.5,815.5 C 976.5,819.833 981.167,824.5 985.5,829.5C 984.831,879.902 984.164,930.402 983.5,981C 983.728,981.399 984.062,981.565 984.5,981.5C 980.597,983.898 976.264,985.231 971.5,985.5C 971.167,985.5 970.833,985.5 970.5,985.5C 970.822,935.647 970.489,885.814 969.5,836C 970.077,829.01 970.743,822.177 971.5,815.5 Z"/></g>
<g><path style="opacity:1" fill="#3168bc" d="M 971.5,815.5 C 970.743,822.177 970.077,829.01 969.5,836C 970.489,885.814 970.822,935.647 970.5,985.5C 967.5,985.5 964.5,985.5 961.5,985.5C 961.832,939.664 961.499,893.997 960.5,848.5C 963.165,845.665 965.665,842.665 968,839.5C 969.622,830.21 965.789,826.71 956.5,829C 954.297,831.372 951.963,833.539 949.5,835.5C 948.264,831.299 948.264,826.965 949.5,822.5C 954.13,817.369 958.963,812.369 964,807.5C 966.705,810.036 969.205,812.703 971.5,815.5 Z"/></g>
<g><path style="opacity:1" fill="#245bb6" d="M 985.5,829.5 C 1012.48,855.812 1039.15,882.479 1065.5,909.5C 1046.01,929.486 1026.35,949.32 1006.5,969C 999.892,974.47 992.559,978.636 984.5,981.5C 984.062,981.565 983.728,981.399 983.5,981C 984.164,930.402 984.831,879.902 985.5,829.5 Z"/></g>
<g><path style="opacity:1" fill="#8eaddc" d="M 960.5,848.5 C 956.5,852.167 952.5,855.833 948.5,859.5C 944.862,863.474 941.195,867.474 937.5,871.5C 933.833,874.5 930.5,877.833 927.5,881.5C 926.833,881.833 926.167,882.167 925.5,882.5C 923.443,876.447 922.943,870.114 924,863.5C 925.167,862.333 926.333,861.167 927.5,860C 927.272,859.601 926.938,859.435 926.5,859.5C 934.167,851.5 941.833,843.5 949.5,835.5C 951.963,833.539 954.297,831.372 956.5,829C 965.789,826.71 969.622,830.21 968,839.5C 965.665,842.665 963.165,845.665 960.5,848.5 Z"/></g>
<g><path style="opacity:1" fill="#5886c9" d="M 949.5,822.5 C 948.264,826.965 948.264,831.299 949.5,835.5C 941.833,843.5 934.167,851.5 926.5,859.5C 925.167,860.5 923.833,861.5 922.5,862.5C 921.679,859.359 921.179,856.025 921,852.5C 920.092,854.439 918.592,855.439 916.5,855.5C 927.167,844.167 938.167,833.167 949.5,822.5 Z"/></g>
<g><path style="opacity:1" fill="#396fbf" d="M 960.5,848.5 C 961.499,893.997 961.832,939.664 961.5,985.5C 964.5,985.5 967.5,985.5 970.5,985.5C 970.833,985.5 971.167,985.5 971.5,985.5C 967.079,986.912 962.412,987.579 957.5,987.5C 954.645,987.497 951.978,987.164 949.5,986.5C 948.506,944.239 948.173,901.906 948.5,859.5C 952.5,855.833 956.5,852.167 960.5,848.5 Z"/></g>
<g><path style="opacity:1" fill="#f93732" d="M 876.5,813.5 C 875.316,815.854 875.482,818.187 877,820.5C 877.333,819.5 877.667,818.5 878,817.5C 878.667,821.5 879.333,821.5 880,817.5C 880.667,821.5 881.333,821.5 882,817.5C 882.667,821.5 883.333,821.5 884,817.5C 884.667,821.5 885.333,821.5 886,817.5C 886.667,821.5 887.333,821.5 888,817.5C 888.667,821.5 889.333,821.5 890,817.5C 890.667,821.5 891.333,821.5 892,817.5C 892.667,821.5 893.333,821.5 894,817.5C 894.667,821.5 895.333,821.5 896,817.5C 896.667,820.167 897.333,820.167 898,817.5C 898.278,818.416 898.778,819.082 899.5,819.5C 890.172,828.995 881.006,838.662 872,848.5C 866.65,856.533 861.817,864.867 857.5,873.5C 856.778,873.082 856.278,872.416 856,871.5C 855.667,872.167 855.333,872.833 855,873.5C 849,872.167 843,872.167 837,873.5C 836.536,872.906 836.369,872.239 836.5,871.5C 844.367,848.443 857.701,829.11 876.5,813.5 Z"/></g>
<g><path style="opacity:1" fill="#fa3631" d="M 1216.5,792.5 C 1214.96,824.303 1203.3,851.636 1181.5,874.5C 1180.78,874.082 1180.28,873.416 1180,872.5C 1172.33,872.833 1164.67,873.167 1157,873.5C 1156.33,872.833 1156.33,872.167 1157,871.5C 1160.44,868.568 1163.28,865.235 1165.5,861.5C 1182.84,842.489 1192.84,820.156 1195.5,794.5C 1195.37,796.655 1195.87,798.655 1197,800.5C 1197.67,797.833 1198.33,797.833 1199,800.5C 1199.67,797.833 1200.33,797.833 1201,800.5C 1201.67,797.833 1202.33,797.833 1203,800.5C 1203.67,797.833 1204.33,797.833 1205,800.5C 1205.67,797.833 1206.33,797.833 1207,800.5C 1207.67,797.833 1208.33,797.833 1209,800.5C 1209.67,797.833 1210.33,797.833 1211,800.5C 1211.67,797.833 1212.33,797.833 1213,800.5C 1213.67,796.5 1214.33,796.5 1215,800.5C 1215.18,797.635 1215.68,794.969 1216.5,792.5 Z"/></g>
<g><path style="opacity:1" fill="#477ac5" d="M 948.5,859.5 C 948.173,901.906 948.506,944.239 949.5,986.5C 947.379,986.675 945.379,986.341 943.5,985.5C 941.723,984.4 939.723,983.566 937.5,983C 938.832,945.736 938.832,908.569 937.5,871.5C 941.195,867.474 944.862,863.474 948.5,859.5 Z"/></g>
<g><path style="opacity:1" fill="#a2bae1" d="M 926.5,859.5 C 926.938,859.435 927.272,859.601 927.5,860C 926.333,861.167 925.167,862.333 924,863.5C 922.943,870.114 923.443,876.447 925.5,882.5C 911.581,901.147 907.748,921.813 914,944.5C 916.595,951.526 920.095,958.026 924.5,964C 924.167,964.167 923.833,964.333 923.5,964.5C 921.119,962.119 918.785,959.785 916.5,957.5C 902.207,940.405 897.04,920.738 901,898.5C 904.849,884.461 912.015,872.461 922.5,862.5C 923.833,861.5 925.167,860.5 926.5,859.5 Z"/></g>
<g><path style="opacity:1" fill="#5384c9" d="M 937.5,871.5 C 938.832,908.569 938.832,945.736 937.5,983C 939.723,983.566 941.723,984.4 943.5,985.5C 937.334,984.668 931.667,982.668 926.5,979.5C 928.829,946.983 929.162,914.317 927.5,881.5C 930.5,877.833 933.833,874.5 937.5,871.5 Z"/></g>
<g><path style="opacity:1" fill="#7ea0d3" d="M 922.5,862.5 C 912.015,872.461 904.849,884.461 901,898.5C 897.04,920.738 902.207,940.405 916.5,957.5C 915.809,961.899 915.142,966.399 914.5,971C 915.056,971.383 915.389,971.883 915.5,972.5C 895.865,957.727 886.199,937.894 886.5,913C 887.658,889.183 897.658,870.016 916.5,855.5C 918.592,855.439 920.092,854.439 921,852.5C 921.179,856.025 921.679,859.359 922.5,862.5 Z"/></g>
<g><path style="opacity:1" fill="#628fcd" d="M 927.5,881.5 C 929.162,914.317 928.829,946.983 926.5,979.5C 922.046,978.374 918.379,976.041 915.5,972.5C 915.389,971.883 915.056,971.383 914.5,971C 915.142,966.399 915.809,961.899 916.5,957.5C 918.785,959.785 921.119,962.119 923.5,964.5C 923.833,964.333 924.167,964.167 924.5,964C 920.095,958.026 916.595,951.526 914,944.5C 907.748,921.813 911.581,901.147 925.5,882.5C 926.167,882.167 926.833,881.833 927.5,881.5 Z"/></g>
<g><path style="opacity:1" fill="#fb3e3b" d="M 1165.5,861.5 C 1163.28,865.235 1160.44,868.568 1157,871.5C 1156.33,872.167 1156.33,872.833 1157,873.5C 1164.67,873.167 1172.33,872.833 1180,872.5C 1180.28,873.416 1180.78,874.082 1181.5,874.5C 1168.5,888.167 1155.17,901.5 1141.5,914.5C 1132.91,913.695 1124.24,913.195 1115.5,913C 1125.42,903.579 1134.76,893.746 1143.5,883.5C 1150.5,875.833 1157.83,868.5 1165.5,861.5 Z"/></g>
<g><path style="opacity:1" fill="#d15046" d="M 830.5,892.5 C 829.806,904.154 829.473,915.82 829.5,927.5C 828.834,923.347 828.501,919.013 828.5,914.5C 828.398,906.948 829.065,899.615 830.5,892.5 Z"/></g>
<g><path style="opacity:1" fill="#f9423f" d="M 836.5,871.5 C 836.369,872.239 836.536,872.906 837,873.5C 843,872.167 849,872.167 855,873.5C 855.333,872.833 855.667,872.167 856,871.5C 856.278,872.416 856.778,873.082 857.5,873.5C 850.138,895 848.471,917 852.5,939.5C 852.5,941.833 852.5,944.167 852.5,946.5C 846.242,946.19 840.076,946.524 834,947.5C 833.383,946.551 833.549,945.718 834.5,945C 833.906,944.536 833.239,944.369 832.5,944.5C 830.613,939.128 829.613,933.461 829.5,927.5C 829.473,915.82 829.806,904.154 830.5,892.5C 831.122,884.997 833.122,877.997 836.5,871.5 Z"/></g>
<g><path style="opacity:1" fill="#f94441" d="M 1143.5,883.5 C 1134.76,893.746 1125.42,903.579 1115.5,913C 1124.24,913.195 1132.91,913.695 1141.5,914.5C 1131.17,925.5 1120.5,936.167 1109.5,946.5C 1100.49,946.666 1091.49,946.5 1082.5,946C 1087.77,941.241 1092.43,936.075 1096.5,930.5C 1111.83,914.5 1127.5,898.833 1143.5,883.5 Z"/></g>
<g><path style="opacity:1" fill="#fafafb" d="M 1219.5,956.5 C 1240.17,956.333 1260.84,956.5 1281.5,957C 1287.42,958.255 1290.42,961.922 1290.5,968C 1290.16,974.021 1289,979.855 1287,985.5C 1286.17,986.333 1285.33,987.167 1284.5,988C 1269.91,989.45 1255.24,989.95 1240.5,989.5C 1240.24,994.566 1239.58,999.566 1238.5,1004.5C 1248.48,1005.33 1258.48,1005.83 1268.5,1006C 1274.18,1007.18 1277.18,1010.68 1277.5,1016.5C 1276.99,1021.89 1276.16,1027.22 1275,1032.5C 1273.74,1035.43 1271.57,1037.26 1268.5,1038C 1257.15,1038.17 1245.82,1038.67 1234.5,1039.5C 1232.17,1054.12 1230,1068.79 1228,1083.5C 1224.21,1088.21 1219.21,1090.21 1213,1089.5C 1200.4,1089.9 1195.4,1083.9 1198,1071.5C 1202.75,1034.73 1208.09,998.059 1214,961.5C 1215.73,959.598 1217.56,957.931 1219.5,956.5 Z"/></g>
<g><path style="opacity:1" fill="#f9f9fa" d="M 1341.5,956.5 C 1347.58,956.196 1353.58,956.696 1359.5,958C 1361.33,959.167 1362.83,960.667 1364,962.5C 1371.48,1000.88 1378.31,1039.38 1384.5,1078C 1383.32,1087.32 1377.99,1091.16 1368.5,1089.5C 1363.95,1089.7 1359.62,1088.87 1355.5,1087C 1353.4,1084.96 1352.23,1082.46 1352,1079.5C 1350.4,1071.22 1349.23,1062.89 1348.5,1054.5C 1341.49,1054.33 1334.49,1054.5 1327.5,1055C 1322.95,1064.65 1318.78,1074.49 1315,1084.5C 1311.08,1088.53 1306.25,1090.2 1300.5,1089.5C 1287.78,1090.29 1282.94,1084.62 1286,1072.5C 1301.53,1036.92 1316.86,1001.25 1332,965.5C 1333.81,960.852 1336.98,957.852 1341.5,956.5 Z"/></g>
<g><path style="opacity:1" fill="#f9f9f9" d="M 1428.5,956.5 C 1444.17,956.333 1459.84,956.5 1475.5,957C 1492.29,959.126 1501.79,968.626 1504,985.5C 1504.79,999.784 1501.13,1012.78 1493,1024.5C 1489.96,1027.93 1486.46,1030.77 1482.5,1033C 1488.68,1046.87 1494.18,1061.04 1499,1075.5C 1499.41,1086.41 1494.08,1091.07 1483,1089.5C 1477.8,1089.92 1472.97,1088.92 1468.5,1086.5C 1462.64,1071.41 1456.47,1056.41 1450,1041.5C 1447.17,1039.66 1444.01,1038.99 1440.5,1039.5C 1438.91,1054.58 1436.74,1069.58 1434,1084.5C 1430.24,1088.45 1425.58,1090.11 1420,1089.5C 1405.55,1089.67 1400.55,1082.67 1405,1068.5C 1409.5,1034.48 1414.17,1000.48 1419,966.5C 1420.01,960.988 1423.18,957.655 1428.5,956.5 Z"/></g>
<g><path style="opacity:1" fill="#fbf7f7" d="M 1544.5,956.5 C 1552.57,956.137 1560.57,956.637 1568.5,958C 1570.33,959.167 1571.83,960.667 1573,962.5C 1575.83,981.801 1578.5,1001.13 1581,1020.5C 1588.61,1000.34 1596.61,980.341 1605,960.5C 1609.75,957.149 1615.09,955.816 1621,956.5C 1631.71,954.248 1637.55,958.414 1638.5,969C 1633.51,1007.61 1628.01,1046.11 1622,1084.5C 1618.24,1088.45 1613.58,1090.11 1608,1089.5C 1598.53,1090.85 1593.37,1086.85 1592.5,1077.5C 1593.45,1073.17 1593.95,1068.84 1594,1064.5C 1591.67,1070.5 1589.33,1076.5 1587,1082.5C 1583.83,1088.02 1579,1090.35 1572.5,1089.5C 1566.46,1090.13 1561.63,1088.13 1558,1083.5C 1556.43,1075.91 1555.43,1068.25 1555,1060.5C 1554.25,1067.54 1553.25,1074.54 1552,1081.5C 1551.31,1084.2 1549.81,1086.36 1547.5,1088C 1540.51,1089.95 1533.51,1089.95 1526.5,1088C 1522.96,1085.05 1521.29,1081.21 1521.5,1076.5C 1526.53,1038.07 1532.03,999.736 1538,961.5C 1539.8,959.174 1541.97,957.508 1544.5,956.5 Z"/></g>
<g><path style="opacity:1" fill="#fbf7f7" d="M 1699.5,956.5 C 1705.58,956.196 1711.58,956.696 1717.5,958C 1719.33,959.167 1720.83,960.667 1722,962.5C 1729.48,1000.88 1736.31,1039.38 1742.5,1078C 1741.32,1087.32 1735.99,1091.16 1726.5,1089.5C 1721.95,1089.7 1717.62,1088.87 1713.5,1087C 1711.4,1084.96 1710.23,1082.46 1710,1079.5C 1708.4,1071.22 1707.23,1062.89 1706.5,1054.5C 1699.49,1054.33 1692.49,1054.5 1685.5,1055C 1680.95,1064.65 1676.78,1074.49 1673,1084.5C 1669.08,1088.53 1664.25,1090.2 1658.5,1089.5C 1645.78,1090.29 1640.94,1084.62 1644,1072.5C 1659.53,1036.92 1674.86,1001.25 1690,965.5C 1691.81,960.852 1694.98,957.852 1699.5,956.5 Z"/></g>
<g><path style="opacity:1" fill="#5184c9" d="M 1222.5,966.5 C 1241.84,966.167 1261.18,966.5 1280.5,967.5C 1279.83,971.167 1279.17,974.833 1278.5,978.5C 1262.85,979.499 1247.18,979.833 1231.5,979.5C 1230.26,991.502 1228.93,1003.5 1227.5,1015.5C 1240.83,1015.5 1254.17,1015.5 1267.5,1015.5C 1266.71,1019.79 1266.37,1024.12 1266.5,1028.5C 1252.83,1028.5 1239.17,1028.5 1225.5,1028.5C 1223.07,1045.48 1220.74,1062.48 1218.5,1079.5C 1214.83,1079.5 1211.17,1079.5 1207.5,1079.5C 1212.39,1041.82 1217.39,1004.15 1222.5,966.5 Z"/></g>
<g><path style="opacity:1" fill="#5784c7" d="M 1366.5,1035.5 C 1365.99,1037.37 1365.32,1039.2 1364.5,1041C 1364.64,1041.77 1364.98,1042.44 1365.5,1043C 1364.07,1045.88 1362.4,1048.55 1360.5,1051C 1362.6,1052.73 1362.44,1054.56 1360,1056.5C 1359.72,1055.58 1359.22,1054.92 1358.5,1054.5C 1357.57,1051.34 1356.9,1048.01 1356.5,1044.5C 1344.5,1044.33 1332.5,1044.5 1320.5,1045C 1315.94,1056.19 1311.27,1067.36 1306.5,1078.5C 1302.5,1079.83 1298.5,1079.83 1294.5,1078.5C 1310.33,1041.5 1326.17,1004.5 1342,967.5C 1346.4,966.533 1350.9,966.2 1355.5,966.5C 1359.3,989.48 1362.96,1012.48 1366.5,1035.5 Z"/></g>
<g><path style="opacity:1" fill="#8b7aa7" d="M 1455.5,966.5 C 1455.14,968.967 1453.81,971.134 1451.5,973C 1452.65,973.914 1452.49,974.747 1451,975.5C 1450.67,975.167 1450.33,974.833 1450,974.5C 1449.65,976.247 1449.15,977.914 1448.5,979.5C 1445.17,979.5 1441.83,979.5 1438.5,979.5C 1437.93,985.511 1437.26,991.511 1436.5,997.5C 1434.69,999.385 1433.52,1001.72 1433,1004.5C 1432.67,1003.83 1432.33,1003.17 1432,1002.5C 1429.56,1004.44 1429.4,1006.27 1431.5,1008C 1430.77,1009.4 1430.27,1010.9 1430,1012.5C 1429.67,1011.83 1429.33,1011.17 1429,1010.5C 1427.8,1013.77 1426.8,1017.11 1426,1020.5C 1425.67,1019.17 1425.33,1017.83 1425,1016.5C 1424.78,1018.38 1424.12,1020.05 1423,1021.5C 1422.52,1020.55 1422.35,1019.55 1422.5,1018.5C 1424.72,1001.19 1426.72,983.859 1428.5,966.5C 1437.5,966.5 1446.5,966.5 1455.5,966.5 Z"/></g>
<g><path style="opacity:1" fill="#9f7496" d="M 1455.5,966.5 C 1463.2,966.354 1470.86,966.687 1478.5,967.5C 1477.4,968.397 1477.4,969.23 1478.5,970C 1475.59,972.99 1473.59,976.49 1472.5,980.5C 1464.56,979.563 1456.56,979.23 1448.5,979.5C 1449.15,977.914 1449.65,976.247 1450,974.5C 1450.33,974.833 1450.67,975.167 1451,975.5C 1452.49,974.747 1452.65,973.914 1451.5,973C 1453.81,971.134 1455.14,968.967 1455.5,966.5 Z"/></g>
<g><path style="opacity:1" fill="#e15153" d="M 1566.5,989.5 C 1564.59,990.975 1563.42,992.975 1563,995.5C 1562.67,994.833 1562.33,994.167 1562,993.5C 1559.9,996.829 1558.73,1000.5 1558.5,1004.5C 1557.73,998.154 1556.56,991.821 1555,985.5C 1554.16,990.855 1553.33,996.189 1552.5,1001.5C 1546.11,1008.47 1541.77,1016.31 1539.5,1025C 1541.1,1026.73 1540.76,1027.56 1538.5,1027.5C 1541.17,1007.16 1543.83,986.832 1546.5,966.5C 1552.17,966.5 1557.83,966.5 1563.5,966.5C 1564.83,974.121 1565.83,981.787 1566.5,989.5 Z"/></g>
<g><path style="opacity:1" fill="#ff0804" d="M 1700.5,966.5 C 1705,965.945 1709.16,966.611 1713,968.5C 1719.5,1005.51 1726,1042.51 1732.5,1079.5C 1728.17,1079.5 1723.83,1079.5 1719.5,1079.5C 1718.48,1068.06 1716.82,1056.73 1714.5,1045.5C 1702.51,1044.33 1690.51,1044.17 1678.5,1045C 1673.7,1056.09 1669.04,1067.26 1664.5,1078.5C 1660.5,1079.83 1656.5,1079.83 1652.5,1078.5C 1668.7,1041.22 1684.7,1003.89 1700.5,966.5 Z"/></g>
<g><path style="opacity:1" fill="#fcfcfc" d="M 1448.5,979.5 C 1456.56,979.23 1464.56,979.563 1472.5,980.5C 1480.31,983.453 1483.48,989.12 1482,997.5C 1478.28,1012.96 1468.45,1019.29 1452.5,1016.5C 1446.13,1016.83 1439.8,1016.5 1433.5,1015.5C 1434.83,1009.56 1435.83,1003.56 1436.5,997.5C 1437.26,991.511 1437.93,985.511 1438.5,979.5C 1441.83,979.5 1445.17,979.5 1448.5,979.5 Z"/></g>
<g><path style="opacity:1" fill="#f9fafc" d="M 1346.5,979.5 C 1348.96,996.406 1351.63,1013.41 1354.5,1030.5C 1345.19,1031.5 1335.86,1031.83 1326.5,1031.5C 1333.72,1014.38 1340.39,997.051 1346.5,979.5 Z"/></g>
<g><path style="opacity:1" fill="#fef6f6" d="M 1704.5,979.5 C 1707.26,996.683 1709.93,1014.02 1712.5,1031.5C 1703.17,1031.5 1693.83,1031.5 1684.5,1031.5C 1691.36,1014.25 1698.03,996.919 1704.5,979.5 Z"/></g>
<g><path style="opacity:1" fill="#b66b81" d="M 1478.5,967.5 C 1489.88,971.262 1494.88,979.262 1493.5,991.5C 1493.85,1010.95 1484.85,1023.45 1466.5,1029C 1470.86,1032.23 1473.86,1036.39 1475.5,1041.5C 1473.62,1041.39 1473.29,1041.89 1474.5,1043C 1472.51,1044.32 1471.35,1046.15 1471,1048.5C 1469.83,1049.89 1468.33,1050.73 1466.5,1051C 1470.45,1051.81 1470.45,1052.31 1466.5,1052.5C 1463.91,1045.98 1460.74,1039.65 1457,1033.5C 1453.82,1030.33 1449.99,1028.99 1445.5,1029.5C 1446.26,1026.15 1447.93,1023.31 1450.5,1021C 1449.48,1019.95 1449.32,1018.78 1450,1017.5C 1451.16,1018.57 1451.99,1018.23 1452.5,1016.5C 1468.45,1019.29 1478.28,1012.96 1482,997.5C 1483.48,989.12 1480.31,983.453 1472.5,980.5C 1473.59,976.49 1475.59,972.99 1478.5,970C 1477.4,969.23 1477.4,968.397 1478.5,967.5 Z"/></g>
<g><path style="opacity:1" fill="#f94d4b" d="M 1096.5,930.5 C 1092.43,936.075 1087.77,941.241 1082.5,946C 1091.49,946.5 1100.49,946.666 1109.5,946.5C 1075.5,981.167 1041.17,1015.5 1006.5,1049.5C 998.493,1049.67 990.493,1049.5 982.5,1049C 982.167,1048.67 981.833,1048.33 981.5,1048C 982.758,1046.26 983.758,1044.43 984.5,1042.5C 1000.41,1028.09 1015.91,1013.09 1031,997.5C 1031.46,996.906 1031.63,996.239 1031.5,995.5C 1052.83,973.5 1074.5,951.833 1096.5,930.5 Z"/></g>
<g><path style="opacity:1" fill="#f64d4b" d="M 852.5,939.5 C 856.695,955.558 863.862,970.225 874,983.5C 893.673,1004.01 913.507,1024.34 933.5,1044.5C 933.751,1046.17 934.418,1047.67 935.5,1049C 926.452,1049.78 917.452,1049.61 908.5,1048.5C 887.774,1029.28 868.274,1008.94 850,987.5C 844.866,979.565 840.533,971.232 837,962.5C 834.969,956.585 833.469,950.585 832.5,944.5C 833.239,944.369 833.906,944.536 834.5,945C 833.549,945.718 833.383,946.551 834,947.5C 840.076,946.524 846.242,946.19 852.5,946.5C 852.5,944.167 852.5,941.833 852.5,939.5 Z"/></g>
<g><path style="opacity:1" fill="#080808" d="M 1447.5,989.5 C 1455.17,989.334 1462.84,989.5 1470.5,990C 1471.98,991.299 1472.65,992.966 1472.5,995C 1471.68,999.64 1469.35,1003.31 1465.5,1006C 1458.84,1006.5 1452.17,1006.67 1445.5,1006.5C 1445.92,1000.8 1446.59,995.131 1447.5,989.5 Z"/></g>
<g><path style="opacity:1" fill="#ed3f3e" d="M 1566.5,989.5 C 1567.66,997.478 1568.66,1005.48 1569.5,1013.5C 1567.21,1011.97 1566.54,1012.3 1567.5,1014.5C 1566.82,1017.46 1565.98,1017.79 1565,1015.5C 1562.7,1018.69 1561.7,1022.02 1562,1025.5C 1561.72,1024.58 1561.22,1023.92 1560.5,1023.5C 1559.75,1017.18 1559.08,1010.84 1558.5,1004.5C 1558.73,1000.5 1559.9,996.829 1562,993.5C 1562.33,994.167 1562.67,994.833 1563,995.5C 1563.42,992.975 1564.59,990.975 1566.5,989.5 Z"/></g>
<g><path style="opacity:1" fill="#9d7699" d="M 1436.5,997.5 C 1435.83,1003.56 1434.83,1009.56 1433.5,1015.5C 1439.8,1016.5 1446.13,1016.83 1452.5,1016.5C 1451.99,1018.23 1451.16,1018.57 1450,1017.5C 1449.32,1018.78 1449.48,1019.95 1450.5,1021C 1447.93,1023.31 1446.26,1026.15 1445.5,1029.5C 1440.83,1029.5 1436.17,1029.5 1431.5,1029.5C 1429.82,1046.21 1427.82,1062.88 1425.5,1079.5C 1421.83,1079.5 1418.17,1079.5 1414.5,1079.5C 1416.44,1058.94 1419.11,1038.61 1422.5,1018.5C 1422.35,1019.55 1422.52,1020.55 1423,1021.5C 1424.12,1020.05 1424.78,1018.38 1425,1016.5C 1425.33,1017.83 1425.67,1019.17 1426,1020.5C 1426.8,1017.11 1427.8,1013.77 1429,1010.5C 1429.33,1011.17 1429.67,1011.83 1430,1012.5C 1430.27,1010.9 1430.77,1009.4 1431.5,1008C 1429.4,1006.27 1429.56,1004.44 1432,1002.5C 1432.33,1003.17 1432.67,1003.83 1433,1004.5C 1433.52,1001.72 1434.69,999.385 1436.5,997.5 Z"/></g>
<g><path style="opacity:1" fill="#ea4342" d="M 1552.5,1001.5 C 1550.57,1018.57 1548.24,1035.57 1545.5,1052.5C 1543.08,1055.94 1540.74,1059.44 1538.5,1063C 1538.96,1063.41 1539.29,1063.91 1539.5,1064.5C 1537.14,1069.48 1534.47,1074.15 1531.5,1078.5C 1533.74,1061.48 1536.07,1044.48 1538.5,1027.5C 1540.76,1027.56 1541.1,1026.73 1539.5,1025C 1541.77,1016.31 1546.11,1008.47 1552.5,1001.5 Z"/></g>
<g><path style="opacity:1" fill="#fe150f" d="M 1565.5,1062.5 C 1565.72,1059.9 1566.22,1059.9 1567,1062.5C 1567.2,1060.6 1568.03,1059.1 1569.5,1058C 1569.17,1057.67 1568.83,1057.33 1568.5,1057C 1570.52,1056.5 1572.52,1056 1574.5,1055.5C 1574.34,1057.86 1574.5,1060.19 1575,1062.5C 1588.19,1030.77 1600.69,998.774 1612.5,966.5C 1617.83,966.5 1623.17,966.5 1628.5,966.5C 1623.22,1004.13 1618.22,1041.79 1613.5,1079.5C 1609.83,1079.5 1606.17,1079.5 1602.5,1079.5C 1606.75,1047.8 1610.92,1016.13 1615,984.5C 1602.6,1015.87 1590.1,1047.21 1577.5,1078.5C 1574.23,1079.49 1570.9,1079.82 1567.5,1079.5C 1566.75,1073.84 1566.08,1068.18 1565.5,1062.5 Z"/></g>
<g><path style="opacity:1" fill="#f6322d" d="M 1569.5,1013.5 C 1571.33,1027.48 1573,1041.48 1574.5,1055.5C 1572.52,1056 1570.52,1056.5 1568.5,1057C 1568.83,1057.33 1569.17,1057.67 1569.5,1058C 1568.03,1059.1 1567.2,1060.6 1567,1062.5C 1566.22,1059.9 1565.72,1059.9 1565.5,1062.5C 1563.89,1049.63 1562.23,1036.63 1560.5,1023.5C 1561.22,1023.92 1561.72,1024.58 1562,1025.5C 1561.7,1022.02 1562.7,1018.69 1565,1015.5C 1565.98,1017.79 1566.82,1017.46 1567.5,1014.5C 1566.54,1012.3 1567.21,1011.97 1569.5,1013.5 Z"/></g>
<g><path style="opacity:1" fill="#dd544e" d="M 1031.5,995.5 C 1031.63,996.239 1031.46,996.906 1031,997.5C 1015.91,1013.09 1000.41,1028.09 984.5,1042.5C 999.833,1026.5 1015.5,1010.83 1031.5,995.5 Z"/></g>
<g><path style="opacity:1" fill="#c56370" d="M 1475.5,1041.5 C 1477.17,1045.5 1478.83,1049.5 1480.5,1053.5C 1479.73,1054.26 1479.23,1055.26 1479,1056.5C 1478.19,1054.1 1477.36,1054.27 1476.5,1057C 1477.5,1058 1478.5,1059 1479.5,1060C 1477.61,1061.1 1476.94,1062.43 1477.5,1064C 1476.53,1065.2 1475.53,1065.7 1474.5,1065.5C 1475.67,1066.91 1475.33,1068.07 1473.5,1069C 1474.17,1069.99 1474.17,1071.15 1473.5,1072.5C 1470.79,1066.05 1468.46,1059.38 1466.5,1052.5C 1470.45,1052.31 1470.45,1051.81 1466.5,1051C 1468.33,1050.73 1469.83,1049.89 1471,1048.5C 1471.35,1046.15 1472.51,1044.32 1474.5,1043C 1473.29,1041.89 1473.62,1041.39 1475.5,1041.5 Z"/></g>
<g><path style="opacity:1" fill="#787fb4" d="M 1366.5,1035.5 C 1369.99,1049.88 1372.66,1064.55 1374.5,1079.5C 1370.17,1079.5 1365.83,1079.5 1361.5,1079.5C 1360.74,1071.13 1359.74,1062.79 1358.5,1054.5C 1359.22,1054.92 1359.72,1055.58 1360,1056.5C 1362.44,1054.56 1362.6,1052.73 1360.5,1051C 1362.4,1048.55 1364.07,1045.88 1365.5,1043C 1364.98,1042.44 1364.64,1041.77 1364.5,1041C 1365.32,1039.2 1365.99,1037.37 1366.5,1035.5 Z"/></g>
<g><path style="opacity:1" fill="#f75252" d="M 984.5,1042.5 C 983.758,1044.43 982.758,1046.26 981.5,1048C 981.833,1048.33 982.167,1048.67 982.5,1049C 990.493,1049.5 998.493,1049.67 1006.5,1049.5C 990.535,1065.97 974.368,1082.3 958,1098.5C 941.298,1081.97 924.798,1065.3 908.5,1048.5C 917.452,1049.61 926.452,1049.78 935.5,1049C 934.418,1047.67 933.751,1046.17 933.5,1044.5C 941.507,1052.34 949.674,1060.01 958,1067.5C 966.993,1059.34 975.826,1051.01 984.5,1042.5 Z"/></g>
<g><path style="opacity:1" fill="#d05c64" d="M 1480.5,1053.5 C 1483.36,1062.05 1486.36,1070.55 1489.5,1079C 1484.8,1079.83 1480.13,1079.66 1475.5,1078.5C 1474.63,1076.55 1473.96,1074.55 1473.5,1072.5C 1474.17,1071.15 1474.17,1069.99 1473.5,1069C 1475.33,1068.07 1475.67,1066.91 1474.5,1065.5C 1475.53,1065.7 1476.53,1065.2 1477.5,1064C 1476.94,1062.43 1477.61,1061.1 1479.5,1060C 1478.5,1059 1477.5,1058 1476.5,1057C 1477.36,1054.27 1478.19,1054.1 1479,1056.5C 1479.23,1055.26 1479.73,1054.26 1480.5,1053.5 Z"/></g>
<g><path style="opacity:1" fill="#f23432" d="M 1545.5,1052.5 C 1544.41,1061.49 1543.41,1070.49 1542.5,1079.5C 1538.63,1079.81 1534.96,1079.48 1531.5,1078.5C 1534.47,1074.15 1537.14,1069.48 1539.5,1064.5C 1539.29,1063.91 1538.96,1063.41 1538.5,1063C 1540.74,1059.44 1543.08,1055.94 1545.5,1052.5 Z"/></g>
</svg>
