<?xml version="1.0" encoding="UTF-8"?>
<!DOCTYPE svg PUBLIC "-//W3C//DTD SVG 1.1//EN" "http://www.w3.org/Graphics/SVG/1.1/DTD/svg11.dtd">
<svg xmlns="http://www.w3.org/2000/svg" version="1.1" width="2445px" height="1756px" style="shape-rendering:geometricPrecision; text-rendering:geometricPrecision; image-rendering:optimizeQuality; fill-rule:evenodd; clip-rule:evenodd" xmlns:xlink="http://www.w3.org/1999/xlink">
<g><path style="opacity:1" fill="#fefefe" d="M -0.5,-0.5 C 814.5,-0.5 1629.5,-0.5 2444.5,-0.5C 2444.5,584.833 2444.5,1170.17 2444.5,1755.5C 1629.5,1755.5 814.5,1755.5 -0.5,1755.5C -0.5,1170.17 -0.5,584.833 -0.5,-0.5 Z"/></g>
<g><path style="opacity:1" fill="#5f8dcd" d="M 821.5,657.5 C 789.925,726.395 757.925,795.062 725.5,863.5C 722.687,860.554 720.354,857.221 718.5,853.5C 718.511,851.983 719.177,850.816 720.5,850C 719.167,848.16 719.334,847.66 721,848.5C 722.688,847.675 722.855,846.675 721.5,845.5C 723.717,842.932 724.884,839.932 725,836.5C 725.333,837.5 725.667,838.5 726,839.5C 727.928,833.639 730.428,827.972 733.5,822.5C 733.291,821.914 732.957,821.414 732.5,821C 733.109,818.942 734.109,818.109 735.5,818.5C 735.167,817.833 734.833,817.167 734.5,816.5C 735.806,815.088 736.64,813.421 737,811.5C 737.805,813.901 738.638,813.734 739.5,811C 739.167,810.667 738.833,810.333 738.5,810C 739.833,807.333 741.167,804.667 742.5,802C 741.216,800.703 741.383,799.536 743,798.5C 743.333,798.833 743.667,799.167 744,799.5C 745.368,798.007 745.535,796.507 744.5,795C 745.126,794.25 745.626,793.416 746,792.5C 746.333,792.833 746.667,793.167 747,793.5C 748.044,791.285 748.71,788.952 749,786.5C 750.666,787.34 750.833,786.84 749.5,785C 750.863,783.055 751.697,780.888 752,778.5C 752.333,779.5 752.667,780.5 753,781.5C 754.817,775.554 757.317,769.887 760.5,764.5C 760.291,763.914 759.957,763.414 759.5,763C 760.109,760.942 761.109,760.109 762.5,760.5C 761.674,759.549 761.508,758.549 762,757.5C 762.92,757.07 763.753,756.736 764.5,756.5C 764.291,755.914 763.957,755.414 763.5,755C 765.354,752.457 766.521,749.624 767,746.5C 767.333,747.5 767.667,748.5 768,749.5C 769.44,744.232 771.94,738.399 775.5,732C 775.167,731.667 774.833,731.333 774.5,731C 775.109,728.942 776.109,728.109 777.5,728.5C 776.674,727.549 776.508,726.549 777,725.5C 777.667,724.167 778.333,724.167 779,725.5C 780.368,724.007 780.535,722.507 779.5,721C 782.915,714.436 787.248,706.269 792.5,696.5C 792.167,695.833 791.833,695.167 791.5,694.5C 792.512,692.136 793.845,690.802 795.5,690.5C 795.291,689.914 794.957,689.414 794.5,689C 795.525,686.929 796.358,684.762 797,682.5C 797.333,683.5 797.667,684.5 798,685.5C 798.543,681.255 800.043,677.421 802.5,674C 801.216,672.703 801.383,671.536 803,670.5C 803.333,670.833 803.667,671.167 804,671.5C 804.93,669.064 806.097,666.731 807.5,664.5C 806.141,662.694 806.475,661.194 808.5,660C 807.833,659.667 807.167,659.333 806.5,659C 811.464,658.088 816.464,657.588 821.5,657.5 Z"/></g>
<g><path style="opacity:1" fill="#5686ca" d="M 821.5,656.5 C 831.721,656.127 841.721,656.793 851.5,658.5C 849.833,658.5 848.167,658.5 846.5,658.5C 812.425,733.368 777.758,808.035 742.5,882.5C 735.75,877.086 730.083,870.753 725.5,863.5C 757.925,795.062 789.925,726.395 821.5,657.5C 821.5,657.167 821.5,656.833 821.5,656.5 Z"/></g>
<g><path style="opacity:1" fill="#6792cf" d="M 821.5,656.5 C 821.5,656.833 821.5,657.167 821.5,657.5C 816.464,657.588 811.464,658.088 806.5,659C 807.167,659.333 807.833,659.667 808.5,660C 806.475,661.194 806.141,662.694 807.5,664.5C 806.097,666.731 804.93,669.064 804,671.5C 803.667,671.167 803.333,670.833 803,670.5C 801.383,671.536 801.216,672.703 802.5,674C 800.043,677.421 798.543,681.255 798,685.5C 797.667,684.5 797.333,683.5 797,682.5C 796.358,684.762 795.525,686.929 794.5,689C 794.957,689.414 795.291,689.914 795.5,690.5C 793.845,690.802 792.512,692.136 791.5,694.5C 791.833,695.167 792.167,695.833 792.5,696.5C 787.248,706.269 782.915,714.436 779.5,721C 780.535,722.507 780.368,724.007 779,725.5C 778.333,724.167 777.667,724.167 777,725.5C 776.508,726.549 776.674,727.549 777.5,728.5C 776.109,728.109 775.109,728.942 774.5,731C 774.833,731.333 775.167,731.667 775.5,732C 771.94,738.399 769.44,744.232 768,749.5C 767.667,748.5 767.333,747.5 767,746.5C 766.521,749.624 765.354,752.457 763.5,755C 763.957,755.414 764.291,755.914 764.5,756.5C 763.753,756.736 762.92,757.07 762,757.5C 761.508,758.549 761.674,759.549 762.5,760.5C 761.109,760.109 760.109,760.942 759.5,763C 759.957,763.414 760.291,763.914 760.5,764.5C 757.317,769.887 754.817,775.554 753,781.5C 752.667,780.5 752.333,779.5 752,778.5C 751.697,780.888 750.863,783.055 749.5,785C 750.833,786.84 750.666,787.34 749,786.5C 748.71,788.952 748.044,791.285 747,793.5C 746.667,793.167 746.333,792.833 746,792.5C 745.626,793.416 745.126,794.25 744.5,795C 745.535,796.507 745.368,798.007 744,799.5C 743.667,799.167 743.333,798.833 743,798.5C 741.383,799.536 741.216,800.703 742.5,802C 741.167,804.667 739.833,807.333 738.5,810C 738.833,810.333 739.167,810.667 739.5,811C 738.638,813.734 737.805,813.901 737,811.5C 736.64,813.421 735.806,815.088 734.5,816.5C 734.833,817.167 735.167,817.833 735.5,818.5C 734.109,818.109 733.109,818.942 732.5,821C 732.957,821.414 733.291,821.914 733.5,822.5C 730.428,827.972 727.928,833.639 726,839.5C 725.667,838.5 725.333,837.5 725,836.5C 724.884,839.932 723.717,842.932 721.5,845.5C 722.855,846.675 722.688,847.675 721,848.5C 719.334,847.66 719.167,848.16 720.5,850C 719.177,850.816 718.511,851.983 718.5,853.5C 714.051,846.267 710.385,838.601 707.5,830.5C 732.789,778.919 757.289,726.919 781,674.5C 783.278,670.258 785.778,666.258 788.5,662.5C 799.082,658.458 810.082,656.458 821.5,656.5 Z"/></g>
<g><path style="opacity:1" fill="#4f81c8" d="M 851.5,658.5 C 855.04,658.753 858.373,659.419 861.5,660.5C 860.5,660.5 859.5,660.5 858.5,660.5C 830.727,722.65 801.893,784.316 772,845.5C 768.171,855.68 763.838,865.68 759,875.5C 756.629,880.798 753.796,885.798 750.5,890.5C 747.5,888.167 744.833,885.5 742.5,882.5C 777.758,808.035 812.425,733.368 846.5,658.5C 848.167,658.5 849.833,658.5 851.5,658.5 Z"/></g>
<g><path style="opacity:1" fill="#487bc6" d="M 861.5,660.5 C 868.442,661.507 874.775,663.84 880.5,667.5C 879.178,667.33 878.011,667.663 877,668.5C 840.355,747.788 803.188,826.788 765.5,905.5C 760.167,900.833 755.167,895.833 750.5,890.5C 753.796,885.798 756.629,880.798 759,875.5C 763.838,865.68 768.171,855.68 772,845.5C 801.893,784.316 830.727,722.65 858.5,660.5C 859.5,660.5 860.5,660.5 861.5,660.5 Z"/></g>
<g><path style="opacity:1" fill="#6e97d2" d="M 788.5,662.5 C 785.778,666.258 783.278,670.258 781,674.5C 757.289,726.919 732.789,778.919 707.5,830.5C 704.445,823.575 702.445,816.242 701.5,808.5C 722.43,764.82 743.43,719.82 764.5,673.5C 771.923,668.792 779.923,665.125 788.5,662.5 Z"/></g>
<g><path style="opacity:1" fill="#3f74c2" d="M 880.5,667.5 C 886.876,669.221 892.543,672.221 897.5,676.5C 861.042,753.582 824.876,830.915 789,908.5C 786.483,912.873 783.983,917.206 781.5,921.5C 775.833,916.5 770.5,911.167 765.5,905.5C 803.188,826.788 840.355,747.788 877,668.5C 878.011,667.663 879.178,667.33 880.5,667.5 Z"/></g>
<g><path style="opacity:1" fill="#fe1009" d="M 1185.5,701.5 C 1184.93,703.255 1184.09,704.922 1183,706.5C 1182.39,702.728 1181.39,702.728 1180,706.5C 1179.39,702.728 1178.39,702.728 1177,706.5C 1176.39,702.728 1175.39,702.728 1174,706.5C 1173.39,702.728 1172.39,702.728 1171,706.5C 1170.39,702.728 1169.39,702.728 1168,706.5C 1167.39,702.728 1166.39,702.728 1165,706.5C 1164.67,705.5 1164.33,704.5 1164,703.5C 1163.15,704.571 1162.31,705.571 1161.5,706.5C 1120.48,672.783 1076.48,668.45 1029.5,693.5C 1028.25,693.423 1027.42,692.756 1027,691.5C 1026.33,694.167 1025.67,694.167 1025,691.5C 1024.33,694.167 1023.67,694.167 1023,691.5C 1022.33,694.167 1021.67,694.167 1021,691.5C 1020.33,694.167 1019.67,694.167 1019,691.5C 1018.33,694.167 1017.67,694.167 1017,691.5C 1016.33,694.167 1015.67,694.167 1015,691.5C 1014.33,694.167 1013.67,694.167 1013,691.5C 1012.33,694.167 1011.67,694.167 1011,691.5C 1010.33,694.167 1009.67,694.167 1009,691.5C 1008.33,694.167 1007.67,694.167 1007,691.5C 1006.33,694.167 1005.67,694.167 1005,691.5C 1004.33,694.167 1003.67,694.167 1003,691.5C 1002.33,694.167 1001.67,694.167 1001,691.5C 1000.29,693.986 999.462,693.986 998.5,691.5C 1034.13,659.197 1075.46,649.031 1122.5,661C 1147.6,668.296 1168.6,681.796 1185.5,701.5 Z"/></g>
<g><path style="opacity:1" fill="#759cd3" d="M 764.5,673.5 C 743.43,719.82 722.43,764.82 701.5,808.5C 694.115,760.414 708.448,719.914 744.5,687C 750.677,681.747 757.344,677.247 764.5,673.5 Z"/></g>
<g><path style="opacity:1" fill="#fefdfd" d="M 1161.5,706.5 C 1187.11,732.087 1198.44,763.087 1195.5,799.5C 1191.32,823.518 1180.99,844.518 1164.5,862.5C 1148.17,878.167 1132.17,894.167 1116.5,910.5C 1106.83,919.5 1097.5,928.833 1088.5,938.5C 1076.5,949.833 1064.83,961.5 1053.5,973.5C 1046.5,979.833 1039.83,986.5 1033.5,993.5C 1020.17,1006.17 1007.17,1019.17 994.5,1032.5C 982.5,1043.83 970.833,1055.5 959.5,1067.5C 958.448,1067.65 957.448,1067.48 956.5,1067C 934.299,1044.63 911.965,1022.47 889.5,1000.5C 864.934,978.7 851.6,951.366 849.5,918.5C 849.616,895.954 855.283,874.954 866.5,855.5C 882.741,836.922 899.741,818.922 917.5,801.5C 934.275,785.392 950.608,769.058 966.5,752.5C 984.549,735.954 1002.22,718.788 1019.5,701C 1023.08,698.723 1026.41,696.223 1029.5,693.5C 1076.48,668.45 1120.48,672.783 1161.5,706.5 Z"/></g>
<g><path style="opacity:1" fill="#376cbe" d="M 897.5,676.5 C 906.082,681.296 913.748,687.296 920.5,694.5C 917.937,696.612 916.104,699.279 915,702.5C 900.319,733.702 885.819,765.035 871.5,796.5C 857.348,809.834 844.848,824.501 834,840.5C 812.573,878.581 807.906,918.581 820,960.5C 806.965,947.632 794.131,934.632 781.5,921.5C 783.983,917.206 786.483,912.873 789,908.5C 824.876,830.915 861.042,753.582 897.5,676.5 Z"/></g>
<g><path style="opacity:1" fill="#366bbe" d="M 1503.5,680.5 C 1539.76,677.7 1565.26,692.7 1580,725.5C 1589.08,751.417 1592.08,778.084 1589,805.5C 1586.07,837.547 1577.41,867.88 1563,896.5C 1538.94,937.948 1503.77,952.448 1457.5,940C 1435.92,928.738 1422.08,911.238 1416,887.5C 1405.47,835.327 1411.14,784.994 1433,736.5C 1441.94,718.899 1454.44,704.399 1470.5,693C 1480.88,686.934 1491.88,682.767 1503.5,680.5 Z"/></g>
<g><path style="opacity:1" fill="#356abe" d="M 1302.5,684.5 C 1321.84,684.333 1341.17,684.5 1360.5,685C 1390.12,688.284 1406.95,704.784 1411,734.5C 1413.19,760.049 1409.52,784.716 1400,808.5C 1387.94,833.192 1368.11,847.025 1340.5,850C 1331.51,850.5 1322.51,850.666 1313.5,850.5C 1311.6,873.61 1308.76,896.61 1305,919.5C 1301.71,933.292 1293.21,941.792 1279.5,945C 1267.89,945.947 1259.73,941.114 1255,930.5C 1253.19,924.615 1252.03,918.615 1251.5,912.5C 1259.26,848.195 1266.76,783.862 1274,719.5C 1275.77,701.252 1285.27,689.585 1302.5,684.5 Z"/></g>
<g><path style="opacity:1" fill="#356abe" d="M 1640.5,684.5 C 1659.84,684.333 1679.17,684.5 1698.5,685C 1728.12,688.284 1744.95,704.784 1749,734.5C 1751.19,760.049 1747.52,784.716 1738,808.5C 1725.94,833.192 1706.11,847.025 1678.5,850C 1669.51,850.5 1660.51,850.666 1651.5,850.5C 1649.6,873.61 1646.76,896.61 1643,919.5C 1639.71,933.292 1631.21,941.792 1617.5,945C 1605.89,945.947 1597.73,941.114 1593,930.5C 1591.19,924.615 1590.03,918.615 1589.5,912.5C 1597.26,848.195 1604.76,783.862 1612,719.5C 1613.77,701.252 1623.27,689.585 1640.5,684.5 Z"/></g>
<g><path style="opacity:1" fill="#fdfdfe" d="M 1503.5,690.5 C 1538.01,687.548 1561.18,702.214 1573,734.5C 1575.28,741.013 1576.95,747.68 1578,754.5C 1583.81,802.975 1575.81,848.975 1554,892.5C 1541.38,915.441 1522.22,929.608 1496.5,935C 1465.08,938.709 1442.91,926.209 1430,897.5C 1424.6,884.38 1421.6,870.713 1421,856.5C 1417.55,813.061 1425.89,772.061 1446,733.5C 1458.83,710.484 1477.99,696.151 1503.5,690.5 Z"/></g>
<g><path style="opacity:1" fill="#2e66bb" d="M 920.5,694.5 C 929.632,703.131 938.632,711.964 947.5,721C 922.299,746.368 896.965,771.535 871.5,796.5C 885.819,765.035 900.319,733.702 915,702.5C 916.104,699.279 917.937,696.612 920.5,694.5 Z"/></g>
<g><path style="opacity:1" fill="#fdfdfe" d="M 1302.5,694.5 C 1322.5,694.333 1342.5,694.5 1362.5,695C 1382.94,697.765 1395.44,709.265 1400,729.5C 1404.08,754.6 1401.41,778.933 1392,802.5C 1383.96,821.774 1369.79,833.941 1349.5,839C 1334.86,840.061 1320.19,840.894 1305.5,841.5C 1302.49,864.789 1299.65,888.123 1297,911.5C 1295.18,921.653 1290.02,929.486 1281.5,935C 1273.33,936.833 1267.5,933.999 1264,926.5C 1262.16,921.844 1261.32,917.01 1261.5,912C 1268.38,850.113 1275.55,788.28 1283,726.5C 1282.71,711.377 1289.21,700.711 1302.5,694.5 Z"/></g>
<g><path style="opacity:1" fill="#fdfdfe" d="M 1640.5,694.5 C 1660.5,694.333 1680.5,694.5 1700.5,695C 1720.94,697.765 1733.44,709.265 1738,729.5C 1742.08,754.6 1739.41,778.933 1730,802.5C 1721.96,821.774 1707.79,833.941 1687.5,839C 1672.86,840.061 1658.19,840.894 1643.5,841.5C 1640.49,864.789 1637.65,888.123 1635,911.5C 1633.18,921.653 1628.02,929.486 1619.5,935C 1611.33,936.833 1605.5,933.999 1602,926.5C 1600.16,921.844 1599.32,917.01 1599.5,912C 1606.38,850.121 1613.55,788.288 1621,726.5C 1620.71,711.377 1627.21,700.711 1640.5,694.5 Z"/></g>
<g><path style="opacity:1" fill="#fc4442" d="M 1077.5,714.5 C 1085.68,714.174 1093.68,714.508 1101.5,715.5C 1100.36,715.908 1099.36,716.575 1098.5,717.5C 1076.92,756.994 1055.09,796.328 1033,835.5C 1031.59,837.65 1030.76,839.984 1030.5,842.5C 1025.83,838.5 1021.5,834.167 1017.5,829.5C 1038.36,791.613 1059.36,753.78 1080.5,716C 1079.26,715.768 1078.26,715.268 1077.5,714.5 Z"/></g>
<g><path style="opacity:1" fill="#fb4c4a" d="M 1077.5,714.5 C 1078.26,715.268 1079.26,715.768 1080.5,716C 1059.36,753.78 1038.36,791.613 1017.5,829.5C 1006.2,818.702 995.035,807.702 984,796.5C 982.398,794.631 981.398,792.631 981,790.5C 1001.17,770.333 1021.33,750.167 1041.5,730C 1052.19,721.809 1064.19,716.643 1077.5,714.5 Z"/></g>
<g><path style="opacity:1" fill="#fc3d3a" d="M 1101.5,715.5 C 1107.64,716.442 1113.3,718.442 1118.5,721.5C 1117.5,721.414 1116.67,721.748 1116,722.5C 1091.55,766.394 1067.39,810.394 1043.5,854.5C 1039.11,850.444 1034.78,846.444 1030.5,842.5C 1030.76,839.984 1031.59,837.65 1033,835.5C 1055.09,796.328 1076.92,756.994 1098.5,717.5C 1099.36,716.575 1100.36,715.908 1101.5,715.5 Z"/></g>
<g><path style="opacity:1" fill="#fc3532" d="M 1118.5,721.5 C 1125.71,724.601 1132.04,728.934 1137.5,734.5C 1135.96,734.297 1134.62,733.63 1133.5,732.5C 1107.65,777.538 1082.31,822.871 1057.5,868.5C 1052.5,864.167 1047.83,859.5 1043.5,854.5C 1067.39,810.394 1091.55,766.394 1116,722.5C 1116.67,721.748 1117.5,721.414 1118.5,721.5 Z"/></g>
<g><path style="opacity:1" fill="#356abe" d="M 1502.5,731.5 C 1518.59,729.626 1530.09,735.96 1537,750.5C 1540.57,758.8 1542.57,767.466 1543,776.5C 1544.4,801.705 1541.4,826.372 1534,850.5C 1529.84,863.67 1523,875.17 1513.5,885C 1487.23,902.127 1469.4,895.627 1460,865.5C 1452.78,827.616 1457.44,791.282 1474,756.5C 1480.6,744.723 1490.1,736.39 1502.5,731.5 Z"/></g>
<g><path style="opacity:1" fill="#fe221a" d="M 998.5,691.5 C 999.462,693.986 1000.29,693.986 1001,691.5C 1001.67,694.167 1002.33,694.167 1003,691.5C 1003.67,694.167 1004.33,694.167 1005,691.5C 1005.67,694.167 1006.33,694.167 1007,691.5C 1007.67,694.167 1008.33,694.167 1009,691.5C 1009.67,694.167 1010.33,694.167 1011,691.5C 1011.67,694.167 1012.33,694.167 1013,691.5C 1013.67,694.167 1014.33,694.167 1015,691.5C 1015.67,694.167 1016.33,694.167 1017,691.5C 1017.67,694.167 1018.33,694.167 1019,691.5C 1019.67,694.167 1020.33,694.167 1021,691.5C 1021.67,694.167 1022.33,694.167 1023,691.5C 1023.67,694.167 1024.33,694.167 1025,691.5C 1025.67,694.167 1026.33,694.167 1027,691.5C 1027.42,692.756 1028.25,693.423 1029.5,693.5C 1026.41,696.223 1023.08,698.723 1019.5,701C 1002.22,718.788 984.549,735.954 966.5,752.5C 964.871,751.375 963.371,750.041 962,748.5C 961.333,751.167 960.667,751.167 960,748.5C 958.667,751.167 957.333,751.167 956,748.5C 955.333,751.167 954.667,751.167 954,748.5C 952.667,751.167 951.333,751.167 950,748.5C 949.333,751.167 948.667,751.167 948,748.5C 946.47,749.636 945.137,750.636 944,751.5C 942.144,749.263 942.644,747.429 945.5,746C 945.272,745.601 944.938,745.435 944.5,745.5C 962.167,727.167 980.167,709.167 998.5,691.5 Z"/></g>
<g><path style="opacity:1" fill="#356abe" d="M 1317.5,733.5 C 1327.17,733.334 1336.84,733.5 1346.5,734C 1357.58,734.768 1363.75,740.602 1365,751.5C 1368.19,791.131 1350.03,807.798 1310.5,801.5C 1312.67,778.818 1315,756.152 1317.5,733.5 Z"/></g>
<g><path style="opacity:1" fill="#356abe" d="M 1655.5,733.5 C 1665.17,733.334 1674.84,733.5 1684.5,734C 1695.58,734.768 1701.75,740.602 1703,751.5C 1706.19,791.131 1688.03,807.798 1648.5,801.5C 1650.67,778.818 1653,756.152 1655.5,733.5 Z"/></g>
<g><path style="opacity:1" fill="#fe2e2a" d="M 1137.5,734.5 C 1141.22,737.607 1144.22,741.273 1146.5,745.5C 1144.91,744.398 1144.07,745.065 1144,747.5C 1143.67,746.833 1143.33,746.167 1143,745.5C 1135.8,757.231 1129.13,770.564 1123,785.5C 1122.67,784.833 1122.33,784.167 1122,783.5C 1118.45,789.93 1115.45,796.596 1113,803.5C 1112.67,802.833 1112.33,802.167 1112,801.5C 1108.45,807.93 1105.45,814.596 1103,821.5C 1102.67,820.833 1102.33,820.167 1102,819.5C 1098.45,825.93 1095.45,832.596 1093,839.5C 1092.67,838.833 1092.33,838.167 1092,837.5C 1088.45,843.93 1085.45,850.596 1083,857.5C 1082.67,856.833 1082.33,856.167 1082,855.5C 1078.45,861.93 1075.45,868.596 1073,875.5C 1072.67,874.833 1072.33,874.167 1072,873.5C 1069.85,876.033 1069.35,878.7 1070.5,881.5C 1065.83,877.5 1061.5,873.167 1057.5,868.5C 1082.31,822.871 1107.65,777.538 1133.5,732.5C 1134.62,733.63 1135.96,734.297 1137.5,734.5 Z"/></g>
<g><path style="opacity:1" fill="#fdfdfe" d="M 1503.5,741.5 C 1512.43,739.555 1519.6,742.221 1525,749.5C 1529.24,756.225 1531.91,763.559 1533,771.5C 1534.74,793.764 1533.07,815.764 1528,837.5C 1524.47,850.55 1518.81,862.55 1511,873.5C 1491.37,891.322 1477.37,887.655 1469,862.5C 1462.69,826.949 1467.36,792.949 1483,760.5C 1488.15,752.181 1494.98,745.847 1503.5,741.5 Z"/></g>
<g><path style="opacity:1" fill="#fcfdfe" d="M 1326.5,743.5 C 1333.51,743.334 1340.51,743.5 1347.5,744C 1351.11,744.889 1353.61,747.055 1355,750.5C 1356.18,760.429 1355.18,770.096 1352,779.5C 1349.34,785.492 1344.84,789.325 1338.5,791C 1332.84,791.499 1327.18,791.666 1321.5,791.5C 1323.17,775.5 1324.83,759.5 1326.5,743.5 Z"/></g>
<g><path style="opacity:1" fill="#fcfdfe" d="M 1664.5,743.5 C 1671.51,743.334 1678.51,743.5 1685.5,744C 1689.11,744.889 1691.61,747.055 1693,750.5C 1694.18,760.429 1693.18,770.096 1690,779.5C 1687.34,785.492 1682.84,789.325 1676.5,791C 1670.84,791.499 1665.18,791.666 1659.5,791.5C 1661.17,775.5 1662.83,759.5 1664.5,743.5 Z"/></g>
<g><path style="opacity:1" fill="#fe241e" d="M 1185.5,701.5 C 1206.27,725.611 1216.93,753.778 1217.5,786C 1217.35,791.047 1216.68,795.88 1215.5,800.5C 1214.78,800.082 1214.28,799.416 1214,798.5C 1213.33,799.833 1212.67,801.167 1212,802.5C 1211.33,799.833 1210.67,799.833 1210,802.5C 1209.33,799.833 1208.67,799.833 1208,802.5C 1207.33,799.833 1206.67,799.833 1206,802.5C 1205.33,799.833 1204.67,799.833 1204,802.5C 1203.33,799.833 1202.67,799.833 1202,802.5C 1201.33,799.833 1200.67,799.833 1200,802.5C 1199.33,799.833 1198.67,799.833 1198,802.5C 1197.33,799.833 1196.67,799.833 1196,802.5C 1195.52,801.552 1195.35,800.552 1195.5,799.5C 1198.44,763.087 1187.11,732.087 1161.5,706.5C 1162.31,705.571 1163.15,704.571 1164,703.5C 1164.33,704.5 1164.67,705.5 1165,706.5C 1166.39,702.728 1167.39,702.728 1168,706.5C 1169.39,702.728 1170.39,702.728 1171,706.5C 1172.39,702.728 1173.39,702.728 1174,706.5C 1175.39,702.728 1176.39,702.728 1177,706.5C 1178.39,702.728 1179.39,702.728 1180,706.5C 1181.39,702.728 1182.39,702.728 1183,706.5C 1184.09,704.922 1184.93,703.255 1185.5,701.5 Z"/></g>
<g><path style="opacity:1" fill="#fe2521" d="M 1146.5,745.5 C 1152.03,752.908 1155.7,761.241 1157.5,770.5C 1139.3,803.605 1121.3,836.272 1103.5,868.5C 1103.62,869.107 1103.96,869.44 1104.5,869.5C 1097.19,877.479 1089.52,885.146 1081.5,892.5C 1077.48,889.146 1073.81,885.479 1070.5,881.5C 1069.35,878.7 1069.85,876.033 1072,873.5C 1072.33,874.167 1072.67,874.833 1073,875.5C 1075.45,868.596 1078.45,861.93 1082,855.5C 1082.33,856.167 1082.67,856.833 1083,857.5C 1085.45,850.596 1088.45,843.93 1092,837.5C 1092.33,838.167 1092.67,838.833 1093,839.5C 1095.45,832.596 1098.45,825.93 1102,819.5C 1102.33,820.167 1102.67,820.833 1103,821.5C 1105.45,814.596 1108.45,807.93 1112,801.5C 1112.33,802.167 1112.67,802.833 1113,803.5C 1115.45,796.596 1118.45,789.93 1122,783.5C 1122.33,784.167 1122.67,784.833 1123,785.5C 1129.13,770.564 1135.8,757.231 1143,745.5C 1143.33,746.167 1143.67,746.833 1144,747.5C 1144.07,745.065 1144.91,744.398 1146.5,745.5 Z"/></g>
<g><path style="opacity:1" fill="#fe2c25" d="M 944.5,745.5 C 944.938,745.435 945.272,745.601 945.5,746C 942.644,747.429 942.144,749.263 944,751.5C 945.137,750.636 946.47,749.636 948,748.5C 948.667,751.167 949.333,751.167 950,748.5C 951.333,751.167 952.667,751.167 954,748.5C 954.667,751.167 955.333,751.167 956,748.5C 957.333,751.167 958.667,751.167 960,748.5C 960.667,751.167 961.333,751.167 962,748.5C 963.371,750.041 964.871,751.375 966.5,752.5C 950.608,769.058 934.275,785.392 917.5,801.5C 916.175,800.047 915.342,800.381 915,802.5C 914.333,799.833 913.667,799.833 913,802.5C 912.333,799.833 911.667,799.833 911,802.5C 910.333,799.833 909.667,799.833 909,802.5C 908.333,799.833 907.667,799.833 907,802.5C 906.333,799.833 905.667,799.833 905,802.5C 904.333,799.833 903.667,799.833 903,802.5C 902.333,799.833 901.667,799.833 901,802.5C 900.333,799.833 899.667,799.833 899,802.5C 898.333,799.833 897.667,799.833 897,802.5C 896.333,799.833 895.667,799.833 895,802.5C 894.333,799.833 893.667,799.833 893,802.5C 892.626,801.584 892.126,800.75 891.5,800C 892.252,799.329 892.586,798.496 892.5,797.5C 909.5,779.833 926.833,762.5 944.5,745.5 Z"/></g>
<g><path style="opacity:1" fill="#fe1a17" d="M 1157.5,770.5 C 1161.83,792.524 1157.33,812.524 1144,830.5C 1130.97,843.702 1117.8,856.702 1104.5,869.5C 1103.96,869.44 1103.62,869.107 1103.5,868.5C 1121.3,836.272 1139.3,803.605 1157.5,770.5 Z"/></g>
<g><path style="opacity:1" fill="#4275c2" d="M 959.5,812.5 C 961.171,817.562 960.838,822.396 958.5,827C 960.382,827.198 962.048,827.698 963.5,828.5C 961.143,828.337 958.81,828.503 956.5,829C 952.296,833.036 948.296,837.202 944.5,841.5C 942.833,842.833 941.167,844.167 939.5,845.5C 938.77,841.939 938.103,838.273 937.5,834.5C 944.5,826.833 951.833,819.5 959.5,812.5 Z"/></g>
<g><path style="opacity:1" fill="#2962b9" d="M 996.5,840.5 C 995.167,862.657 994.5,885.157 994.5,908C 994.5,930.843 995.167,953.343 996.5,975.5C 987.635,981.139 977.969,984.805 967.5,986.5C 966.391,985.71 965.058,985.21 963.5,985C 964.832,938.402 964.832,891.902 963.5,845.5C 966.098,842.803 967.765,839.637 968.5,836C 968.682,832.18 967.015,829.68 963.5,828.5C 962.048,827.698 960.382,827.198 958.5,827C 960.838,822.396 961.171,817.562 959.5,812.5C 960.793,810.704 962.293,809.037 964,807.5C 975.035,818.368 985.869,829.368 996.5,840.5 Z"/></g>
<g><path style="opacity:1" fill="#fc3630" d="M 892.5,797.5 C 892.586,798.496 892.252,799.329 891.5,800C 892.126,800.75 892.626,801.584 893,802.5C 893.667,799.833 894.333,799.833 895,802.5C 895.667,799.833 896.333,799.833 897,802.5C 897.667,799.833 898.333,799.833 899,802.5C 899.667,799.833 900.333,799.833 901,802.5C 901.667,799.833 902.333,799.833 903,802.5C 903.667,799.833 904.333,799.833 905,802.5C 905.667,799.833 906.333,799.833 907,802.5C 907.667,799.833 908.333,799.833 909,802.5C 909.667,799.833 910.333,799.833 911,802.5C 911.667,799.833 912.333,799.833 913,802.5C 913.667,799.833 914.333,799.833 915,802.5C 915.342,800.381 916.175,800.047 917.5,801.5C 899.741,818.922 882.741,836.922 866.5,855.5C 860.167,855.5 853.833,855.5 847.5,855.5C 847.5,853.167 847.5,850.833 847.5,848.5C 852.317,839.836 858.15,831.836 865,824.5C 874.035,815.298 883.202,806.298 892.5,797.5 Z"/></g>
<g><path style="opacity:1" fill="#89aada" d="M 963.5,828.5 C 967.015,829.68 968.682,832.18 968.5,836C 967.765,839.637 966.098,842.803 963.5,845.5C 959.5,848.833 955.833,852.5 952.5,856.5C 947.833,860.833 943.167,865.167 938.5,869.5C 938.047,868.542 937.381,867.708 936.5,867C 937.833,862.333 937.833,857.667 936.5,853C 938.429,849.009 941.429,845.343 945.5,842C 945.272,841.601 944.938,841.435 944.5,841.5C 948.296,837.202 952.296,833.036 956.5,829C 958.81,828.503 961.143,828.337 963.5,828.5 Z"/></g>
<g><path style="opacity:1" fill="#225bb6" d="M 996.5,840.5 C 1019.63,863.132 1042.63,885.965 1065.5,909C 1044.17,930.333 1022.83,951.667 1001.5,973C 999.922,974.094 998.255,974.928 996.5,975.5C 995.167,953.343 994.5,930.843 994.5,908C 994.5,885.157 995.167,862.657 996.5,840.5 Z"/></g>
<g><path style="opacity:1" fill="#366cbe" d="M 963.5,845.5 C 964.832,891.902 964.832,938.402 963.5,985C 965.058,985.21 966.391,985.71 967.5,986.5C 966.167,986.5 964.833,986.5 963.5,986.5C 960.223,986.784 957.057,986.451 954,985.5C 953.833,942.331 953.333,899.331 952.5,856.5C 955.833,852.5 959.5,848.833 963.5,845.5 Z"/></g>
<g><path style="opacity:1" fill="#628ecd" d="M 937.5,834.5 C 938.103,838.273 938.77,841.939 939.5,845.5C 931.5,854.167 923.167,862.5 914.5,870.5C 915.773,866.135 915.773,861.801 914.5,857.5C 921.833,849.5 929.5,841.833 937.5,834.5 Z"/></g>
<g><path style="opacity:1" fill="#fc3733" d="M 1215.5,800.5 C 1212.95,828.538 1201.95,852.538 1182.5,872.5C 1173.83,872.666 1165.16,872.5 1156.5,872C 1159.78,869.234 1162.44,866.067 1164.5,862.5C 1180.99,844.518 1191.32,823.518 1195.5,799.5C 1195.35,800.552 1195.52,801.552 1196,802.5C 1196.67,799.833 1197.33,799.833 1198,802.5C 1198.67,799.833 1199.33,799.833 1200,802.5C 1200.67,799.833 1201.33,799.833 1202,802.5C 1202.67,799.833 1203.33,799.833 1204,802.5C 1204.67,799.833 1205.33,799.833 1206,802.5C 1206.67,799.833 1207.33,799.833 1208,802.5C 1208.67,799.833 1209.33,799.833 1210,802.5C 1210.67,799.833 1211.33,799.833 1212,802.5C 1212.67,801.167 1213.33,799.833 1214,798.5C 1214.28,799.416 1214.78,800.082 1215.5,800.5 Z"/></g>
<g><path style="opacity:1" fill="#4377c4" d="M 952.5,856.5 C 953.333,899.331 953.833,942.331 954,985.5C 957.057,986.451 960.223,986.784 963.5,986.5C 956.597,987.577 949.597,987.243 942.5,985.5C 941.158,984.207 939.491,983.374 937.5,983C 938.832,945.736 938.832,908.569 937.5,871.5C 937.833,870.833 938.167,870.167 938.5,869.5C 943.167,865.167 947.833,860.833 952.5,856.5 Z"/></g>
<g><path style="opacity:1" fill="#a0b9e0" d="M 944.5,841.5 C 944.938,841.435 945.272,841.601 945.5,842C 941.429,845.343 938.429,849.009 936.5,853C 937.833,857.667 937.833,862.333 936.5,867C 937.381,867.708 938.047,868.542 938.5,869.5C 938.167,870.167 937.833,870.833 937.5,871.5C 934.5,873.833 931.833,876.5 929.5,879.5C 925.06,883.031 921.56,887.364 919,892.5C 907.459,917.414 909.292,941.247 924.5,964C 921.195,962.886 918.528,960.719 916.5,957.5C 894.716,929.061 894.049,900.061 914.5,870.5C 923.167,862.5 931.5,854.167 939.5,845.5C 941.167,844.167 942.833,842.833 944.5,841.5 Z"/></g>
<g><path style="opacity:1" fill="#5284c9" d="M 937.5,871.5 C 938.832,908.569 938.832,945.736 937.5,983C 939.491,983.374 941.158,984.207 942.5,985.5C 938.534,984.956 934.867,983.623 931.5,981.5C 930.84,947.402 930.173,913.402 929.5,879.5C 931.833,876.5 934.5,873.833 937.5,871.5 Z"/></g>
<g><path style="opacity:1" fill="#fb403b" d="M 1164.5,862.5 C 1162.44,866.067 1159.78,869.234 1156.5,872C 1165.16,872.5 1173.83,872.666 1182.5,872.5C 1168.2,888.47 1153.2,903.803 1137.5,918.5C 1128.7,917.602 1120.03,917.102 1111.5,917C 1113.79,915.223 1115.46,913.056 1116.5,910.5C 1132.17,894.167 1148.17,878.167 1164.5,862.5 Z"/></g>
<g><path style="opacity:1" fill="#81a2d5" d="M 914.5,857.5 C 915.773,861.801 915.773,866.135 914.5,870.5C 894.049,900.061 894.716,929.061 916.5,957.5C 916.135,962.094 915.135,966.427 913.5,970.5C 903.973,963.463 896.806,954.463 892,943.5C 880.382,909.762 887.882,881.095 914.5,857.5 Z"/></g>
<g><path style="opacity:1" fill="#618ece" d="M 929.5,879.5 C 930.173,913.402 930.84,947.402 931.5,981.5C 924.523,979.349 918.523,975.682 913.5,970.5C 915.135,966.427 916.135,962.094 916.5,957.5C 918.528,960.719 921.195,962.886 924.5,964C 909.292,941.247 907.459,917.414 919,892.5C 921.56,887.364 925.06,883.031 929.5,879.5 Z"/></g>
<g><path style="opacity:1" fill="#fc3e3a" d="M 847.5,848.5 C 847.5,850.833 847.5,853.167 847.5,855.5C 853.833,855.5 860.167,855.5 866.5,855.5C 855.283,874.954 849.616,895.954 849.5,918.5C 843.247,917.707 836.914,917.207 830.5,917C 829.531,912.263 829.197,907.43 829.5,902.5C 830.598,882.736 836.598,864.736 847.5,848.5 Z"/></g>
<g><path style="opacity:1" fill="#fb4643" d="M 1116.5,910.5 C 1115.46,913.056 1113.79,915.223 1111.5,917C 1120.03,917.102 1128.7,917.602 1137.5,918.5C 1125.83,930.833 1113.83,942.833 1101.5,954.5C 1092.5,954.5 1083.5,954.5 1074.5,954.5C 1079.56,949.443 1084.23,944.11 1088.5,938.5C 1097.5,928.833 1106.83,919.5 1116.5,910.5 Z"/></g>
<g><path style="opacity:1" fill="#fa4a47" d="M 829.5,902.5 C 829.197,907.43 829.531,912.263 830.5,917C 836.914,917.207 843.247,917.707 849.5,918.5C 851.6,951.366 864.934,978.7 889.5,1000.5C 889.688,1002.1 889.188,1003.44 888,1004.5C 881.667,1004.17 875.333,1003.83 869,1003.5C 868.184,1004.82 867.017,1005.49 865.5,1005.5C 837.986,976.627 825.986,942.294 829.5,902.5 Z"/></g>
<g><path style="opacity:1" fill="#fa4b48" d="M 1074.5,954.5 C 1083.5,954.5 1092.5,954.5 1101.5,954.5C 1085.83,970.833 1069.83,986.833 1053.5,1002.5C 1052.88,1002.39 1052.38,1002.06 1052,1001.5C 1051,1002.5 1050,1003.5 1049,1004.5C 1048.33,1001.83 1047.67,1001.83 1047,1004.5C 1046.33,1001.83 1045.67,1001.83 1045,1004.5C 1044.33,1001.83 1043.67,1001.83 1043,1004.5C 1042.33,1001.83 1041.67,1001.83 1041,1004.5C 1040.33,1001.83 1039.67,1001.83 1039,1004.5C 1038.33,1001.83 1037.67,1001.83 1037,1004.5C 1036.33,1001.83 1035.67,1001.83 1035,1004.5C 1034.33,1001.83 1033.67,1001.83 1033,1004.5C 1032.33,1001.83 1031.67,1001.83 1031,1004.5C 1030.33,1001.83 1029.67,1001.83 1029,1004.5C 1028.5,1003.33 1027.67,1002.5 1026.5,1002C 1029.45,999.564 1031.78,996.731 1033.5,993.5C 1039.83,986.5 1046.5,979.833 1053.5,973.5C 1060.78,967.558 1067.78,961.225 1074.5,954.5 Z"/></g>
<g><path style="opacity:1" fill="#5183c9" d="M 1222.5,966.5 C 1241.84,966.167 1261.18,966.5 1280.5,967.5C 1279.83,971.167 1279.17,974.833 1278.5,978.5C 1262.85,979.499 1247.18,979.833 1231.5,979.5C 1230.38,991.526 1229.05,1003.53 1227.5,1015.5C 1240.83,1015.5 1254.17,1015.5 1267.5,1015.5C 1266.71,1019.79 1266.37,1024.12 1266.5,1028.5C 1252.83,1028.5 1239.17,1028.5 1225.5,1028.5C 1223.26,1045.51 1220.93,1062.51 1218.5,1079.5C 1214.83,1079.5 1211.17,1079.5 1207.5,1079.5C 1212.43,1041.83 1217.43,1004.16 1222.5,966.5 Z"/></g>
<g><path style="opacity:1" fill="#5584c8" d="M 1364.5,1023.5 C 1364.43,1025.41 1363.43,1026.58 1361.5,1027C 1361.83,1027.33 1362.17,1027.67 1362.5,1028C 1360.56,1029.82 1359.89,1031.82 1360.5,1034C 1359.64,1036.73 1358.81,1036.9 1358,1034.5C 1357.44,1036.61 1356.61,1038.61 1355.5,1040.5C 1356.5,1042.83 1355.83,1043.5 1353.5,1042.5C 1352.7,1042.96 1352.37,1043.62 1352.5,1044.5C 1341.81,1044.17 1331.15,1044.5 1320.5,1045.5C 1315.83,1056.5 1311.17,1067.5 1306.5,1078.5C 1302.5,1079.83 1298.5,1079.83 1294.5,1078.5C 1310.33,1041.5 1326.17,1004.5 1342,967.5C 1346.4,966.533 1350.9,966.2 1355.5,966.5C 1358.41,985.511 1361.41,1004.51 1364.5,1023.5 Z"/></g>
<g><path style="opacity:1" fill="#8e79a4" d="M 1468.5,966.5 C 1468.61,967.117 1468.94,967.617 1469.5,968C 1466.39,971.656 1464.39,975.49 1463.5,979.5C 1455.17,979.5 1446.83,979.5 1438.5,979.5C 1437.62,985.474 1436.95,991.474 1436.5,997.5C 1434.69,999.385 1433.52,1001.72 1433,1004.5C 1432.19,1002.1 1431.36,1002.27 1430.5,1005C 1431.52,1006.05 1431.68,1007.22 1431,1008.5C 1430.67,1007.83 1430.33,1007.17 1430,1006.5C 1427.89,1009.49 1426.56,1012.83 1426,1016.5C 1425.19,1014.1 1424.36,1014.27 1423.5,1017C 1424.84,1019.18 1424.51,1019.68 1422.5,1018.5C 1425.15,1001.25 1427.15,983.921 1428.5,966.5C 1441.83,966.5 1455.17,966.5 1468.5,966.5 Z"/></g>
<g><path style="opacity:1" fill="#e05053" d="M 1565.5,979.5 C 1564.78,979.082 1564.28,978.416 1564,977.5C 1560.8,982.173 1558.3,986.839 1556.5,991.5C 1556.85,988.927 1556.35,986.594 1555,984.5C 1554.48,989.362 1553.64,994.028 1552.5,998.5C 1552.66,997.127 1552.49,995.793 1552,994.5C 1551.67,996.5 1551.33,998.5 1551,1000.5C 1547.96,1005.62 1545.29,1010.96 1543,1016.5C 1542.67,1015.83 1542.33,1015.17 1542,1014.5C 1542.57,1016.69 1542.24,1018.69 1541,1020.5C 1540.62,1019.94 1540.12,1019.61 1539.5,1019.5C 1542.24,1001.89 1544.58,984.224 1546.5,966.5C 1552.5,966.5 1558.5,966.5 1564.5,966.5C 1564.47,970.869 1564.8,975.202 1565.5,979.5 Z"/></g>
<g><path style="opacity:1" fill="#ff0b05" d="M 1700.5,966.5 C 1705,965.945 1709.16,966.611 1713,968.5C 1719.55,1005.49 1726.05,1042.49 1732.5,1079.5C 1728.17,1079.5 1723.83,1079.5 1719.5,1079.5C 1718.48,1068.06 1716.82,1056.73 1714.5,1045.5C 1702.51,1044.33 1690.51,1044.17 1678.5,1045C 1673.7,1056.09 1669.04,1067.26 1664.5,1078.5C 1660.5,1079.83 1656.5,1079.83 1652.5,1078.5C 1668.51,1041.14 1684.51,1003.81 1700.5,966.5 Z"/></g>
<g><path style="opacity:1" fill="#ee6257" d="M 1088.5,938.5 C 1084.23,944.11 1079.56,949.443 1074.5,954.5C 1067.78,961.225 1060.78,967.558 1053.5,973.5C 1064.83,961.5 1076.5,949.833 1088.5,938.5 Z"/></g>
<g><path style="opacity:1" fill="#b06e88" d="M 1468.5,966.5 C 1483,965.022 1491.33,971.355 1493.5,985.5C 1492.73,984.737 1492.23,983.737 1492,982.5C 1490.89,984.397 1490.72,986.23 1491.5,988C 1488.83,988.667 1488.83,989.333 1491.5,990C 1488.91,991.339 1487.41,993.506 1487,996.5C 1486.19,994.099 1485.36,994.266 1484.5,997C 1485.09,999.86 1484.59,1002.69 1483,1005.5C 1482.67,1004.83 1482.33,1004.17 1482,1003.5C 1482.22,1006.66 1481.22,1009.66 1479,1012.5C 1478.67,1011.83 1478.33,1011.17 1478,1010.5C 1476.41,1015.6 1474.24,1020.43 1471.5,1025C 1472.06,1025.38 1472.39,1025.88 1472.5,1026.5C 1469.98,1026.88 1467.64,1027.71 1465.5,1029C 1466.94,1029.38 1467.94,1030.21 1468.5,1031.5C 1467.07,1031.88 1466.24,1032.88 1466,1034.5C 1465.67,1033.5 1465.33,1032.5 1465,1031.5C 1464.54,1036.54 1463.7,1040.2 1462.5,1042.5C 1460.56,1038.81 1458.23,1035.31 1455.5,1032C 1452.46,1029.99 1449.13,1029.16 1445.5,1029.5C 1446.26,1026.15 1447.93,1023.31 1450.5,1021C 1449.48,1019.95 1449.32,1018.78 1450,1017.5C 1451.16,1018.57 1451.99,1018.23 1452.5,1016.5C 1475.48,1018.03 1484.65,1007.7 1480,985.5C 1475.71,980.274 1470.21,978.274 1463.5,979.5C 1464.39,975.49 1466.39,971.656 1469.5,968C 1468.94,967.617 1468.61,967.117 1468.5,966.5 Z"/></g>
<g><path style="opacity:1" fill="#ff0c06" d="M 1621.5,966.5 C 1623.83,966.5 1626.17,966.5 1628.5,966.5C 1623.22,1004.13 1618.22,1041.79 1613.5,1079.5C 1609.77,1079.82 1606.11,1079.49 1602.5,1078.5C 1607.26,1047.21 1611.43,1015.88 1615,984.5C 1614.21,985.745 1613.71,987.078 1613.5,988.5C 1612.24,988.539 1611.24,988.039 1610.5,987C 1614.09,980.135 1617.76,973.302 1621.5,966.5 Z"/></g>
<g><path style="opacity:1" fill="#fdfdfd" d="M 1463.5,979.5 C 1470.21,978.274 1475.71,980.274 1480,985.5C 1484.65,1007.7 1475.48,1018.03 1452.5,1016.5C 1446.5,1016.5 1440.5,1016.5 1434.5,1016.5C 1434.44,1010.07 1435.11,1003.74 1436.5,997.5C 1436.95,991.474 1437.62,985.474 1438.5,979.5C 1446.83,979.5 1455.17,979.5 1463.5,979.5 Z"/></g>
<g><path style="opacity:1" fill="#fafbfd" d="M 1346.5,979.5 C 1348.96,996.407 1351.63,1013.41 1354.5,1030.5C 1345.19,1031.5 1335.86,1031.83 1326.5,1031.5C 1333.72,1014.38 1340.39,997.051 1346.5,979.5 Z"/></g>
<g><path style="opacity:1" fill="#fff7f7" d="M 1704.5,979.5 C 1707.43,996.66 1710.1,1013.99 1712.5,1031.5C 1703.17,1031.5 1693.83,1031.5 1684.5,1031.5C 1691.36,1014.25 1698.03,996.919 1704.5,979.5 Z"/></g>
<g><path style="opacity:1" fill="#bc697c" d="M 1493.5,985.5 C 1495.1,998.51 1491.77,1010.01 1483.5,1020C 1480.1,1022.7 1476.44,1024.86 1472.5,1026.5C 1472.39,1025.88 1472.06,1025.38 1471.5,1025C 1474.24,1020.43 1476.41,1015.6 1478,1010.5C 1478.33,1011.17 1478.67,1011.83 1479,1012.5C 1481.22,1009.66 1482.22,1006.66 1482,1003.5C 1482.33,1004.17 1482.67,1004.83 1483,1005.5C 1484.59,1002.69 1485.09,999.86 1484.5,997C 1485.36,994.266 1486.19,994.099 1487,996.5C 1487.41,993.506 1488.91,991.339 1491.5,990C 1488.83,989.333 1488.83,988.667 1491.5,988C 1490.72,986.23 1490.89,984.397 1492,982.5C 1492.23,983.737 1492.73,984.737 1493.5,985.5 Z"/></g>
<g><path style="opacity:1" fill="#e94544" d="M 1565.5,979.5 C 1566.56,987.841 1567.56,996.175 1568.5,1004.5C 1567.31,1003.95 1566.14,1003.62 1565,1003.5C 1563.66,1007.51 1561.83,1011.17 1559.5,1014.5C 1558.58,1006.81 1557.58,999.142 1556.5,991.5C 1558.3,986.839 1560.8,982.173 1564,977.5C 1564.28,978.416 1564.78,979.082 1565.5,979.5 Z"/></g>
<g><path style="opacity:1" fill="#fe1b15" d="M 1621.5,966.5 C 1617.76,973.302 1614.09,980.135 1610.5,987C 1611.24,988.039 1612.24,988.539 1613.5,988.5C 1601.52,1018.47 1589.52,1048.47 1577.5,1078.5C 1574.23,1079.49 1570.9,1079.82 1567.5,1079.5C 1567.04,1076.52 1566.7,1073.52 1566.5,1070.5C 1567.38,1066.05 1568.88,1061.72 1571,1057.5C 1571.76,1055.94 1572.93,1054.94 1574.5,1054.5C 1574.34,1057.19 1574.5,1059.85 1575,1062.5C 1587.79,1030.62 1600.29,998.616 1612.5,966.5C 1615.5,966.5 1618.5,966.5 1621.5,966.5 Z"/></g>
<g><path style="opacity:1" fill="#f95250" d="M 1033.5,993.5 C 1031.78,996.731 1029.45,999.564 1026.5,1002C 1027.67,1002.5 1028.5,1003.33 1029,1004.5C 1029.67,1001.83 1030.33,1001.83 1031,1004.5C 1031.67,1001.83 1032.33,1001.83 1033,1004.5C 1033.67,1001.83 1034.33,1001.83 1035,1004.5C 1035.67,1001.83 1036.33,1001.83 1037,1004.5C 1037.67,1001.83 1038.33,1001.83 1039,1004.5C 1039.67,1001.83 1040.33,1001.83 1041,1004.5C 1041.67,1001.83 1042.33,1001.83 1043,1004.5C 1043.67,1001.83 1044.33,1001.83 1045,1004.5C 1045.67,1001.83 1046.33,1001.83 1047,1004.5C 1047.67,1001.83 1048.33,1001.83 1049,1004.5C 1050,1003.5 1051,1002.5 1052,1001.5C 1052.38,1002.06 1052.88,1002.39 1053.5,1002.5C 1021.87,1034.63 990.035,1066.63 958,1098.5C 926.965,1067.63 896.132,1036.63 865.5,1005.5C 867.017,1005.49 868.184,1004.82 869,1003.5C 875.333,1003.83 881.667,1004.17 888,1004.5C 889.188,1003.44 889.688,1002.1 889.5,1000.5C 911.965,1022.47 934.299,1044.63 956.5,1067C 957.448,1067.48 958.448,1067.65 959.5,1067.5C 971.414,1057.09 982.914,1046.09 994,1034.5C 994.464,1033.91 994.631,1033.24 994.5,1032.5C 1007.17,1019.17 1020.17,1006.17 1033.5,993.5 Z"/></g>
<g><path style="opacity:1" fill="#9d7699" d="M 1436.5,997.5 C 1435.11,1003.74 1434.44,1010.07 1434.5,1016.5C 1440.5,1016.5 1446.5,1016.5 1452.5,1016.5C 1451.99,1018.23 1451.16,1018.57 1450,1017.5C 1449.32,1018.78 1449.48,1019.95 1450.5,1021C 1447.93,1023.31 1446.26,1026.15 1445.5,1029.5C 1440.83,1029.5 1436.17,1029.5 1431.5,1029.5C 1429.5,1046.17 1427.5,1062.83 1425.5,1079.5C 1421.83,1079.5 1418.17,1079.5 1414.5,1079.5C 1416.71,1059 1419.38,1038.67 1422.5,1018.5C 1424.51,1019.68 1424.84,1019.18 1423.5,1017C 1424.36,1014.27 1425.19,1014.1 1426,1016.5C 1426.56,1012.83 1427.89,1009.49 1430,1006.5C 1430.33,1007.17 1430.67,1007.83 1431,1008.5C 1431.68,1007.22 1431.52,1006.05 1430.5,1005C 1431.36,1002.27 1432.19,1002.1 1433,1004.5C 1433.52,1001.72 1434.69,999.385 1436.5,997.5 Z"/></g>
<g><path style="opacity:1" fill="#ea4342" d="M 1552.5,998.5 C 1550.38,1019.03 1547.71,1039.36 1544.5,1059.5C 1543.91,1058.23 1543.41,1056.9 1543,1055.5C 1538.61,1062.95 1534.78,1070.62 1531.5,1078.5C 1534.28,1058.85 1536.94,1039.18 1539.5,1019.5C 1540.12,1019.61 1540.62,1019.94 1541,1020.5C 1542.24,1018.69 1542.57,1016.69 1542,1014.5C 1542.33,1015.17 1542.67,1015.83 1543,1016.5C 1545.29,1010.96 1547.96,1005.62 1551,1000.5C 1551.33,998.5 1551.67,996.5 1552,994.5C 1552.49,995.793 1552.66,997.127 1552.5,998.5 Z"/></g>
<g><path style="opacity:1" fill="#f6342e" d="M 1568.5,1004.5 C 1570.32,1021.19 1572.32,1037.86 1574.5,1054.5C 1572.93,1054.94 1571.76,1055.94 1571,1057.5C 1568.88,1061.72 1567.38,1066.05 1566.5,1070.5C 1563.73,1052.03 1561.4,1033.36 1559.5,1014.5C 1561.83,1011.17 1563.66,1007.51 1565,1003.5C 1566.14,1003.62 1567.31,1003.95 1568.5,1004.5 Z"/></g>
<g><path style="opacity:1" fill="#c06676" d="M 1468.5,1031.5 C 1473.37,1036.57 1476.7,1042.57 1478.5,1049.5C 1476.49,1048.32 1476.16,1048.82 1477.5,1051C 1475.87,1053.75 1474.37,1056.59 1473,1059.5C 1472.67,1058.83 1472.33,1058.17 1472,1057.5C 1470.66,1059.52 1470.16,1061.52 1470.5,1063.5C 1467.46,1056.73 1464.8,1049.73 1462.5,1042.5C 1463.7,1040.2 1464.54,1036.54 1465,1031.5C 1465.33,1032.5 1465.67,1033.5 1466,1034.5C 1466.24,1032.88 1467.07,1031.88 1468.5,1031.5 Z"/></g>
<g><path style="opacity:1" fill="#747fb6" d="M 1364.5,1023.5 C 1368.31,1041.95 1371.65,1060.62 1374.5,1079.5C 1370.17,1079.5 1365.83,1079.5 1361.5,1079.5C 1360.38,1067.76 1358.71,1056.09 1356.5,1044.5C 1355.17,1044.5 1353.83,1044.5 1352.5,1044.5C 1352.37,1043.62 1352.7,1042.96 1353.5,1042.5C 1355.83,1043.5 1356.5,1042.83 1355.5,1040.5C 1356.61,1038.61 1357.44,1036.61 1358,1034.5C 1358.81,1036.9 1359.64,1036.73 1360.5,1034C 1359.89,1031.82 1360.56,1029.82 1362.5,1028C 1362.17,1027.67 1361.83,1027.33 1361.5,1027C 1363.43,1026.58 1364.43,1025.41 1364.5,1023.5 Z"/></g>
<g><path style="opacity:1" fill="#eb645e" d="M 994.5,1032.5 C 994.631,1033.24 994.464,1033.91 994,1034.5C 982.914,1046.09 971.414,1057.09 959.5,1067.5C 970.833,1055.5 982.5,1043.83 994.5,1032.5 Z"/></g>
<g><path style="opacity:1" fill="#f13433" d="M 1544.5,1059.5 C 1543.83,1066.17 1543.17,1072.83 1542.5,1079.5C 1538.63,1079.81 1534.96,1079.48 1531.5,1078.5C 1534.78,1070.62 1538.61,1062.95 1543,1055.5C 1543.41,1056.9 1543.91,1058.23 1544.5,1059.5 Z"/></g>
<g><path style="opacity:1" fill="#cf5d67" d="M 1478.5,1049.5 C 1482.33,1058.99 1486,1068.66 1489.5,1078.5C 1484.83,1079.83 1480.17,1079.83 1475.5,1078.5C 1473.23,1073.69 1471.56,1068.69 1470.5,1063.5C 1470.16,1061.52 1470.66,1059.52 1472,1057.5C 1472.33,1058.17 1472.67,1058.83 1473,1059.5C 1474.37,1056.59 1475.87,1053.75 1477.5,1051C 1476.16,1048.82 1476.49,1048.32 1478.5,1049.5 Z"/></g>
</svg>
